<svg xmlns="http://www.w3.org/2000/svg" viewBox="0 0 93 91.529">
  <defs>
    <style>
      .cls-1 {
        fill: #ff3860;
      }
    </style>
  </defs>
  <g id="innovation" transform="translate(0 -3.859)">
    <g id="Group_32" data-name="Group 32" transform="translate(12.197 3.913)">
      <g id="Group_31" data-name="Group 31">
        <path id="Path_178" data-name="Path 178" d="M130.817,43.711a4.562,4.562,0,0,0-8.6.016h-9.428v-6.1h6.1A1.524,1.524,0,0,0,120.41,36.1h0V29.725a4.574,4.574,0,1,0-3.049,0v4.855h-4.574V31.53a1.524,1.524,0,0,0-1.524-1.525h-3.05V22.1a4.574,4.574,0,1,0-3.049,0v7.9h-6.1V5.666a1.524,1.524,0,0,0-1.524-1.525h0C78.733,4.141,64,17.758,64,35.14c0,8.257,3.278,19.19,8.555,28.529.948,1.676,2.184,3.439,3.493,5.306,2.767,3.945,5.847,8.381,6.182,12.242A4.334,4.334,0,0,0,80.4,84.837a4.529,4.529,0,0,0,1.009,2.831,4.7,4.7,0,0,0-1.4,3.375,4.579,4.579,0,0,0,4.574,4.574H110.5a4.6,4.6,0,0,0,4.574-4.631q0-.025,0-.05a4.553,4.553,0,0,0-1.4-3.284,4.707,4.707,0,0,0,1.013-2.922,4.372,4.372,0,0,0-4.381-4.364q-.1,0-.193,0H99.066V51.35h3.049v4.574a1.524,1.524,0,0,0,1.524,1.525h4.575v1.805a4.574,4.574,0,1,0,3.049,0v-3.33a1.524,1.524,0,0,0-1.524-1.525h-4.575V51.35h6.1a1.524,1.524,0,0,0,1.525-1.524h0V46.776h9.429a4.566,4.566,0,0,0,8.6-3.065Zm-11.932-19.8a1.525,1.525,0,1,1-1.525,1.525A1.525,1.525,0,0,1,118.885,23.907ZM78.545,67.225c-1.266-1.8-2.46-3.508-3.335-5.056-4.957-8.774-8.16-19.383-8.16-27.029,0-15.2,12.6-27.213,28.967-27.918V17.874c-.4.03-.818.067-1.259.121a1.524,1.524,0,0,0-1.307,1.2l-.465,2.21q-.574.136-1.145.308l-1.519-1.694a1.522,1.522,0,0,0-1.733-.386,22.942,22.942,0,0,0-4.8,2.8,1.525,1.525,0,0,0-.531,1.693l.7,2.132c-.288.271-.569.552-.84.84l-2.13-.7a1.534,1.534,0,0,0-1.693.53,22.883,22.883,0,0,0-2.8,4.8,1.524,1.524,0,0,0,.386,1.733l1.7,1.519q-.171.565-.306,1.133l-2.371.473a1.524,1.524,0,0,0-1.226,1.495v5.2A1.524,1.524,0,0,0,75.9,44.772l2.371.473q.135.567.306,1.133L76.88,47.9a1.526,1.526,0,0,0-.386,1.733,22.9,22.9,0,0,0,2.8,4.8,1.532,1.532,0,0,0,1.693.53l2.13-.7s.552.569.84.84l-.7,2.129a1.526,1.526,0,0,0,.53,1.693,22.889,22.889,0,0,0,4.8,2.8,1.527,1.527,0,0,0,1.733-.386l1.519-1.694q.571.172,1.145.308l.464,2.208a1.524,1.524,0,0,0,1.307,1.2c.442.054.855.091,1.26.121V80.37h-10.8C84.59,75.877,81.407,71.307,78.545,67.225ZM83.82,40.677a13.737,13.737,0,0,0,12.2,13.631v5.243l-.252-1.2a1.525,1.525,0,0,0-1.222-1.188,16.519,16.519,0,0,1-2.656-.716,1.55,1.55,0,0,0-.516-.089,1.523,1.523,0,0,0-1.135.508l-1.434,1.6a19.764,19.764,0,0,1-2.3-1.347l.662-2.014a1.526,1.526,0,0,0-.464-1.641,16.688,16.688,0,0,1-1.951-1.95,1.533,1.533,0,0,0-1.639-.462l-2.014.663a19.78,19.78,0,0,1-1.348-2.3l1.6-1.434a1.527,1.527,0,0,0,.418-1.651,16.609,16.609,0,0,1-.716-2.656,1.524,1.524,0,0,0-1.2-1.224l-2.131-.426v-2.7l2.131-.426a1.524,1.524,0,0,0,1.2-1.224,16.65,16.65,0,0,1,.716-2.658,1.525,1.525,0,0,0-.418-1.651l-1.6-1.432a20.033,20.033,0,0,1,1.347-2.3l2.014.663a1.533,1.533,0,0,0,1.639-.462,17.057,17.057,0,0,1,1.953-1.955,1.523,1.523,0,0,0,.462-1.636l-.661-2.014A19.883,19.883,0,0,1,88.8,22.89l1.434,1.6a1.53,1.53,0,0,0,1.651.418,16.479,16.479,0,0,1,2.656-.716A1.523,1.523,0,0,0,95.764,23l.253-1.2v5.241A13.737,13.737,0,0,0,83.82,40.677Zm12.2-10.55v21.1a10.658,10.658,0,0,1,0-21.1Zm16.008,60.916a1.526,1.526,0,0,1-1.525,1.525H84.582a1.553,1.553,0,0,1-1.526-1.579q0-.027,0-.053a1.526,1.526,0,0,1,1.525-1.525H110.5a1.553,1.553,0,0,1,1.526,1.579Q112.026,91.016,112.025,91.043ZM110.11,83.42a1.4,1.4,0,0,1,1.525,1.417,1.526,1.526,0,0,1-1.525,1.525H84.972a1.553,1.553,0,0,1-1.526-1.579q0-.027,0-.053a1.377,1.377,0,0,1,1.435-1.317l.089.007H110.11Zm-.372-21.4a1.525,1.525,0,1,1-1.525,1.525A1.525,1.525,0,0,1,109.738,62.022Zm-3.049-45.738a1.525,1.525,0,1,1-1.525,1.525A1.525,1.525,0,0,1,106.689,16.284ZM109.738,48.3H99.066V33.054h10.672Zm16.771-1.525a1.525,1.525,0,1,1,1.525-1.525A1.525,1.525,0,0,1,126.508,46.776Z" transform="translate(-64 -4.141)"/>
      </g>
    </g>
    <g id="Group_34" data-name="Group 34" transform="translate(59.017 73.603)">
      <g id="Group_33" data-name="Group 33">
        <path id="Path_179" data-name="Path 179" class="cls-1" d="M311.1,369.828a25.848,25.848,0,0,0-1.424,2.978l2.835,1.123a22.811,22.811,0,0,1,1.259-2.626Z" transform="translate(-309.68 -369.828)"/>
      </g>
    </g>
    <g id="Group_36" data-name="Group 36" transform="translate(62.102 68.233)">
      <g id="Group_35" data-name="Group 35">
        <path id="Path_180" data-name="Path 180" class="cls-1" d="M327.636,341.648c-.6.861-1.2,1.736-1.769,2.62l2.559,1.656c.554-.855,1.132-1.7,1.712-2.534Z" transform="translate(-325.867 -341.648)"/>
      </g>
    </g>
    <g id="Group_38" data-name="Group 38" transform="translate(65.651 63.16)">
      <g id="Group_37" data-name="Group 37">
        <path id="Path_181" data-name="Path 181" class="cls-1" d="M346.177,315.031c-.514.816-1.088,1.66-1.688,2.527l2.5,1.739c.629-.905,1.228-1.788,1.764-2.643Z" transform="translate(-344.489 -315.031)"/>
      </g>
    </g>
    <g id="Group_40" data-name="Group 40" transform="translate(68.829 57.846)">
      <g id="Group_39" data-name="Group 39">
        <path id="Path_182" data-name="Path 182" class="cls-1" d="M362.538,287.148q-.655,1.371-1.37,2.711l2.689,1.438q.748-1.4,1.433-2.836Z" transform="translate(-361.168 -287.148)"/>
      </g>
    </g>
    <g id="Group_42" data-name="Group 42" transform="translate(71.45 52.251)">
      <g id="Group_41" data-name="Group 41">
        <path id="Path_183" data-name="Path 183" class="cls-1" d="M376.052,257.789c-.354.942-.732,1.886-1.131,2.823l2.807,1.194q.623-1.467,1.178-2.945Z" transform="translate(-374.921 -257.789)"/>
      </g>
    </g>
    <g id="Group_44" data-name="Group 44" transform="translate(76.111 34.608)">
      <g id="Group_43" data-name="Group 43">
        <path id="Path_184" data-name="Path 184" class="cls-1" d="M402.545,165.211l-3.049.024,0,.28c0,.85-.039,1.754-.118,2.683l3.039.256c.086-1.014.129-2,.129-2.939Z" transform="translate(-399.379 -165.211)"/>
      </g>
    </g>
    <g id="Group_46" data-name="Group 46" transform="translate(75.532 28.118)">
      <g id="Group_45" data-name="Group 45">
        <path id="Path_185" data-name="Path 185" class="cls-1" d="M399.309,131.156l-2.969.694a26.36,26.36,0,0,1,.508,2.89l3.028-.36A29.562,29.562,0,0,0,399.309,131.156Z" transform="translate(-396.34 -131.156)"/>
      </g>
    </g>
    <g id="Group_48" data-name="Group 48" transform="translate(73.568 21.958)">
      <g id="Group_47" data-name="Group 47">
        <path id="Path_186" data-name="Path 186" class="cls-1" d="M388.776,98.828l-2.741,1.334a26.66,26.66,0,0,1,1.138,2.707l2.872-1.021A29.346,29.346,0,0,0,388.776,98.828Z" transform="translate(-386.035 -98.828)"/>
      </g>
    </g>
    <g id="Group_50" data-name="Group 50" transform="translate(70.433 16.437)">
      <g id="Group_49" data-name="Group 49">
        <path id="Path_187" data-name="Path 187" class="cls-1" d="M371.974,69.859l-2.388,1.9a27.751,27.751,0,0,1,1.7,2.4l2.577-1.629A30.769,30.769,0,0,0,371.974,69.859Z" transform="translate(-369.586 -69.859)"/>
      </g>
    </g>
    <g id="Group_52" data-name="Group 52" transform="translate(66.309 11.784)">
      <g id="Group_51" data-name="Group 51" transform="translate(0 0)">
        <path id="Path_188" data-name="Path 188" class="cls-1" d="M349.889,45.445l-1.943,2.349a28.776,28.776,0,0,1,2.173,1.994l2.174-2.138A32.008,32.008,0,0,0,349.889,45.445Z" transform="translate(-347.946 -45.445)"/>
      </g>
    </g>
    <g id="Group_54" data-name="Group 54" transform="translate(61.408 8.15)">
      <g id="Group_53" data-name="Group 53">
        <path id="Path_189" data-name="Path 189" class="cls-1" d="M323.677,26.375l-1.45,2.683c.871.471,1.723.986,2.533,1.531l1.7-2.531C325.571,27.459,324.634,26.893,323.677,26.375Z" transform="translate(-322.227 -26.375)"/>
      </g>
    </g>
    <g id="Group_56" data-name="Group 56" transform="translate(55.959 5.62)">
      <g id="Group_55" data-name="Group 55">
        <path id="Path_190" data-name="Path 190" class="cls-1" d="M294.556,13.1l-.923,2.906c.95.3,1.884.646,2.778,1.026l1.193-2.805C296.622,13.811,295.6,13.432,294.556,13.1Z" transform="translate(-293.633 -13.102)"/>
      </g>
    </g>
    <g id="Group_58" data-name="Group 58" transform="translate(50.166 4.221)">
      <g id="Group_57" data-name="Group 57">
        <path id="Path_191" data-name="Path 191" class="cls-1" d="M263.628,5.758l-.39,3.025c.983.127,1.967.3,2.925.511l.66-2.978C265.777,6.086,264.7,5.9,263.628,5.758Z" transform="translate(-263.238 -5.758)"/>
      </g>
    </g>
    <g id="Group_60" data-name="Group 60" transform="translate(3.049 86.187)">
      <g id="Group_59" data-name="Group 59">
        <rect id="Rectangle_63" data-name="Rectangle 63" width="3.049" height="3.049"/>
      </g>
    </g>
    <g id="Group_62" data-name="Group 62" transform="translate(3.049 92.285)">
      <g id="Group_61" data-name="Group 61">
        <rect id="Rectangle_64" data-name="Rectangle 64" class="cls-1" width="3.049" height="3.049"/>
      </g>
    </g>
    <g id="Group_64" data-name="Group 64" transform="translate(6.098 89.236)">
      <g id="Group_63" data-name="Group 63">
        <rect id="Rectangle_65" data-name="Rectangle 65" width="3.049" height="3.049"/>
      </g>
    </g>
    <g id="Group_66" data-name="Group 66" transform="translate(0 89.236)">
      <g id="Group_65" data-name="Group 65">
        <rect id="Rectangle_66" data-name="Rectangle 66" width="3.049" height="3.049"/>
      </g>
    </g>
    <g id="Group_68" data-name="Group 68" transform="translate(86.902 3.859)">
      <g id="Group_67" data-name="Group 67" transform="translate(0 0)">
        <rect id="Rectangle_67" data-name="Rectangle 67" width="3.049" height="3.049"/>
      </g>
    </g>
    <g id="Group_70" data-name="Group 70" transform="translate(86.902 9.957)">
      <g id="Group_69" data-name="Group 69">
        <rect id="Rectangle_68" data-name="Rectangle 68" width="3.049" height="3.049"/>
      </g>
    </g>
    <g id="Group_72" data-name="Group 72" transform="translate(89.951 6.908)">
      <g id="Group_71" data-name="Group 71">
        <rect id="Rectangle_69" data-name="Rectangle 69" width="3.049" height="3.049"/>
      </g>
    </g>
    <g id="Group_74" data-name="Group 74" transform="translate(83.852 6.908)">
      <g id="Group_73" data-name="Group 73">
        <rect id="Rectangle_70" data-name="Rectangle 70" class="cls-1" width="3.049" height="3.049"/>
      </g>
    </g>
  </g>
</svg>
