<?xml version="1.0" encoding="utf-8"?>
<!-- Generator: Adobe Illustrator 22.0.1, SVG Export Plug-In . SVG Version: 6.00 Build 0)  -->
<svg version="1.1" id="Layer_1" xmlns="http://www.w3.org/2000/svg" xmlns:xlink="http://www.w3.org/1999/xlink" x="0px" y="0px"
	 viewBox="0 0 367 41" style="enable-background:new 0 0 367 41;" xml:space="preserve">
<style type="text/css">
	.st0{enable-background:new    ;}
</style>
<g>
	<g class="st0">
		<path d="M17.7,15.6L6.1,20.9l11.5,5.3v2.5L2.4,21.8V20l15.3-6.9V15.6z"/>
		<path d="M337,31l-2.1-0.7l9.2-22.5l2.1,0.8L337,31z"/>
		<path d="M348.8,13.1L364,20v1.8l-15.2,6.9v-2.5l11.5-5.3l-11.5-5.3V13.1z"/>
	</g>
	<g id="Group_25" transform="translate(25.5 11.4)">
		<path id="Path_151" d="M6.9,6h7.6v6.8H6.9v8.4h-8.2V-3.6h16.8v7H7L6.9,6L6.9,6z"/>
		<path id="Path_152" d="M19-3.6h8.4v24.8H19V-3.6z"/>
		<path id="Path_153" d="M32.1-3.6h10.6c1.2,0,2.4,0.1,3.6,0.3C47.5-3,48.6-2.6,49.6-2c1,0.6,1.8,1.4,2.3,2.4c0.6,1.2,1,2.5,0.9,3.8
			c0.1,1.4-0.4,2.8-1.2,4c-0.8,1.2-1.9,2.2-3.3,2.7l6.3,10h-9.6l-4.8-8.9h-0.2V21h-8C32.1,21,32.1-3.6,32.1-3.6z M40.1,6.8h1.6
			c0.3,0,0.6,0,0.9-0.1c0.3,0,0.7-0.1,0.9-0.3c0.3-0.1,0.5-0.3,0.7-0.6c0.3-0.3,0.4-0.7,0.3-1.1c0-0.4-0.1-0.7-0.2-1.1
			c-0.1-0.3-0.3-0.5-0.6-0.6C43.6,3,43.3,2.9,43,2.8h-2.8v4L40.1,6.8L40.1,6.8z"/>
		<path id="Path_154" d="M57.1-3.6h17v6.9h-9.2v2.1h8.6V12h-8.6v2.3h9.8v6.9H57.1V-3.6z"/>
		<path id="Path_155" d="M91,21.2h-8.4L75.9-3.6h8.9l2.7,13.9h0.1l2.9-13.9h8.8l3.2,13.9h0.1l2.7-13.9h8.5l-6.9,24.8h-8.4l-3.5-14
			h-0.1L91,21.2z"/>
		<path id="Path_156" d="M114.6,8.7c0-1.8,0.3-3.7,1.1-5.4c0.7-1.6,1.7-3,2.9-4.1c1.3-1.1,2.7-2,4.3-2.6c1.8-0.6,3.6-0.9,5.5-0.9
			c1.9,0,3.7,0.3,5.5,0.9c1.6,0.6,3.1,1.5,4.4,2.6c1.3,1.1,2.3,2.5,2.9,4.1c0.7,1.7,1.1,3.5,1.1,5.4c0,1.9-0.3,3.7-1.1,5.5
			c-1.4,3.2-4,5.7-7.3,6.9c-3.5,1.2-7.4,1.2-11,0c-1.6-0.6-3.1-1.5-4.3-2.7c-1.2-1.2-2.2-2.6-2.9-4.2
			C114.9,12.4,114.6,10.6,114.6,8.7z M123.5,8.7c0,0.8,0.1,1.5,0.3,2.2c0.2,0.7,0.6,1.3,1.1,1.8c0.5,0.5,1,0.8,1.5,1.2
			c0.6,0.2,1.3,0.4,2,0.3c0.7,0,1.3-0.1,2-0.3c0.6-0.3,1.1-0.7,1.5-1.2c0.5-0.5,0.8-1.1,1.1-1.8c0.2-0.7,0.4-1.5,0.3-2.2
			c0-0.8-0.1-1.5-0.3-2.2c-0.2-0.6-0.6-1.2-1.1-1.6c-0.4-0.5-0.9-0.8-1.5-1.1c-0.6-0.2-1.3-0.4-2-0.3c-0.7,0-1.3,0.1-2,0.3
			c-0.6,0.2-1.1,0.6-1.5,1.1c-0.5,0.5-0.8,1-1.1,1.6C123.6,7.2,123.5,7.9,123.5,8.7z"/>
		<path id="Path_157" d="M145.4-3.6h10.7c1.2,0,2.4,0.1,3.6,0.3c1.2,0.2,2.3,0.7,3.3,1.3c1,0.6,1.8,1.4,2.3,2.4
			c0.6,1.2,1,2.5,0.9,3.8c0.1,1.4-0.4,2.8-1.2,4c-0.8,1.2-1.9,2.2-3.3,2.7l6.3,10h-9.6l-4.8-8.9h-0.2V21h-8V-3.6H145.4z M153.5,6.8
			h1.6c0.3,0,0.6,0,0.9-0.1c0.3,0,0.7-0.1,0.9-0.3c0.3-0.1,0.5-0.3,0.7-0.6c0.3-0.3,0.4-0.7,0.3-1.1c0-0.4-0.1-0.7-0.2-1.1
			c-0.1-0.3-0.3-0.5-0.6-0.6c-0.3-0.1-0.5-0.2-0.8-0.2h-2.8v4L153.5,6.8L153.5,6.8z"/>
		<path id="Path_158" d="M178.6,11.4L178.6,11.4l-0.1,9.9h-8.1V-3.4h8v9.1h0.1l6.7-9.1h9.8l-9.3,11.3l9.8,13.4h-10.3L178.6,11.4z"/>
		<path id="Path_159" d="M205.3,21.9c-1,0-1.9-0.1-2.9-0.2c-0.9-0.2-1.9-0.5-2.8-0.8c-0.9-0.3-1.7-0.7-2.6-1.2
			c-0.8-0.4-1.5-0.9-2.1-1.5l5.1-5.5c0.7,0.7,1.5,1.2,2.3,1.6c0.9,0.5,2,0.7,3,0.7c0.4,0,0.9-0.1,1.3-0.2c0.4-0.1,0.6-0.5,0.6-0.9
			c0-0.2-0.1-0.4-0.2-0.6c-0.2-0.2-0.4-0.4-0.7-0.5c-0.3-0.1-0.8-0.3-1.4-0.6c-0.7-0.3-1.4-0.5-2.1-0.7c-0.9-0.3-1.7-0.6-2.4-1.1
			c-0.8-0.4-1.5-0.8-2.1-1.4c-0.6-0.6-1-1.2-1.4-2c-0.4-0.9-0.6-1.8-0.6-2.8c0-1.4,0.3-2.7,0.9-4c0.6-1.1,1.4-2,2.4-2.7
			c1-0.7,2.2-1.2,3.4-1.5c1.2-0.3,2.4-0.5,3.6-0.5c1.7,0,3.4,0.3,5,0.9c1.7,0.6,3.2,1.5,4.4,2.7L211,4.5c-0.6-0.7-1.3-1.3-2.1-1.6
			c-0.7-0.3-1.5-0.5-2.2-0.6c-0.5,0-1,0.1-1.5,0.2c-0.3,0.2-0.6,0.5-0.6,0.8c0,0.4,0.2,0.7,0.6,0.8c0.6,0.3,1.2,0.6,1.9,0.7
			c0.9,0.2,1.9,0.6,2.8,0.9c1,0.3,1.9,0.8,2.7,1.4c0.8,0.6,1.6,1.3,2.1,2.2c0.6,1,0.9,2.1,0.8,3.3c0,1.3-0.3,2.7-0.9,3.8
			c-0.6,1.1-1.4,2-2.3,2.8c-1,0.7-2.1,1.3-3.3,1.6C207.9,21.7,206.6,22,205.3,21.9z"/>
	</g>
	<path d="M261,30h-3V11.4h-6.8V8.8h16.6v2.6H261V30z"/>
	<path d="M273.6,27.4h11.1V30h-14.1V8.8h13.6v2.6h-10.7v6.4h10v2.5h-10V27.4z"/>
	<path d="M306.9,26.7c-0.8,1.1-1.9,2.1-3.3,2.8c-1.3,0.7-2.9,1.1-4.8,1.1c-1.6,0-3.1-0.3-4.5-0.8c-1.4-0.5-2.6-1.3-3.5-2.3
		c-1-1-1.8-2.2-2.3-3.5s-0.8-2.9-0.8-4.5c0-1.7,0.3-3.2,0.9-4.5c0.6-1.4,1.4-2.5,2.4-3.5c1-1,2.2-1.7,3.6-2.3
		c1.4-0.5,2.9-0.8,4.5-0.8c0.7,0,1.4,0.1,2.2,0.2c0.7,0.1,1.4,0.4,2.1,0.6c0.7,0.3,1.3,0.6,1.9,1c0.6,0.4,1,0.9,1.4,1.4l-2.3,1.8
		c-0.5-0.7-1.3-1.3-2.2-1.8s-2-0.7-3.1-0.7c-1.2,0-2.4,0.2-3.3,0.7s-1.8,1.1-2.5,1.8c-0.7,0.8-1.2,1.7-1.6,2.7
		c-0.4,1-0.6,2.1-0.6,3.3c0,1.2,0.2,2.3,0.6,3.4s0.9,1.9,1.6,2.7c0.7,0.8,1.5,1.4,2.5,1.8c1,0.4,2.1,0.7,3.3,0.7
		c1.2,0,2.3-0.2,3.3-0.7c1-0.5,1.8-1.2,2.4-2.1L306.9,26.7z"/>
	<path d="M309.9,8.8h3v8.9h10.7V8.8h3V30h-3v-9.7h-10.7V30h-3V8.8z"/>
</g>
</svg>
