<?xml version="1.0" encoding="utf-8"?>
<!-- Generator: Adobe Illustrator 22.0.1, SVG Export Plug-In . SVG Version: 6.00 Build 0)  -->
<svg version="1.1" id="Layer_1" xmlns="http://www.w3.org/2000/svg" xmlns:xlink="http://www.w3.org/1999/xlink" x="0px" y="0px"
	 viewBox="0 0 400 400" style="enable-background:new 0 0 400 400;" xml:space="preserve">
<style type="text/css">
	.st0{fill:none;stroke:#000000;stroke-width:9;stroke-miterlimit:10;}
</style>
<g>
	<g>
		<g>
			<path d="M157.7,236l-3.7-17.8c-4.1-14.5-13.8-35.6-22.3-48.1l-11-16.3c-0.5-0.7,0-1.7,0.9-1.7l0,0c0.2,0,0.5,0.1,0.7,0.2
				c16.2,12.1,25.7,30.9,30.2,50.1l0.9,2.9c3.2,9.9,4.7,20.3,4.6,30.7l0,0C158,236.1,157.8,236.2,157.7,236z"/>
			<path d="M165.5,233.9l-2.9-29.5c-3.8-24.2-14.4-59.7-24.2-81l-12.8-27.8c-0.6-1.3,0.2-2.8,1.4-2.8l0,0c0.3,0,0.6,0.2,0.9,0.4
				c20.2,21.3,30.7,53.1,34.5,84.9l0.9,4.9c3.1,16.6,4,33.7,2.6,50.8l0,0C165.9,234.2,165.5,234.2,165.5,233.9z"/>
			<path d="M151.3,177.8l-3.4-8.4c-3.3-6.8-10.1-16.3-15.3-21.6l-6.9-7c-0.3-0.3-0.1-0.9,0.3-0.9l0,0c0.1,0,0.2,0,0.4,0
				c9.1,4.5,15.5,12.9,19.4,21.9l0.7,1.4c2.5,4.6,4.2,9.5,5,14.7l0,0C151.5,177.9,151.4,177.9,151.3,177.8z"/>
			<path d="M236.1,236l3.7-17.8c4-14.5,13.7-35.6,22-48.1l10.9-16.3c0.5-0.7,0-1.7-0.9-1.7l0,0c-0.2,0-0.5,0.1-0.7,0.2
				c-16.1,12.1-25.5,30.9-29.9,50.1l-0.9,2.9c-3.1,9.9-4.7,20.3-4.5,30.7l0,0C235.8,236.1,236.1,236.2,236.1,236z"/>
			<path d="M226.5,238.4l2.2-31.8c3.6-26.2,15.8-65.4,27.7-89.3L272,86.1c0.7-1.4-0.5-3-2.1-2.8l0,0c-0.4,0.1-0.8,0.3-1.2,0.6
				c-26,25.2-38.3,60.4-41.5,94.7l-0.9,5.3c-3.1,18-3.3,36.4-0.4,54.5l0,0C226,238.7,226.5,238.7,226.5,238.4z"/>
			<path d="M202.5,232.8l0.4-37.1c1.9-30.5,10.8-75.9,20.1-103.4l12.3-35.9c0.6-1.6-0.6-3.5-2-3.3l0,0c-0.4,0.1-0.7,0.3-1,0.6
				c-21.7,28.5-30.8,69.1-32,109.2l-0.6,6.2c-1.9,21-1.1,42.5,2.3,63.7l0,0C202.1,233.2,202.5,233.2,202.5,232.8z"/>
			<path d="M211.8,234.6v-17.9c0.6-14.7,3.9-36.4,7.4-49.5l4.6-17.1c0.2-0.8-0.2-1.7-0.8-1.6l0,0c-0.1,0-0.3,0.1-0.4,0.3
				c-8.4,13.3-11.8,32.7-12,52.1l-0.2,3c-0.6,10.1-0.2,20.5,1.2,30.8l0,0C211.6,234.7,211.8,234.7,211.8,234.6z"/>
			<path d="M173.6,236.5l1.9-12.9c0.9-10.8-0.4-27.4-2.9-37.9l-3.3-13.7c-0.1-0.6,0.5-1.2,1-0.9l0,0c0.2,0.1,0.3,0.2,0.4,0.3
				c7.8,12.1,9.5,27.2,7.7,41.2l-0.1,2.2c-0.4,7.5-1.9,14.8-4.6,21.8l0,0C173.7,236.6,173.6,236.6,173.6,236.5z"/>
			<path d="M184.4,224.9l1.7-28.3c0-23.5-5-58.9-11.4-80.7l-8.4-28.5c-0.4-1.3,0.7-2.7,1.9-2.4l0,0c0.3,0.1,0.6,0.3,0.8,0.6
				c16.8,23.6,22.3,55.5,21.1,86.2l0.1,4.8c0.5,16.2-1.3,32.5-5.4,48.4l0,0C184.7,225.2,184.4,225.2,184.4,224.9z"/>
			<polygon points="132.5,90.7 125.5,90.7 121.6,96.6 119.3,89.8 112.6,87.8 118.1,83.6 117.8,76.5 123.5,80.7 130.1,78.3 
				128.1,85.1 			"/>
			<polygon points="123.5,148.6 118.5,150 117.1,155 113.8,150.5 108.5,150.4 111.5,146.2 109.5,141.1 114.6,143 118.8,139.9 
				119,145.3 			"/>
			<polygon points="127.7,137.3 124.9,138.1 124.1,141 122.2,138.4 119.1,138.3 120.9,135.9 119.7,133 122.7,134.1 125,132.4 
				125.2,135.4 			"/>
			<polygon points="172.2,169.8 169.2,169.7 167.6,172.2 166.6,169.2 163.7,168.2 166,166.5 165.9,163.3 168.3,165.3 171.1,164.3 
				170.3,167.3 			"/>
			<polygon points="171.3,81.7 165.5,82.3 162.8,87.4 160.4,82.2 154.7,81.1 159,77.2 158.2,71.5 163.2,74.4 168.4,71.8 167.3,77.5 
							"/>
			<polygon points="243,58.5 235.4,50.1 224.2,51.7 229.7,41.9 224.7,31.7 235.8,33.9 244,26.1 245.3,37.3 255.3,42.6 245,47.3 			
				"/>
			<polygon points="277.5,87.1 272,81.1 263.9,82.3 267.9,75.2 264.4,67.9 272.4,69.5 278.2,63.8 279.1,71.9 286.3,75.7 278.9,79.1 
							"/>
			<polygon points="278.1,155 275,149.8 268.9,149.4 272.9,144.8 271.4,138.9 277,141.3 282.2,138 281.6,144.1 286.3,148 
				280.4,149.3 			"/>
			<polygon points="228.2,149.7 225.7,146.1 221.2,145.5 223.9,142.6 222.5,138.6 226.7,140.5 230.2,138.5 230.2,142.6 233.7,145.4 
				229.5,146 			"/>
			<polygon points="167.5,128.6 164,127.7 161.3,130.1 161,126.5 157.9,124.7 161.3,123.3 162,119.8 164.4,122.6 168,122.2 
				166.1,125.3 			"/>
			<polygon points="128.2,116.3 124.6,116.8 123,120 121.4,116.7 117.9,116.1 120.5,113.6 120,110 123.2,111.8 126.4,110.2 
				125.7,113.7 			"/>
			<polygon points="155.6,99.4 150.8,100.2 148.3,104.4 146.4,100.3 141.7,99.7 145.4,96.3 144.9,91.7 149.1,93.8 153.6,91.5 
				152.4,96.2 			"/>
			<polygon points="149,66.5 145.5,66.7 144.1,69.8 142.5,66.5 139,65.7 141.4,63.4 140.8,59.8 143.9,61.7 146.9,60.3 146.4,63.8 
							"/>
			<polygon points="198.7,96 195.4,92.4 190.6,93.1 193,88.9 190.8,84.5 195.6,85.5 199.1,82.1 199.6,86.9 203.9,89.2 199.5,91.2 
							"/>
			<polygon points="193.8,63.3 188.4,58 180.9,59.4 184.3,52.6 180.6,46 188.1,47.1 193.3,41.6 194.6,49.1 201.4,52.3 194.7,55.8 
							"/>
			<polygon points="270,129.8 268.7,126.7 265.2,126.3 267.9,123.7 267.5,120.2 270.5,121.7 273.7,119.9 272.9,123.4 275.2,125.8 
				271.7,126.5 			"/>
			<polygon points="235,109.4 232.9,106.7 229.5,107.2 231.4,104 230.2,100.7 233.4,101.4 236.1,98.8 236.2,102.5 239.1,104.2 
				235.9,105.8 			"/>
			<polygon points="245.3,85.4 242.4,81.6 237.6,82.3 240.3,77.8 238.5,73.1 243.1,74.2 246.8,70.6 247,75.7 251,78.2 246.5,80.3 
							"/>
			<polygon points="171.4,43.3 168.9,43.1 167.3,45 166.8,42.7 164.5,41.8 166.6,40.6 166.8,38.2 168.7,39.7 171.1,39 170.1,41.3 
							"/>
			<polygon points="206.9,35.5 204.8,34.2 202.5,35.1 203.2,32.8 201.5,30.9 204,30.8 205.4,28.8 206.3,31.1 208.7,31.6 206.7,33.1 
							"/>
			<polygon points="256.1,207.1 254,205.8 251.6,206.7 252.3,204.4 250.7,202.5 253.2,202.4 254.5,200.4 255.4,202.7 257.8,203.2 
				255.9,204.7 			"/>
			<polygon points="288.2,115.9 286.1,114.6 283.7,115.5 284.4,113.2 282.8,111.3 285.3,111.2 286.6,109.2 287.5,111.5 289.9,112 
				288,113.5 			"/>
			<polygon points="116.5,115.5 114,116 112.9,118.2 111.8,116 109.4,115.8 111.2,114 110.8,111.6 113,112.7 115.2,111.5 
				114.7,113.9 			"/>
			<polygon points="149.4,48.4 147.9,48.7 147.1,50.1 146.5,48.7 144.9,48.5 146.1,47.4 145.8,45.9 147.2,46.6 148.6,45.8 
				148.3,47.4 			"/>
			<polygon points="263.9,56.8 262.4,57 261.7,58.5 261,57.1 259.4,56.9 260.6,55.8 260.3,54.3 261.7,55 263.1,54.2 262.8,55.7 			
				"/>
			<polygon points="279.9,104.6 278.3,104.8 277.6,106.3 276.9,104.9 275.4,104.7 276.5,103.6 276.3,102.1 277.6,102.8 279,102 
				278.8,103.5 			"/>
			<polygon points="215,58.9 213.5,59.2 212.8,60.6 212.1,59.2 210.5,59 211.7,57.9 211.4,56.4 212.8,57.1 214.2,56.3 213.9,57.9 
							"/>
			<polygon points="134.7,61.4 133.2,61.7 132.5,63.1 131.8,61.7 130.2,61.6 131.4,60.4 131.1,58.9 132.5,59.6 133.9,58.8 
				133.6,60.4 			"/>
			<polygon points="186.7,32.6 185.2,32.9 184.4,34.3 183.8,32.9 182.2,32.8 183.4,31.6 183.1,30.1 184.5,30.8 185.9,30 185.6,31.6 
							"/>
			<polygon points="268.6,182.9 267.3,179.7 263.9,179.3 266.5,176.7 266.1,173.2 269.1,174.7 272.3,172.9 271.5,176.5 273.9,178.9 
				270.4,179.6 			"/>
			<polygon points="137.3,203.8 139.3,202.4 141.4,203.3 140.8,201 142.3,199.2 140,199.1 138.8,197.1 138,199.3 135.7,199.9 
				137.5,201.4 			"/>
			<polygon points="172.2,148.7 173.4,146.3 175.4,145.6 174.2,144 174.9,141.5 173,142.9 171.4,142 171.4,144.5 169.7,146.5 
				171.6,146.5 			"/>
			<polygon points="127.1,177.9 125.2,176.7 123.2,177.6 123.7,175.4 122.3,173.8 124.5,173.6 125.6,171.8 126.4,173.8 128.6,174.3 
				126.9,175.7 			"/>
			<polygon points="110.8,128.2 109.8,128.2 109.2,129.1 108.9,128.1 107.9,127.9 108.7,127.2 108.6,126.2 109.5,126.8 110.5,126.4 
				110.2,127.4 			"/>
			<polygon points="274.6,161.9 273.6,161 272.3,161.3 272.8,160.1 272.1,158.9 273.5,159 274.3,158 274.6,159.3 275.9,159.8 
				274.7,160.5 			"/>
			<polygon points="284.1,127.3 283.3,125.9 281.6,125.8 282.7,124.6 282.3,122.9 283.8,123.6 285.2,122.7 285.1,124.4 286.4,125.4 
				284.8,125.8 			"/>
		</g>
		<g>
			<path d="M236.1,255.3h-74.4c-2.6,0-4.8-2.1-4.8-4.8l0,0c0-2.6,2.1-4.8,4.8-4.8h74.4c2.6,0,4.8,2.1,4.8,4.8l0,0
				C240.8,253.2,238.7,255.3,236.1,255.3z"/>
			<path class="st0" d="M180.9,292.8c0,9.9,8,17.9,17.9,17.9s17.9-8,17.9-17.9"/>
			<path d="M235,271h-72.3c-2.6,0-4.8-2.1-4.8-4.8l0,0c0-2.6,2.1-4.8,4.8-4.8H235c2.6,0,4.8,2.1,4.8,4.8l0,0
				C239.8,268.9,237.6,271,235,271z"/>
			<path d="M231.6,286.7h-65.3c-2.6,0-4.8-2.1-4.8-4.8l0,0c0-2.6,2.1-4.8,4.8-4.8h65.3c2.6,0,4.8,2.1,4.8,4.8l0,0
				C236.3,284.5,234.2,286.7,231.6,286.7z"/>
		</g>
		<path d="M219.3,291h-5c-1.1,0-2,0.9-2,2l0,0h9l0,0C221.3,291.9,220.4,291,219.3,291z"/>
		<path d="M183.4,291h-5c-1.1,0-2,0.9-2,2l0,0h9l0,0C185.4,291.9,184.5,291,183.4,291z"/>
	</g>
	<g>
		<path d="M113.6,349.7h6.5v5.8h-6.5v7.2h-7v-21.2H121v6h-7.3L113.6,349.7L113.6,349.7z"/>
		<path d="M124,341.5h7.2v21.2H124V341.5z"/>
		<path d="M135.2,341.5h9.1c1,0,2.1,0.1,3.1,0.3c1,0.2,2,0.6,2.8,1.1s1.5,1.2,2,2.1s0.8,2,0.8,3.3s-0.3,2.4-1,3.4
			c-0.6,1-1.6,1.8-2.8,2.3l5.4,8.6h-8.2l-4.1-7.6h-0.2v7.6h-6.9L135.2,341.5L135.2,341.5z M142.1,350.4h1.4c0.2,0,0.5,0,0.8-0.1
			c0.3,0,0.6-0.1,0.8-0.3c0.2-0.1,0.5-0.3,0.6-0.5c0.2-0.2,0.3-0.5,0.3-0.9s-0.1-0.7-0.2-0.9c-0.1-0.2-0.3-0.4-0.5-0.5
			s-0.5-0.2-0.7-0.2c-0.3,0-0.5,0-0.7,0h-1.7v3.4H142.1z"/>
		<path d="M156.6,341.5h14.6v5.9h-7.9v1.8h7.4v5.6h-7.4v2h8.4v5.9h-15.1V341.5z"/>
		<path d="M185.7,362.7h-7.2l-5.8-21.2h7.6l2.3,11.9h0.1l2.5-11.9h7.5l2.7,11.9h0.1l2.3-11.9h7.3l-5.9,21.2H192l-3-12h-0.1
			L185.7,362.7z"/>
		<path d="M205.7,352c0-1.7,0.3-3.2,0.9-4.6c0.6-1.4,1.4-2.5,2.5-3.5s2.3-1.7,3.7-2.2s3-0.8,4.7-0.8s3.2,0.3,4.7,0.8
			c1.4,0.5,2.7,1.3,3.8,2.2c1.1,1,1.9,2.1,2.5,3.5s0.9,2.9,0.9,4.6s-0.3,3.2-0.9,4.7c-0.6,1.4-1.4,2.6-2.5,3.6s-2.3,1.8-3.8,2.3
			s-3,0.8-4.7,0.8s-3.2-0.3-4.7-0.8c-1.4-0.5-2.7-1.3-3.7-2.3s-1.9-2.2-2.5-3.6C206,355.2,205.7,353.7,205.7,352z M213.3,352
			c0,0.7,0.1,1.3,0.3,1.9s0.5,1.1,0.9,1.5s0.8,0.7,1.3,1c0.5,0.2,1.1,0.3,1.7,0.3c0.6,0,1.2-0.1,1.7-0.3c0.5-0.2,1-0.6,1.3-1
			c0.4-0.4,0.7-0.9,0.9-1.5s0.3-1.2,0.3-1.9c0-0.7-0.1-1.3-0.3-1.9s-0.5-1-0.9-1.4s-0.8-0.7-1.3-0.9c-0.5-0.2-1.1-0.3-1.7-0.3
			c-0.6,0-1.2,0.1-1.7,0.3c-0.5,0.2-1,0.5-1.3,0.9c-0.4,0.4-0.7,0.9-0.9,1.4S213.3,351.3,213.3,352z"/>
		<path d="M232.3,341.5h9.2c1,0,2.1,0.1,3.1,0.3s2,0.6,2.8,1.1s1.5,1.2,2,2.1s0.8,2,0.8,3.3s-0.3,2.4-1,3.4c-0.6,1-1.6,1.8-2.8,2.3
			l5.4,8.6h-8.2l-4.1-7.6h-0.2v7.6h-6.9v-21.1H232.3z M239.2,350.4h1.4c0.2,0,0.5,0,0.8-0.1c0.3,0,0.6-0.1,0.8-0.3
			c0.2-0.1,0.5-0.3,0.6-0.5c0.2-0.2,0.3-0.5,0.3-0.9s-0.1-0.7-0.2-0.9c-0.1-0.2-0.3-0.4-0.5-0.5s-0.5-0.2-0.7-0.2
			c-0.3,0-0.5,0-0.7,0h-1.7v3.4H239.2z"/>
		<path d="M260.7,354.3L260.7,354.3l-0.1,8.5h-6.9v-21.2h6.9v7.8h0.1l5.7-7.8h8.4l-8,9.7l8.4,11.5h-8.8L260.7,354.3z"/>
		<path d="M283.6,363.3c-0.9,0-1.7-0.1-2.5-0.2c-0.8-0.2-1.6-0.4-2.4-0.7c-0.8-0.3-1.5-0.6-2.2-1s-1.3-0.8-1.8-1.3l4.4-4.7
			c0.5,0.5,1.2,1,2,1.4s1.7,0.6,2.6,0.6c0.4,0,0.8-0.1,1.1-0.2c0.3-0.1,0.5-0.4,0.5-0.8c0-0.2-0.1-0.4-0.2-0.5s-0.3-0.3-0.6-0.4
			c-0.3-0.1-0.7-0.3-1.2-0.5s-1.1-0.4-1.8-0.6c-0.7-0.2-1.4-0.5-2.1-0.9c-0.7-0.3-1.2-0.7-1.8-1.2c-0.5-0.5-0.9-1.1-1.2-1.7
			s-0.5-1.5-0.5-2.4c0-1.3,0.3-2.4,0.8-3.4s1.2-1.7,2.1-2.3c0.8-0.6,1.8-1,2.9-1.3s2.1-0.4,3.1-0.4c1.4,0,2.8,0.3,4.3,0.8
			s2.7,1.3,3.8,2.3l-4.4,4.5c-0.5-0.6-1.1-1.1-1.8-1.4c-0.7-0.3-1.3-0.5-1.9-0.5c-0.5,0-0.9,0.1-1.3,0.2c-0.3,0.2-0.5,0.4-0.5,0.7
			c0,0.3,0.2,0.6,0.5,0.7c0.3,0.2,0.9,0.4,1.6,0.6c0.8,0.2,1.6,0.5,2.4,0.8s1.6,0.7,2.3,1.2s1.3,1.1,1.8,1.9s0.7,1.7,0.7,2.8
			c0,1.3-0.3,2.4-0.8,3.3s-1.2,1.7-2,2.4c-0.8,0.6-1.8,1.1-2.8,1.4C285.7,363.2,284.7,363.3,283.6,363.3z"/>
	</g>
</g>
</svg>
