<?xml version="1.0" encoding="utf-8"?>
<!-- Generator: Adobe Illustrator 22.0.1, SVG Export Plug-In . SVG Version: 6.00 Build 0)  -->
<svg version="1.1" id="Layer_1" xmlns="http://www.w3.org/2000/svg" xmlns:xlink="http://www.w3.org/1999/xlink" x="0px" y="0px"
	 viewBox="0 0 300 80.8" style="enable-background:new 0 0 300 80.8;" xml:space="preserve">
<style type="text/css">
	.st0{fill:#FFFFFF;}
</style>
<g id="Layer_x0020_1">
	<g id="_167744456944">
		<polygon points="88.9,48.1 88.9,32.6 90.8,32.6 90.8,48.1 		"/>
		<polygon points="31.3,32.6 31.3,48.3 29.5,48.3 29.5,32.6 		"/>
		<polygon points="24.6,18.3 24.6,0 56.5,0 56.5,18.3 51.6,18.3 51.6,60.2 54.2,62.7 66.1,62.7 68.6,60.2 68.6,18.3 63.8,18.3 
			63.8,0 95.8,0 95.8,18.3 90.8,18.3 90.8,25.2 88.9,25.2 88.9,16.3 93.6,16.3 93.6,2 65.8,2 65.8,16.3 70.6,16.3 70.6,60.5 
			66.5,64.6 53.9,64.6 49.6,60.3 49.6,16.3 54.5,16.3 54.5,2 26.6,2 26.6,16.3 31.3,16.3 31.3,25.2 29.5,25.2 29.5,18.3 		"/>
		<polygon points="29.1,13.7 29.1,4.5 52.1,4.5 52.1,13.7 47.2,13.7 47.2,62.1 52.2,67 68.1,67 73.1,62 73.1,13.7 68.2,13.7 
			68.2,4.5 91.2,4.5 91.2,13.7 86.4,13.7 86.4,65.7 75.8,76.3 44.6,76.3 33.8,65.6 33.8,13.7 		"/>
		<rect x="6.5" y="27.4" width="107.4" height="30.5"/>
		<g>
			<path class="st0" d="M14.7,41.2h3.5v3.1h-3.5v3.9h-3.8V36.8h7.8V40h-4V41.2z"/>
			<path class="st0" d="M20.4,36.8h3.9v11.5h-3.9V36.8z"/>
			<path class="st0" d="M26.4,36.8h5c0.6,0,1.2,0.1,1.7,0.2c0.6,0.1,1.1,0.3,1.5,0.6c0.4,0.3,0.8,0.7,1.1,1.2
				c0.2,0.5,0.4,1.1,0.4,1.8c0,0.7-0.2,1.3-0.5,1.8s-0.8,0.9-1.5,1.2l2.9,4.6h-4.5l-2.2-4.1h-0.1v4.1h-3.7V36.8H26.4z M30.1,41.7
				h0.7c0.2,0,0.2,0,0.4,0s0.3-0.1,0.4-0.2s0.2-0.2,0.3-0.3c0.1-0.2,0.2-0.3,0.2-0.5c0-0.2,0-0.3-0.1-0.5c-0.1-0.1-0.2-0.2-0.3-0.2
				c-0.1-0.1-0.2-0.1-0.4-0.1c-0.2,0-0.2,0-0.4,0h-0.8C30.1,39.9,30.1,41.7,30.1,41.7z"/>
			<path class="st0" d="M38,36.8h7.9V40h-4.3v1h4v3h-4v1.1h4.5v3.2H38V36.8z"/>
			<path class="st0" d="M53.7,48.3h-3.9l-3.1-11.5h4.1l1.2,6.4h0.1l1.3-6.4h4.1l1.4,6.4H59l1.2-6.4h4L61,48.3h-4l-1.7-6.5h-0.1
				L53.7,48.3z"/>
			<path class="st0" d="M64.5,42.5c0-0.9,0.2-1.7,0.5-2.5c0.3-0.7,0.7-1.4,1.3-1.9s1.2-0.9,2-1.2c0.7-0.2,1.7-0.4,2.6-0.4
				s1.7,0.2,2.6,0.4c0.7,0.2,1.5,0.7,2.1,1.2s1,1.2,1.3,1.9c0.3,0.7,0.5,1.6,0.5,2.5s-0.2,1.7-0.5,2.5c-0.3,0.7-0.7,1.4-1.3,1.9
				s-1.2,0.9-2.1,1.2c-0.8,0.3-1.7,0.4-2.6,0.4s-1.7-0.2-2.6-0.4c-0.8-0.2-1.5-0.7-2-1.2c-0.6-0.5-1-1.2-1.3-1.9
				C64.7,44.3,64.5,43.4,64.5,42.5z M68.7,42.5c0,0.4,0.1,0.7,0.2,1.1c0.1,0.3,0.2,0.6,0.5,0.8c0.2,0.2,0.4,0.4,0.7,0.5
				c0.2,0.2,0.6,0.2,0.9,0.2s0.7-0.1,0.9-0.2c0.2-0.1,0.5-0.3,0.7-0.5c0.2-0.2,0.3-0.5,0.5-0.8c0.1-0.3,0.2-0.7,0.2-1.1
				c0-0.3-0.1-0.7-0.2-1c-0.1-0.3-0.2-0.6-0.5-0.7c-0.2-0.2-0.4-0.4-0.7-0.5c-0.2-0.1-0.6-0.2-0.9-0.2s-0.7,0.1-0.9,0.2
				s-0.5,0.2-0.7,0.5c-0.2,0.2-0.3,0.5-0.5,0.7C68.7,41.7,68.7,42.2,68.7,42.5z"/>
			<path class="st0" d="M78.9,36.8h5c0.6,0,1.2,0.1,1.7,0.2c0.6,0.1,1.1,0.3,1.5,0.6c0.4,0.3,0.8,0.7,1.1,1.2
				c0.2,0.5,0.4,1.1,0.4,1.8c0,0.7-0.2,1.3-0.5,1.8s-0.8,0.9-1.5,1.2l2.9,4.6H85l-2.2-4.1h-0.1v4.1H79L78.9,36.8L78.9,36.8z
				 M82.6,41.7h0.7c0.2,0,0.2,0,0.4,0s0.3-0.1,0.4-0.2c0.1-0.1,0.2-0.2,0.3-0.3c0.1-0.2,0.2-0.3,0.2-0.5c0-0.2,0-0.3-0.1-0.5
				c-0.1-0.1-0.2-0.2-0.3-0.2c-0.1-0.1-0.2-0.1-0.4-0.1s-0.2,0-0.4,0h-0.9L82.6,41.7L82.6,41.7z"/>
			<path class="st0" d="M94.3,43.7L94.3,43.7v4.5h-3.7V36.8h3.7V41l0,0l3.1-4.2h4.5l-4.3,5.3l4.5,6.2h-4.7L94.3,43.7z"/>
			<path class="st0" d="M106.7,48.6c-0.5,0-0.9,0-1.4-0.1s-0.9-0.2-1.3-0.3c-0.4-0.2-0.8-0.3-1.2-0.6c-0.4-0.3-0.7-0.4-1-0.7
				l2.3-2.6c0.2,0.3,0.7,0.6,1.1,0.7c0.4,0.2,0.9,0.3,1.4,0.3c0.2,0,0.4,0,0.6-0.1c0.2-0.1,0.2-0.2,0.2-0.4c0-0.1,0-0.2-0.1-0.2
				c-0.1-0.1-0.2-0.2-0.3-0.2c-0.2-0.1-0.3-0.2-0.7-0.2c-0.2-0.1-0.6-0.2-1-0.3c-0.4-0.2-0.7-0.2-1.2-0.5c-0.3-0.2-0.7-0.4-0.9-0.7
				c-0.2-0.2-0.5-0.6-0.7-0.9s-0.2-0.8-0.2-1.3c0-0.7,0.2-1.3,0.4-1.8c0.3-0.5,0.7-0.9,1.2-1.2c0.5-0.3,1-0.6,1.6-0.7
				c0.6-0.2,1.2-0.2,1.7-0.2c0.7,0,1.5,0.2,2.3,0.4c0.7,0.3,1.5,0.7,2.1,1.2l-2.4,2.5c-0.2-0.3-0.6-0.6-1-0.7
				c-0.4-0.2-0.7-0.2-1-0.2c-0.2,0-0.5,0-0.7,0.1s-0.2,0.2-0.2,0.4c0,0.2,0.1,0.3,0.2,0.4c0.2,0.1,0.5,0.2,0.8,0.3
				c0.4,0.2,0.8,0.2,1.3,0.4c0.4,0.2,0.9,0.4,1.2,0.7c0.4,0.2,0.7,0.6,0.9,1s0.4,0.9,0.4,1.5c0,0.7-0.2,1.3-0.4,1.8
				s-0.7,0.9-1.1,1.3c-0.4,0.3-1,0.6-1.5,0.7C107.8,48.5,107.3,48.6,106.7,48.6z"/>
		</g>
		<polygon points="4.2,25.2 30.5,25.2 30.5,23.3 2.3,23.3 2.3,61.8 29.5,61.8 29.5,67.9 42.4,80.8 77.9,80.8 90.8,67.9 90.8,61.8 
			118,61.8 118,23.3 90.2,23.3 90.2,25.2 118,25.2 116.1,25.2 116.1,59.9 90.2,59.9 90.2,59.9 88.9,59.9 88.9,67.5 77.6,78.9 
			42.8,78.9 31.3,67.5 31.3,59.9 29.5,59.9 29.5,59.9 4.2,59.9 		"/>
	</g>
</g>
</svg>
