<?xml version="1.0" encoding="utf-8"?>
<!-- Generator: Adobe Illustrator 22.0.1, SVG Export Plug-In . SVG Version: 6.00 Build 0)  -->
<svg version="1.1" id="Layer_1" xmlns="http://www.w3.org/2000/svg" xmlns:xlink="http://www.w3.org/1999/xlink" x="0px" y="0px"
	 viewBox="0 0 1963.2 838.2" style="enable-background:new 0 0 1963.2 838.2;" xml:space="preserve">
<style type="text/css">
	.st0{fill:#7F7F7F;}
</style>
<g>
	<path class="st0" d="M445.4,513.9h-90.7c0,0,10.8-7.3,10.8-34.9v-66.3c0-17.6-4.3-27.1-7.3-31.4h-21.4v97.8
		c0,27.6,11.1,34.9,11.1,34.9h-90.7c0,0,10.8-7.3,10.8-34.9v-97.8h-10.8v-3.8H268v-25.2c0.3-63.9,45-72.6,90.2-72.6
		c38.2,0,76.4,18.1,74.7,59.6c-1.1,26.3-21.1,33.8-41.4,30.3c-16-2.7-31.4-17.9-19.2-49.3c13.3-33.3,1.4-37.6-11.9-37.6
		c-20.6,0-23.6,25.7-23.6,58v36.8h108.6c0,0-10.8,7.3-10.8,35.2V479C434.6,506.5,445.4,513.9,445.4,513.9z"/>
	<path class="st0" d="M596.8,429.4c-41.2,4.6-34.7-45.2-45-25.5c-6,11.4-8.7,25.2-8.7,40.1c0,7.6,0,21.7,0,34.9
		c0,27.6,10.8,34.9,10.8,34.9h-90.4c0,0,10.8-7.3,10.8-34.9v-66.3c0-27.9-10.8-35.2-10.8-35.2h72.3l7.3,44.1
		c4.9-21.1,13-43.3,34.4-49.3c16.5-4.9,34.4-0.5,41.2,15.7C626.8,406.9,616,426.9,596.8,429.4z"/>
	<path class="st0" d="M783.1,475.1c-12.5,27.4-40.3,41.4-72.8,41.7c-42.8,0-81.2-23.8-81.2-71.5c0.3-39.3,23.6-71.2,80.7-71.2
		c58,0,71.8,32,72.3,71.2h-87.2c11.1,46.3,61.5,54.4,85.6,29.8L783.1,475.1L783.1,475.1z M694,441.8h31.1
		c3.5-28.7,0.8-65.8-16.8-65.8C693.5,376,685.3,402.8,694,441.8z"/>
	<path class="st0" d="M1052.8,377.4c-13.3,11.6-25.2,27.6-37.9,57.4c-12.7,30.1-32.2,79.1-32.2,79.1h-32.2c0,0-17.9-34.7-34.1-66.1
		C904.1,477,889,513.9,889,513.9h-31.4c0,0-47.1-90.7-58.2-111.3C788,381.4,782,377.4,782,377.4h89.1c0,0-5.7,8.9,1.1,25.2
		c7,16.2,32.8,66.1,32.8,66.1s2.2-3.5,9.5-23.6c0-0.3,0-0.3,0.3-0.5c-9.5-17.9-17.9-34.4-21.9-42c-11.1-21.4-17.3-25.2-17.3-25.2
		h89.1c0,0-5.7,8.9,1.4,25.2c6.8,16.2,31.4,69.1,31.4,69.1s3-6.5,10.6-26.5c11.6-31.4,6.8-59.6-14.1-67.7h58.8V377.4z"/>
	<path class="st0" d="M1216.9,445.6c-0.3,39.3-30.6,71.2-87.7,71.2c-57.4,0-87.7-32-88-71.2c0.3-39.5,30.6-71.5,88-71.5
		C1186.3,374.1,1216.6,406.1,1216.9,445.6z M1148.7,445.6c-0.5-29.5-1.4-69.3-19.5-69.3c-18.4,0-19.2,39.8-19.8,69.3
		c0.5,29.2,1.4,69.1,19.8,69.1C1147.3,514.7,1148.1,474.9,1148.7,445.6z"/>
	<path class="st0" d="M1362.9,429.4c-41.2,4.6-34.7-45.2-45-25.5c-6,11.4-8.7,25.2-8.7,40.1c0,7.6,0,21.7,0,34.9
		c0,27.6,10.8,34.9,10.8,34.9h-90.4c0,0,10.8-7.3,10.8-34.9v-66.3c0-27.9-10.8-35.2-10.8-35.2h72.3l7.3,44.1
		c4.9-21.1,13-43.3,34.4-49.3c16.5-4.9,34.4-0.5,41.2,15.7C1392.9,406.9,1382.1,426.9,1362.9,429.4z"/>
	<path class="st0" d="M1581.4,513.9h-87.2c0,0,6.5-7.9-6.2-34.9l-12.2-25.5l-1.1,1.4V479c0,27.6,10.8,34.9,10.8,34.9h-90.4
		c0,0,10.8-7.3,10.8-34.9V345.7c0-27.9-10.8-35.2-10.8-35.2h90.4c0,0-10.8,7.3-10.8,35.2v105.1l29.5-32.2
		c18.7-21.1,19.5-33.9,0.3-41.2h69.9c-21.7,5.1-46,13.8-58.2,30.6l39,70.9C1569.2,504.4,1581.4,513.9,1581.4,513.9z"/>
	<path class="st0" d="M1708.1,490.6c-10.3,22.2-38.7,26.3-52.8,26.3c-13,0-25.7-4.3-44.4-6.2c-12.5-1.1-18.4,6.8-18.4,6.8v-55
		c0,0,24.6,51.2,58.8,51.2c9.5,0,12.2-15.2-12.5-32.2c-15.4-10.6-28.4-18.7-41.7-33c-13.3-14.1-12.7-40.3,0.8-55.5
		c9.7-11.1,26.8-18.7,48.5-18.7c9.7,0,17.6,0.8,36.3,5.4c12.2,3,15.4-4.9,15.4-4.9v53.9c0,0-17.6-51.7-46.8-51.7
		c-8.7,0-13.8,7-7.9,19c6.5,13.3,33.6,27.6,50.9,41.2C1712.5,451,1716.2,473,1708.1,490.6z"/>
</g>
<g>
	<path class="st0" d="M291.8,613.8c3.7,0,7.3-0.7,10.9-2s7-3.6,10.4-6.9l7.4,7.7c-4.4,4.3-9.1,7.4-13.9,9.5
		c-4.9,2.1-9.8,3.1-14.7,3.1c-5.5,0-10.6-1-15.4-3.1s-9-5-12.6-8.6c-3.6-3.7-6.5-8-8.6-13s-3.1-10.3-3.1-16c0-5.5,1-10.6,3.1-15.5
		c2.1-4.8,4.9-9,8.6-12.6c3.6-3.6,7.8-6.4,12.6-8.5c4.8-2.1,9.9-3.1,15.4-3.1c4.9,0,9.9,1,14.8,3s9.6,4.9,14,8.7l-7.4,7.4
		c-3.2-2.4-6.7-4.4-10.4-5.8c-3.7-1.4-7.4-2.1-11-2.1c-4.2,0-8.1,0.7-11.7,2.2s-6.7,3.5-9.3,6.1c-2.6,2.6-4.6,5.6-6.1,9
		s-2.2,7.1-2.2,11.1c0,4.3,0.7,8.2,2.2,11.8s3.5,6.7,6.1,9.3s5.7,4.7,9.3,6.2C283.7,613.1,287.6,613.8,291.8,613.8z"/>
	<path class="st0" d="M410.7,625l-21.8-33.8h-11.2V625h-10.4v-80h21.8c2.8,0,5.6,0.6,8.4,1.7c2.8,1.1,5.3,2.7,7.5,4.7s4,4.5,5.4,7.3
		c1.4,2.9,2.1,6.1,2.1,9.7c0,4.3-1,8.3-3.1,11.8s-5.1,6.3-9,8.3L424,625H410.7z M389.4,580c1.8,0,3.4-0.4,4.9-1.1
		c1.4-0.7,2.6-1.7,3.5-2.8c1-1.1,1.7-2.4,2.2-3.8c0.5-1.4,0.8-2.7,0.8-4c0-2.2-0.4-4.1-1.3-5.6c-0.8-1.5-1.8-2.8-3-3.8
		s-2.4-1.7-3.8-2.1c-1.3-0.4-2.5-0.6-3.4-0.6h-11.8V580H389.4z"/>
	<path class="st0" d="M475.5,556v23.2h26.6v10.3h-26.6v24.4h32.2V625h-43.4v-80.1h43.4V556H475.5z"/>
	<path class="st0" d="M623.6,624.9h-12.1l-6.9-15.4h-35.5l-6.6,15.4h-12.1l2.2-4.9c1.1-2.5,2.2-5,3.3-7.5s2.2-5,3.1-7.4
		c4.6-10.7,9.3-21.6,14.1-33c4.8-11.3,9.5-22.4,14.1-33.3L623.6,624.9z M600,598.4c-1-2.4-1.9-4.8-2.9-7c-0.9-2.2-1.9-4.4-2.9-6.6
		c-1.3-3-2.5-5.9-3.7-8.5s-2.4-5.6-3.7-8.9l-2.4,5.6c-0.6,1.4-1.2,2.8-1.8,4.2s-1.1,2.8-1.7,4.1c-1.3,2.8-2.6,5.6-3.8,8.4
		c-1.2,2.8-2.4,5.7-3.7,8.7H600z"/>
	<path class="st0" d="M713.5,545v10.5h-20.1V625h-10.5v-69.5h-20V545H713.5z"/>
	<path class="st0" d="M767.3,545v80h-11.2v-80H767.3z"/>
	<path class="st0" d="M898.1,545l-42.5,83l-23.1-45L813,545h12.2l30.4,58.9c3-5.8,6-11.6,9-17.4c2.9-5.8,5.9-11.6,8.9-17.4L886,545
		H898.1z"/>
	<path class="st0" d="M954.9,556v23.2h26.6v10.3h-26.6v24.4h32.2V625h-43.4v-80.1h43.4V556H954.9z"/>
	<path class="st0" d="M1168.8,624.9h-12.1l-6.9-15.4h-35.5l-6.6,15.4h-12.1l2.2-4.9c1.1-2.5,2.2-5,3.3-7.5c1.1-2.5,2.2-5,3.1-7.4
		c4.6-10.7,9.3-21.6,14.1-33c4.8-11.3,9.5-22.4,14.1-33.3L1168.8,624.9z M1145.2,598.4c-1-2.4-1.9-4.8-2.9-7
		c-0.9-2.2-1.9-4.4-2.9-6.6c-1.3-3-2.5-5.9-3.7-8.5s-2.4-5.6-3.7-8.9l-2.4,5.6c-0.6,1.4-1.2,2.8-1.8,4.2c-0.6,1.4-1.1,2.8-1.7,4.1
		c-1.3,2.8-2.6,5.6-3.8,8.4c-1.2,2.8-2.4,5.7-3.7,8.7H1145.2z"/>
	<path class="st0" d="M1247.1,583.3h33.9v30.5c-4.1,3.7-8.6,6.6-13.4,8.6s-9.7,3-14.7,3c-5.7,0-11.1-1-16-3.1c-5-2.1-9.3-4.9-13-8.6
		c-3.7-3.6-6.6-7.8-8.7-12.7c-2.1-4.8-3.2-10-3.2-15.5s1.1-10.7,3.2-15.7s5-9.3,8.7-13.1c3.7-3.7,8-6.7,13-8.9s10.3-3.3,16-3.3
		c4.9,0,9.9,1.1,14.7,3.3c4.9,2.2,9.6,5.4,14,9.5l-7.4,7.5c-3.4-3.3-6.9-5.7-10.5-7.2c-3.7-1.5-7.3-2.3-10.9-2.3
		c-4.3,0-8.2,0.8-11.9,2.3c-3.7,1.6-6.8,3.7-9.5,6.5c-2.7,2.7-4.8,5.9-6.3,9.6c-1.6,3.7-2.3,7.6-2.3,11.8c0,4,0.8,7.7,2.3,11.2
		c1.6,3.5,3.7,6.6,6.3,9.2c2.7,2.6,5.8,4.7,9.5,6.2s7.6,2.3,11.9,2.3c2.9,0,5.8-0.4,8.6-1.3c2.9-0.8,5.7-2.2,8.6-4v-15.8h-23.1v-10
		H1247.1z"/>
	<path class="st0" d="M1338.9,556v23.2h26.6v10.3h-26.6v24.4h32.2V625h-43.4v-80.1h43.4V556H1338.9z"/>
	<path class="st0" d="M1479.9,630.8l-50.3-62.4V625h-10.3v-86.2l50.3,61.7V545h10.3V630.8z"/>
	<path class="st0" d="M1567.7,613.8c3.7,0,7.3-0.7,10.9-2s7-3.6,10.4-6.9l7.4,7.7c-4.4,4.3-9.1,7.4-13.9,9.5
		c-4.9,2.1-9.8,3.1-14.7,3.1c-5.5,0-10.6-1-15.4-3.1s-9-5-12.6-8.6c-3.6-3.7-6.5-8-8.6-13s-3.1-10.3-3.1-16c0-5.5,1-10.6,3.1-15.5
		c2.1-4.8,4.9-9,8.6-12.6c3.6-3.6,7.8-6.4,12.6-8.5c4.8-2.1,9.9-3.1,15.4-3.1c4.9,0,9.9,1,14.8,3s9.6,4.9,14,8.7l-7.4,7.4
		c-3.2-2.4-6.7-4.4-10.4-5.8c-3.7-1.4-7.4-2.1-11-2.1c-4.2,0-8.1,0.7-11.7,2.2s-6.7,3.5-9.3,6.1c-2.6,2.6-4.6,5.6-6.1,9
		s-2.2,7.1-2.2,11.1c0,4.3,0.7,8.2,2.2,11.8s3.5,6.7,6.1,9.3s5.7,4.7,9.3,6.2C1559.6,613.1,1563.5,613.8,1567.7,613.8z"/>
	<path class="st0" d="M1681.1,584.8l-0.6,0.8V625h-11.1v-39.5c-0.8-1.1-1.8-2.3-2.7-3.6c-1-1.3-1.9-2.5-2.7-3.6l-7.9-10.5
		c-1.2-1.6-2.4-3.2-3.7-4.8c-1.2-1.6-2.5-3.3-3.8-5l-9.8-12.9h13.8l22.5,29.4l9.9-13c0.5-0.6,0.9-1.3,1.4-2s0.9-1.4,1.3-2l9.5-12.3
		h13.8L1681.1,584.8z"/>
</g>
</svg>
