<?xml version="1.0" encoding="utf-8"?>
<!-- Generator: Adobe Illustrator 22.0.1, SVG Export Plug-In . SVG Version: 6.00 Build 0)  -->
<svg version="1.1" id="Layer_1" xmlns="http://www.w3.org/2000/svg" xmlns:xlink="http://www.w3.org/1999/xlink" x="0px" y="0px"
	 viewBox="0 0 1460.7 237.8" style="enable-background:new 0 0 1460.7 237.8;" xml:space="preserve">
<title>fwk_logo_white</title>
<g>
	<path d="M188.2,234.2H97.5c0,0,10.8-7.3,10.8-34.9V133c0-17.6-4.3-27.1-7.3-31.4H79.6v97.8c0,27.6,11.1,34.9,11.1,34.9H0
		c0,0,10.8-7.3,10.8-34.9v-97.8H0v-3.8h10.8V72.6C11.1,8.7,55.8,0,101,0c38.2,0,76.4,18.1,74.7,59.6c-1.1,26.3-21.1,33.9-41.4,30.3
		c-16-2.7-31.4-17.9-19.2-49.3C128.3,7.3,116.4,3,103.1,3c-20.6,0-23.6,25.7-23.6,58v36.8h108.6c0,0-10.8,7.3-10.8,35.2v66.4
		C177.4,226.9,188.2,234.2,188.2,234.2z"/>
	<path d="M340.4,149.8c-41.2,4.6-34.7-45.2-45-25.5c-6,11.4-8.7,25.2-8.7,40.1v34.9c0,27.6,10.8,34.9,10.8,34.9h-90.4
		c0,0,10.8-7.3,10.8-34.9V133c0-27.9-10.8-35.2-10.8-35.2h72.3l7.3,44.1c4.9-21.1,13-43.3,34.4-49.3c16.5-4.9,34.4-0.5,41.2,15.7
		C370.5,127.3,359.6,147.3,340.4,149.8z"/>
	<path d="M527.5,195.5c-12.5,27.4-40.3,41.4-72.8,41.7c-42.8,0-81.2-23.8-81.2-71.5c0.3-39.3,23.6-71.2,80.7-71.2
		c58,0,71.8,32,72.3,71.2h-87.2c11.1,46.3,61.5,54.4,85.6,29.8L527.5,195.5z M438.4,162.2h31.1c3.5-28.7,0.8-65.8-16.8-65.8
		C437.9,96.4,429.8,123.2,438.4,162.2L438.4,162.2z"/>
	<path d="M798,97.8c-13.2,11.6-25.2,27.6-37.9,57.4c-12.7,30-32.2,79.1-32.2,79.1h-32.2c0,0-17.9-34.7-34.1-66.1
		c-12.2,29.2-27.3,66.1-27.3,66.1h-31.4c0,0-47.1-90.7-58.2-111.3c-11.4-21.1-17.3-25.2-17.3-25.2h89.1c0,0-5.7,8.9,1.1,25.2
		c7,16.2,32.8,66.1,32.8,66.1s2.2-3.5,9.5-23.5c0-0.3,0-0.3,0.3-0.5c-9.5-17.9-17.9-34.4-21.9-42c-11.1-21.4-17.3-25.2-17.3-25.2
		h89.1c0,0-5.7,8.9,1.4,25.2c6.8,16.2,31.4,69,31.4,69s3-6.5,10.6-26.5c11.7-31.4,6.8-59.6-14.1-67.7L798,97.8z"/>
	<path d="M963,166c-0.3,39.3-30.6,71.2-87.7,71.2c-57.4,0-87.7-32-88-71.2c0.3-39.5,30.6-71.5,88-71.5
		C932.4,94.5,962.7,126.5,963,166z M894.7,166c-0.6-29.5-1.4-69.3-19.5-69.3c-18.4,0-19.2,39.8-19.8,69.3c0.5,29.2,1.3,69,19.8,69
		C893.4,235,894.2,195.2,894.7,166z"/>
	<path d="M1109.7,149.8c-41.2,4.6-34.7-45.2-45-25.5c-6,11.4-8.7,25.2-8.7,40.1v34.9c0,27.6,10.8,34.9,10.8,34.9h-90.4
		c0,0,10.8-7.3,10.8-34.9V133c0-27.9-10.8-35.2-10.8-35.2h72.4l7.3,44.1c4.9-21.1,13-43.3,34.4-49.3c16.5-4.9,34.4-0.5,41.2,15.7
		C1139.8,127.3,1128.9,147.3,1109.7,149.8z"/>
	<path d="M1329.1,234.2h-87.2c0,0,6.5-7.9-6.2-34.9l-12.2-25.5l-1.1,1.4v24.1c0,27.6,10.8,34.9,10.8,34.9h-90.4
		c0,0,10.8-7.3,10.8-34.9V66.1c0-27.9-10.8-35.2-10.8-35.2h90.4c0,0-10.8,7.3-10.8,35.2v105.1l29.5-32.2
		c18.7-21.1,19.5-33.9,0.3-41.2h69.9c-21.7,5.1-46,13.8-58.2,30.6l39,70.9C1316.9,224.8,1329.1,234.2,1329.1,234.2z"/>
	<path d="M1456.6,211c-10.3,22.2-38.7,26.3-52.8,26.3c-13,0-25.7-4.3-44.4-6.2c-12.5-1.1-18.4,6.8-18.4,6.8v-55
		c0,0,24.6,51.2,58.8,51.2c9.5,0,12.2-15.2-12.5-32.2c-15.4-10.6-28.4-18.7-41.7-33c-13.3-14.1-12.7-40.4,0.8-55.5
		c9.8-11.1,26.8-18.7,48.5-18.7c9.8,0,17.6,0.8,36.3,5.4c12.2,3,15.4-4.9,15.4-4.9v53.9c0,0-17.6-51.7-46.9-51.7
		c-8.7,0-13.8,7-7.9,19c6.5,13.3,33.6,27.6,50.9,41.2C1460.9,171.4,1464.7,193.4,1456.6,211z"/>
</g>
</svg>
