<?xml version="1.0" encoding="utf-8"?>
<!-- Generator: Adobe Illustrator 22.0.1, SVG Export Plug-In . SVG Version: 6.00 Build 0)  -->
<svg version="1.1" id="Layer_1" xmlns="http://www.w3.org/2000/svg" xmlns:xlink="http://www.w3.org/1999/xlink" x="0px" y="0px"
	 viewBox="0 0 1967.3 840" style="enable-background:new 0 0 1967.3 840;" xml:space="preserve">
<style type="text/css">
	.st0{fill:#7F7F7F;}
</style>
<g>
	<path class="st0" d="M431.4,468.9h-90.7c0,0,10.8-7.3,10.8-34.9v-66.3c0-17.6-4.3-27.1-7.3-31.4h-21.4v97.8
		c0,27.6,11.1,34.9,11.1,34.9h-90.7c0,0,10.8-7.3,10.8-34.9v-97.8h-10.8v-3.8H254v-25.2c0.3-63.9,45-72.6,90.2-72.6
		c38.2,0,76.4,18.1,74.7,59.6c-1.1,26.3-21.1,33.8-41.4,30.3c-16-2.7-31.4-17.9-19.2-49.3c13.3-33.3,1.4-37.6-11.9-37.6
		c-20.6,0-23.6,25.7-23.6,58v36.8h108.6c0,0-10.8,7.3-10.8,35.2V434C420.6,461.5,431.4,468.9,431.4,468.9z"/>
	<path class="st0" d="M582.8,384.4c-41.2,4.6-34.7-45.2-45-25.5c-6,11.4-8.7,25.2-8.7,40.1c0,7.6,0,21.7,0,34.9
		c0,27.6,10.8,34.9,10.8,34.9h-90.4c0,0,10.8-7.3,10.8-34.9v-66.3c0-27.9-10.8-35.2-10.8-35.2h72.3l7.3,44.1
		c4.9-21.1,13-43.3,34.4-49.3c16.5-4.9,34.4-0.5,41.2,15.7C612.8,361.9,602,381.9,582.8,384.4z"/>
	<path class="st0" d="M769.1,430.1c-12.5,27.4-40.3,41.4-72.8,41.7c-42.8,0-81.2-23.8-81.2-71.5c0.3-39.3,23.6-71.2,80.7-71.2
		c58,0,71.8,32,72.3,71.2h-87.2c11.1,46.3,61.5,54.4,85.6,29.8L769.1,430.1L769.1,430.1z M680,396.8h31.1
		c3.5-28.7,0.8-65.8-16.8-65.8C679.5,331,671.3,357.8,680,396.8z"/>
	<path class="st0" d="M1038.8,332.4c-13.3,11.6-25.2,27.6-37.9,57.4c-12.7,30.1-32.2,79.1-32.2,79.1h-32.2c0,0-17.9-34.7-34.1-66.1
		C890.1,432,875,468.9,875,468.9h-31.4c0,0-47.1-90.7-58.2-111.3C774,336.4,768,332.4,768,332.4h89.1c0,0-5.7,8.9,1.1,25.2
		c7,16.2,32.8,66.1,32.8,66.1s2.2-3.5,9.5-23.6c0-0.3,0-0.3,0.3-0.5c-9.5-17.9-17.9-34.4-21.9-42c-11.1-21.4-17.3-25.2-17.3-25.2
		h89.1c0,0-5.7,8.9,1.4,25.2c6.8,16.2,31.4,69.1,31.4,69.1s3-6.5,10.6-26.5c11.6-31.4,6.8-59.6-14.1-67.7h58.8V332.4z"/>
	<path class="st0" d="M1202.9,400.6c-0.3,39.3-30.6,71.2-87.7,71.2c-57.4,0-87.7-32-88-71.2c0.3-39.5,30.6-71.5,88-71.5
		C1172.3,329.1,1202.6,361.1,1202.9,400.6z M1134.7,400.6c-0.5-29.5-1.4-69.3-19.5-69.3c-18.4,0-19.2,39.8-19.8,69.3
		c0.5,29.2,1.4,69.1,19.8,69.1C1133.3,469.7,1134.1,429.9,1134.7,400.6z"/>
	<path class="st0" d="M1348.9,384.4c-41.2,4.6-34.7-45.2-45-25.5c-6,11.4-8.7,25.2-8.7,40.1c0,7.6,0,21.7,0,34.9
		c0,27.6,10.8,34.9,10.8,34.9h-90.4c0,0,10.8-7.3,10.8-34.9v-66.3c0-27.9-10.8-35.2-10.8-35.2h72.3l7.3,44.1
		c4.9-21.1,13-43.3,34.4-49.3c16.5-4.9,34.4-0.5,41.2,15.7C1378.9,361.9,1368.1,381.9,1348.9,384.4z"/>
	<path class="st0" d="M1567.4,468.9h-87.2c0,0,6.5-7.9-6.2-34.9l-12.2-25.5l-1.1,1.4V434c0,27.6,10.8,34.9,10.8,34.9h-90.4
		c0,0,10.8-7.3,10.8-34.9V300.7c0-27.9-10.8-35.2-10.8-35.2h90.4c0,0-10.8,7.3-10.8,35.2v105.1l29.5-32.2
		c18.7-21.1,19.5-33.9,0.3-41.2h69.9c-21.7,5.1-46,13.8-58.2,30.6l39,70.9C1555.2,459.4,1567.4,468.9,1567.4,468.9z"/>
	<path class="st0" d="M1694.1,445.6c-10.3,22.2-38.7,26.3-52.8,26.3c-13,0-25.7-4.3-44.4-6.2c-12.5-1.1-18.4,6.8-18.4,6.8v-55
		c0,0,24.6,51.2,58.8,51.2c9.5,0,12.2-15.2-12.5-32.2c-15.4-10.6-28.4-18.7-41.7-33c-13.3-14.1-12.7-40.3,0.8-55.5
		c9.8-11.1,26.8-18.7,48.5-18.7c9.8,0,17.6,0.8,36.3,5.4c12.2,3,15.4-4.9,15.4-4.9v53.9c0,0-17.6-51.7-46.8-51.7
		c-8.7,0-13.8,7-7.9,19c6.5,13.3,33.6,27.6,50.9,41.2C1698.5,406,1702.2,428,1694.1,445.6z"/>
</g>
<g>
	<path class="st0" d="M1366.6,500.9v11.5h-22.1v76.3H1333v-76.3h-22v-11.5L1366.6,500.9L1366.6,500.9z"/>
	<path class="st0" d="M1425.1,512.9v25.5h29.2v11.3h-29.2v26.8h35.4v12.2h-47.7v-87.9h47.7V513L1425.1,512.9L1425.1,512.9z"/>
	<path class="st0" d="M1554.2,576.4c4,0,8-0.7,11.9-2.2s7.7-4,11.4-7.6l8.2,8.4c-4.9,4.7-10,8.2-15.3,10.4
		c-5.4,2.3-10.7,3.4-16.2,3.4c-6,0-11.7-1.1-16.9-3.4c-5.3-2.3-9.9-5.5-13.9-9.5s-7.1-8.8-9.4-14.2c-2.3-5.5-3.4-11.4-3.4-17.6
		c0-6,1.1-11.7,3.4-17s5.4-9.9,9.4-13.9c4-3.9,8.6-7,13.9-9.3s10.9-3.4,16.9-3.4c5.4,0,10.8,1.1,16.2,3.3c5.4,2.2,10.5,5.4,15.4,9.6
		l-8.2,8.2c-3.5-2.7-7.3-4.8-11.4-6.3s-8.1-2.3-12-2.3c-4.6,0-8.9,0.8-12.8,2.4c-3.9,1.6-7.3,3.9-10.2,6.7c-2.8,2.8-5.1,6.1-6.7,9.9
		c-1.6,3.8-2.4,7.8-2.4,12.2c0,4.7,0.8,9,2.4,12.9s3.9,7.3,6.7,10.2c2.8,2.9,6.2,5.1,10.2,6.8
		C1545.3,575.6,1549.6,576.4,1554.2,576.4z"/>
	<path class="st0" d="M1697,500.9v87.8h-12.3v-39h-36.6v39h-12v-87.8h12v37.3h36.6v-37.3L1697,500.9L1697,500.9z"/>
</g>
</svg>
