<?xml version="1.0" encoding="utf-8"?>
<!-- Generator: Adobe Illustrator 22.0.1, SVG Export Plug-In . SVG Version: 6.00 Build 0)  -->
<svg version="1.1" id="Layer_1" xmlns="http://www.w3.org/2000/svg" xmlns:xlink="http://www.w3.org/1999/xlink" x="0px" y="0px"
	 viewBox="0 0 738 860.6" style="enable-background:new 0 0 738 860.6;" xml:space="preserve">
<style type="text/css">
	.st0{fill:#FFFFFF;}
	.st1{font-family:'MADEBruno';}
	.st2{font-size:460.2883px;}
</style>
<g>
	<path d="M604.2,218.2c-33.6,86.7-180.4,53.9-150.7-46.1c14.1-46.1,83.6-75,34.4-86.7C439.4,72.9,416,144.8,416,248.6v107h120.3
		v10.9H416v281.9c0,79.7,31.2,100.7,31.2,100.7H186.4c0,0,31.2-21.1,31.2-100.7V366.6h-31.2v-10.9h31.2V283
		c0-185.1,127.3-209.3,235.1-209.3C555.8,73.7,637,130.7,604.2,218.2z"/>
</g>
<text transform="matrix(1 0 0 1 715.4647 -105.7064)" class="st0 st1 st2">F</text>
</svg>
