<?xml version="1.0" encoding="utf-8"?>
<!-- Generator: Adobe Illustrator 22.0.1, SVG Export Plug-In . SVG Version: 6.00 Build 0)  -->
<svg version="1.1" id="Layer_1" xmlns="http://www.w3.org/2000/svg" xmlns:xlink="http://www.w3.org/1999/xlink" x="0px" y="0px"
	 viewBox="0 0 141 57.4" style="enable-background:new 0 0 141 57.4;" xml:space="preserve">
<style type="text/css">
	.st0{enable-background:new    ;}
	.st1{fill:#FFFFFF;}
	.st2{fill:#FF3860;}
</style>
<g id="Group_99" transform="translate(-889 -4160)">
	<rect id="Rectangle_21" x="889" y="4160" width="141" height="57.4"/>
	<g class="st0">
		<path class="st1" d="M963.7,4198v-12.5l-5.3,12.5h-2.5l-5.3-12.5v12.5h-2.8v-17h3.8l5.5,13l5.4-13h3.9v17H963.7z"/>
		<path class="st1" d="M980.7,4194.7c-0.6,2-2.5,3.7-5.3,3.7c-3.2,0-6-2.3-6-6.3c0-3.7,2.7-6.1,5.7-6.1c3.6,0,5.7,2.4,5.7,6.1
			c0,0.5,0,0.8-0.1,0.9h-8.5c0.1,1.8,1.5,3,3.2,3c1.7,0,2.5-0.9,2.9-2L980.7,4194.7z M978,4190.9c0-1.4-1-2.6-2.9-2.6
			c-1.8,0-2.8,1.3-2.9,2.6H978z"/>
		<path class="st1" d="M986.3,4198h-2.8v-11.7h2.7v1.6c0.8-1.3,2.2-1.9,3.5-1.9c2.9,0,4.2,2.1,4.2,4.6v7.4h-2.8v-6.9
			c0-1.4-0.6-2.6-2.4-2.6c-1.6,0-2.4,1.2-2.4,2.8V4198z"/>
		<path class="st1" d="M1001.4,4198.3c-2.8,0-4.4-2.1-4.4-4.7v-7.4h2.8v6.9c0,1.4,0.7,2.7,2.4,2.7c1.6,0,2.4-1.1,2.4-2.6v-6.9h2.8
			v9.6c0,1,0.1,1.7,0.1,2.1h-2.7c0-0.3-0.1-0.8-0.1-1.3C1004.1,4197.8,1002.8,4198.3,1001.4,4198.3z"/>
	</g>
	<g id="Group_100" transform="translate(12 -1)">
		<rect id="Rectangle_100" x="898" y="4180" class="st2" width="23.7" height="4"/>
		<rect id="Rectangle_101" x="898" y="4188" class="st2" width="23.7" height="4"/>
		<rect id="Rectangle_102" x="898" y="4196" class="st2" width="23.7" height="4"/>
	</g>
</g>
</svg>
