<svg xmlns="http://www.w3.org/2000/svg" width="140.419" height="112.686" viewBox="0 0 140.419 112.686">
  <g id="_1-03" data-name="1-03" transform="translate(-16.908 -33.92)">
    <text id="young" transform="translate(61.966 62.391)" font-size="22" font-family="Playlist-Script, Playlist"><tspan x="0" y="0">young</tspan></text>
    <path id="XMLID_402_" d="M237.2,88.812a1.3,1.3,0,0,0,1.377-1.222A53.859,53.859,0,0,1,279.168,38.2c23.711-5.813,47.429,3.947,59.766,24.207a1.309,1.309,0,0,0,2.384-.378,1.272,1.272,0,0,0-.156-.985c-12.907-21.178-37.662-31.412-62.4-25.436V35.6a2.076,2.076,0,0,1-.23.059c-.081.022-.155.037-.237.052v.007a56.469,56.469,0,0,0-42.327,51.717,1.315,1.315,0,0,0,.326.948A1.373,1.373,0,0,0,237.2,88.812Z" transform="translate(-202.836 0)" fill="#231f20"/>
    <path id="XMLID_406_" d="M446.041,813.278a1.3,1.3,0,0,0-1.377,1.222c-1.311,23.681-17.609,43.49-41.253,49.562a53.844,53.844,0,0,1-59.092-24.377,1.309,1.309,0,0,0-2.384.378,1.272,1.272,0,0,0,.155.985,56.466,56.466,0,0,0,61.721,25.6v.007l.237-.067c.074-.022.156-.037.23-.052v-.007c24.637-6.42,41.624-27.125,43-51.88a1.315,1.315,0,0,0-.326-.948A1.416,1.416,0,0,0,446.041,813.278Z" transform="translate(-300.923 -721.644)" fill="#231f20"/>
    <path id="XMLID_407_" d="M628.692,898.46a1.319,1.319,0,0,0-.955.985,40.173,40.173,0,0,1-69.807,17.52,1.256,1.256,0,0,0-.889-.452,1.3,1.3,0,0,0-.948.318,1.308,1.308,0,0,0-.141,1.844,42.794,42.794,0,0,0,74.339-18.653,1.306,1.306,0,0,0-.992-1.555A1.206,1.206,0,0,0,628.692,898.46Z" transform="translate(-498.836 -800.488)" fill="#231f20"/>
    <text id="REACTIONS" transform="translate(22.524 115.139) rotate(-14.135)" font-size="23" font-family="AvenirNext-HeavyItalic, Avenir Next" font-weight="800" font-style="italic"><tspan x="0" y="0">REACTIONS</tspan></text>
  </g>
</svg>
