<svg xmlns="http://www.w3.org/2000/svg" viewBox="0 0 93 81.752">
  <defs>
    <style>
      .cls-1 {
        fill: #ff3860;
      }
    </style>
  </defs>
  <g id="tactics" transform="translate(0 -28)">
    <g id="Group_75" data-name="Group 75" transform="translate(0 28)">
      <path id="Path_192" data-name="Path 192" d="M93,43.969a4.726,4.726,0,0,0-4.72-4.72H48.006V37.193a4.72,4.72,0,1,0-3.013,0v2.056H4.72a4.72,4.72,0,0,0-1.506,9.193v56.59a4.726,4.726,0,0,0,4.72,4.72H85.066a4.726,4.726,0,0,0,4.72-4.72V48.441A4.728,4.728,0,0,0,93,43.969ZM46.5,31.013a1.707,1.707,0,1,1-1.707,1.707A1.709,1.709,0,0,1,46.5,31.013Zm38.566,75.726H7.934a1.709,1.709,0,0,1-1.707-1.707V48.689H86.773v56.342A1.709,1.709,0,0,1,85.066,106.739ZM88.28,45.676H4.72a1.707,1.707,0,1,1,0-3.415H88.28a1.707,1.707,0,0,1,0,3.415Z" transform="translate(0 -28)"/>
      <path id="Path_193" data-name="Path 193" class="cls-1" d="M137,206.71l29.567-29.567v4.4a1.506,1.506,0,0,0,3.013,0v-8.035A1.507,1.507,0,0,0,168.072,172h-8.035a1.506,1.506,0,0,0,0,3.013h4.4L134.869,204.58c-.017.017-.032.036-.048.053a4.725,4.725,0,1,0,2.125,2.125C136.964,206.742,136.982,206.727,137,206.71Zm-4.279,3.856a1.707,1.707,0,1,1,1.707-1.707A1.709,1.709,0,0,1,132.72,210.566Z" transform="translate(-102.289 -143.076)"/>
      <path id="Path_194" data-name="Path 194" d="M128.441,181a1.506,1.506,0,0,0,2.13,0l2.149-2.149L134.869,181a1.506,1.506,0,1,0,2.13-2.13l-2.149-2.149L137,174.572a1.506,1.506,0,1,0-2.13-2.13l-2.149,2.149-2.149-2.149a1.506,1.506,0,0,0-2.13,2.13l2.149,2.149-2.149,2.149A1.506,1.506,0,0,0,128.441,181Z" transform="translate(-102.29 -143.076)"/>
      <path id="Path_195" data-name="Path 195" d="M208.441,181a1.506,1.506,0,0,0,2.13,0l2.149-2.149L214.869,181a1.506,1.506,0,1,0,2.13-2.13l-2.149-2.149L217,174.572a1.506,1.506,0,1,0-2.13-2.13l-2.149,2.149-2.149-2.149a1.506,1.506,0,0,0-2.13,2.13l2.149,2.149-2.149,2.149A1.506,1.506,0,0,0,208.441,181Z" transform="translate(-166.22 -143.076)"/>
      <path id="Path_196" data-name="Path 196" d="M128.441,261a1.506,1.506,0,0,0,2.13,0l2.149-2.149L134.869,261a1.506,1.506,0,1,0,2.13-2.13l-2.149-2.149L137,254.572a1.506,1.506,0,0,0-2.13-2.13l-2.149,2.149-2.149-2.149a1.506,1.506,0,0,0-2.13,2.13l2.149,2.149-2.149,2.149A1.506,1.506,0,0,0,128.441,261Z" transform="translate(-102.29 -207.007)"/>
      <path id="Path_197" data-name="Path 197" d="M297,332.441a1.506,1.506,0,0,0-2.13,0l-2.149,2.149-2.149-2.149a1.506,1.506,0,0,0-2.13,2.13l2.149,2.149-2.149,2.149a1.506,1.506,0,1,0,2.13,2.13l2.149-2.149L294.869,341a1.506,1.506,0,0,0,2.13-2.13l-2.149-2.149L297,334.572A1.506,1.506,0,0,0,297,332.441Z" transform="translate(-230.151 -270.938)"/>
      <path id="Path_198" data-name="Path 198" d="M217,332.441a1.506,1.506,0,0,0-2.13,0l-2.149,2.149-2.149-2.149a1.506,1.506,0,0,0-2.13,2.13l2.149,2.149-2.149,2.149a1.506,1.506,0,1,0,2.13,2.13l2.149-2.149L214.869,341a1.506,1.506,0,1,0,2.13-2.13l-2.149-2.149L217,334.572A1.506,1.506,0,0,0,217,332.441Z" transform="translate(-166.22 -270.938)"/>
      <path id="Path_199" data-name="Path 199" d="M297,252.442a1.506,1.506,0,0,0-2.13,0l-2.149,2.149-2.149-2.149a1.506,1.506,0,0,0-2.13,2.13l2.149,2.149-2.149,2.149a1.506,1.506,0,1,0,2.13,2.13l2.149-2.149L294.869,261a1.506,1.506,0,0,0,2.13-2.13l-2.149-2.149L297,254.572A1.506,1.506,0,0,0,297,252.442Z" transform="translate(-230.151 -207.007)"/>
    </g>
  </g>
</svg>
