<svg xmlns="http://www.w3.org/2000/svg" viewBox="0 0 102 102">
  <defs>
    <style>
      .cls-1, .cls-2 {
        fill: #ff3860;
      }

      .cls-1 {
        opacity: 0.133;
      }
    </style>
  </defs>
  <g id="Group_96" data-name="Group 96" transform="translate(-1315 -2747)">
    <rect id="Rectangle_57" data-name="Rectangle 57" class="cls-1" width="102" height="102" transform="translate(1315 2747)"/>
    <path id="educational-programs" class="cls-2" d="M45.326,80.471A75.2,75.2,0,0,1,30.445,79.01a1.686,1.686,0,0,1-1.352-1.653V60.388l-8.749-2.613a1.686,1.686,0,0,1,0-3.231l24.5-7.317a1.686,1.686,0,0,1,.965,0l24.462,7.306a1.687,1.687,0,0,1,1.241,1.627c0,.015,0,.031,0,.046v8.742l1.038,2.5a1.686,1.686,0,0,1-2.724,1.864A1.686,1.686,0,0,1,67.1,67.443l1.038-2.5V58.423l-22.33,6.67a1.687,1.687,0,0,1-.965,0L32.466,61.4V75.964a73.393,73.393,0,0,0,25.722,0V66.427a1.686,1.686,0,0,1,3.372,0v10.93a1.686,1.686,0,0,1-1.352,1.653A75.215,75.215,0,0,1,45.326,80.471ZM31.3,57.529l14.022,4.188,18.608-5.558L45.326,50.6,26.719,56.159l4.5,1.345ZM23.749,71.074a1.687,1.687,0,0,1-.5-.077L1.183,64.1A1.686,1.686,0,0,1,0,62.495V15.157a1.686,1.686,0,0,1,2.189-1.609l28.827,9.006L59.37,13.7a1.686,1.686,0,0,1,2.189,1.609V45.412a1.686,1.686,0,0,1-3.372,0V17.6L32.465,25.635V44.561a1.686,1.686,0,0,1-3.372,0V25.486L3.372,17.451v43.8l20.879,6.523a1.686,1.686,0,0,1-.5,3.3ZM16.233,48.718a1.686,1.686,0,0,1-.5-.077L11.113,47.2a1.686,1.686,0,1,1,1.006-3.219l4.617,1.443a1.686,1.686,0,0,1-.5,3.3Zm24.476-6.944a1.686,1.686,0,0,1-.5-3.3l9.234-2.885a1.686,1.686,0,0,1,1.006,3.219L41.212,41.7A1.676,1.676,0,0,1,40.709,41.774Zm-19.858,0a1.688,1.688,0,0,1-.5-.077l-9.234-2.885a1.686,1.686,0,0,1,1.006-3.219l9.234,2.885a1.686,1.686,0,0,1-.5,3.3ZM40.709,33.9a1.686,1.686,0,0,1-.5-3.3l9.234-2.885a1.686,1.686,0,1,1,1.006,3.219l-9.234,2.885A1.676,1.676,0,0,1,40.709,33.9Zm-19.859,0a1.686,1.686,0,0,1-.5-.077l-9.234-2.885a1.686,1.686,0,1,1,1.006-3.219l9.234,2.885a1.686,1.686,0,0,1-.5,3.3Z" transform="translate(1330 2751.529)"/>
  </g>
</svg>
