<svg id="yanga" xmlns="http://www.w3.org/2000/svg" width="73.412" height="27.53" viewBox="0 0 73.412 27.53">
  <path id="Path_188" data-name="Path 188" d="M40.121,89.983V78.359L36.029,63.982H34.5V63.6h6.118v.382H39.088l3.9,13.765,4.129-13.765H45.627V63.6h3.747v.382a2.547,2.547,0,0,0-1.549.421,2.012,2.012,0,0,0-.746.994l-3.9,13V89.983h1.529v.382H38.591v-.382Z" transform="translate(-34.5 -63.218)" fill="#7f7f7f"/>
  <path id="Path_189" data-name="Path 189" d="M166.1,86.365a2.362,2.362,0,0,0,1.453-.4,1.829,1.829,0,0,0,.688-1.051L173.594,59.6h.612l5.888,26.765h1.529v.382H175.43v-.382h1.529l-1.606-7.456h-5.468l-1.568,7.456h1.453v.382H166.1Zm3.862-7.838h5.315l-2.715-12.159Z" transform="translate(-153.52 -59.6)" fill="#7f7f7f"/>
  <path id="Path_190" data-name="Path 190" d="M342.591,63.6,349.7,82.641V63.982h-1.529V63.6h3.632v.382a2.088,2.088,0,0,0-1.319.325,1.014,1.014,0,0,0-.4.822V90.365h-.612L340.6,66.544V89.983h1.529v.382H338.5v-.382a2.088,2.088,0,0,0,1.319-.325,1.014,1.014,0,0,0,.4-.822V65.129a1.014,1.014,0,0,0-.4-.822,2.088,2.088,0,0,0-1.319-.325V63.6Z" transform="translate(-309.441 -63.218)" fill="#7f7f7f"/>
  <path id="Path_191" data-name="Path 191" d="M517.171,84.759a3.81,3.81,0,0,0-1.74.363,9.254,9.254,0,0,0-1.319.822,13.062,13.062,0,0,1-1.224.822,2.825,2.825,0,0,1-1.453.363,5.465,5.465,0,0,1-4.053-1.8,6.8,6.8,0,0,1-1.224-1.95,6.127,6.127,0,0,1-.459-2.371V65.718a6.127,6.127,0,0,1,.459-2.371,6.8,6.8,0,0,1,1.224-1.95,5.465,5.465,0,0,1,4.053-1.8,4.386,4.386,0,0,1,2.084.459,4.629,4.629,0,0,1,1.51,1.3.891.891,0,0,0,.707-.344,1.583,1.583,0,0,0,.287-1.032h.382v5.735h-.382a7.275,7.275,0,0,0-.344-2.275,6.231,6.231,0,0,0-.918-1.816,4.556,4.556,0,0,0-1.338-1.2,3.127,3.127,0,0,0-1.606-.44,1.95,1.95,0,0,0-1.281.459,3.923,3.923,0,0,0-.956,1.224,6.859,6.859,0,0,0-.612,1.816,11.112,11.112,0,0,0-.21,2.237V81.012a11.112,11.112,0,0,0,.21,2.237,8.128,8.128,0,0,0,.574,1.816,4.175,4.175,0,0,0,.841,1.224,1.434,1.434,0,0,0,2.1,0,4.177,4.177,0,0,0,.841-1.224,8.132,8.132,0,0,0,.574-1.816,11.112,11.112,0,0,0,.21-2.237V73.785h-1.529V73.4H518.7v.382h-1.529Z" transform="translate(-460.658 -59.6)" fill="#7f7f7f"/>
  <path id="Path_192" data-name="Path 192" d="M640.1,86.365a2.363,2.363,0,0,0,1.453-.4,1.829,1.829,0,0,0,.688-1.051L647.594,59.6h.612l5.888,26.765h1.529v.382H649.43v-.382h1.529l-1.606-7.456h-5.468l-1.568,7.456h1.453v.382H640.1Zm3.862-7.838h5.315l-2.715-12.159Z" transform="translate(-582.211 -59.6)" fill="#7f7f7f"/>
</svg>
