<svg xmlns="http://www.w3.org/2000/svg" width="694" height="764.952" viewBox="0 0 694 764.952">
  <g id="Group_65" data-name="Group 65" transform="translate(-71 -316)">
    <rect id="Rectangle_156" data-name="Rectangle 156" width="692.891" height="764.952" transform="translate(72.109 316)" fill="#f0f0f0"/>
    <rect id="Rectangle_157" data-name="Rectangle 157" width="692.891" height="290.46" transform="translate(72.109 316)" fill="#c3c3c3"/>
    <rect id="Rectangle_158" data-name="Rectangle 158" width="197.335" height="7.76" transform="translate(467.888 406.907)" fill="#fff"/>
    <rect id="Rectangle_159" data-name="Rectangle 159" width="146.339" height="7.76" transform="translate(467.888 439.54)" fill="#fff"/>
    <rect id="Rectangle_160" data-name="Rectangle 160" width="108.645" height="32.15" transform="translate(467.888 487.837)" fill="#fff"/>
    <path id="Path_69" data-name="Path 69" d="M123.475,137.386l41.337-53.147L247.224,177.9H0L80.722,46.279Z" transform="translate(154.147 342.091)" fill="#fff"/>
    <rect id="Rectangle_161" data-name="Rectangle 161" width="197.335" height="7.76" transform="translate(467.888 423.537)" fill="#fff"/>
    <rect id="Rectangle_162" data-name="Rectangle 162" width="222.834" height="164.077" transform="translate(154.147 682.955)" fill="#fff"/>
    <rect id="Rectangle_163" data-name="Rectangle 163" width="289.351" height="5.543" transform="translate(432.412 715.105)" fill="#cecece"/>
    <rect id="Rectangle_164" data-name="Rectangle 164" width="289.351" height="5.543" transform="translate(432.412 728.409)" fill="#cecece"/>
    <rect id="Rectangle_165" data-name="Rectangle 165" width="289.351" height="5.543" transform="translate(432.412 741.713)" fill="#cecece"/>
    <rect id="Rectangle_166" data-name="Rectangle 166" width="289.351" height="5.543" transform="translate(432.412 755.016)" fill="#cecece"/>
    <rect id="Rectangle_167" data-name="Rectangle 167" width="203.987" height="5.543" transform="translate(432.412 768.32)" fill="#cecece"/>
    <rect id="Rectangle_168" data-name="Rectangle 168" width="203.987" height="5.543" transform="translate(432.412 781.623)" fill="#cecece"/>
    <rect id="Rectangle_169" data-name="Rectangle 169" width="108.645" height="32.15" transform="translate(432.412 796.035)" fill="#cecece"/>
    <rect id="Rectangle_170" data-name="Rectangle 170" width="694" height="110.863" transform="translate(71 970.09)" fill="#c3c3c3"/>
    <rect id="Rectangle_171" data-name="Rectangle 171" width="356.978" height="7.76" transform="translate(222.882 1017.76)" fill="#fff"/>
    <rect id="Rectangle_172" data-name="Rectangle 172" width="288.243" height="7.76" transform="translate(257.249 1034.39)" fill="#fff"/>
  </g>
</svg>
