<svg xmlns="http://www.w3.org/2000/svg" xmlns:xlink="http://www.w3.org/1999/xlink" width="657" height="950" viewBox="0 0 657 950">
  <defs>
    <clipPath id="clip-path">
      <rect width="9" height="372" fill="none"/>
    </clipPath>
  </defs>
  <g id="Group_78" data-name="Group 78" transform="translate(-55 -2392)">
    <rect id="Rectangle_35" data-name="Rectangle 35" width="159" height="159" transform="matrix(0.788, 0.616, -0.616, 0.788, 359.89, 2392)"/>
    <g id="Ellipse_4" data-name="Ellipse 4" transform="translate(415 2445)" fill="none" stroke="#f84525" stroke-width="2" stroke-dasharray="4">
      <circle cx="58.5" cy="58.5" r="58.5" stroke="none"/>
      <circle cx="58.5" cy="58.5" r="57.5" fill="none"/>
    </g>
    <g id="Path_164" data-name="Path 164" transform="translate(214 2821)" fill="none" stroke-dasharray="6">
      <path d="M230.243,0h0L470,470H0Z" stroke="none"/>
      <path d="M 230.2431793212891 0 L 230.3076782226562 0.12646484375 C 230.3078765869141 0.1268310546875 230.3081207275391 0.1273193359375 230.3083190917969 0.127685546875 L 230.3095855712891 0.130157470703125 C 230.3102264404297 0.131439208984375 230.3108215332031 0.132598876953125 230.3114776611328 0.133880615234375 L 230.3126373291016 0.13616943359375 C 230.3136444091797 0.13812255859375 230.3146362304688 0.14007568359375 230.3156585693359 0.14208984375 L 230.3327789306641 0.175628662109375 C 230.3353881835938 0.180755615234375 230.3379669189453 0.185821533203125 230.3406829833984 0.191131591796875 L 230.3453674316406 0.2003173828125 C 230.3460845947266 0.20172119140625 230.3468780517578 0.20330810546875 230.3476104736328 0.2047119140625 L 230.3508605957031 0.21112060546875 C 230.3549041748047 0.219024658203125 230.3590850830078 0.22723388671875 230.3633270263672 0.23553466796875 L 230.3669281005859 0.24261474609375 C 230.3677215576172 0.244140625 230.3685607910156 0.24578857421875 230.3693542480469 0.247344970703125 L 230.3733215332031 0.255126953125 C 230.3741149902344 0.256683349609375 230.3749237060547 0.258270263671875 230.375732421875 0.259857177734375 L 230.3821105957031 0.2723388671875 C 230.3821105957031 0.2723388671875 230.3821411132812 0.272430419921875 230.3821411132812 0.272430419921875 L 230.3850555419922 0.27813720703125 C 230.3858032226562 0.27960205078125 230.3866119384766 0.281158447265625 230.3873748779297 0.28265380859375 L 230.3881378173828 0.2841796875 C 230.3916625976562 0.29107666015625 230.3953552246094 0.298309326171875 230.3989868164062 0.305450439453125 L 230.4001159667969 0.30767822265625 C 230.4010314941406 0.3094482421875 230.4019927978516 0.311309814453125 230.4029083251953 0.313140869140625 L 230.4047088623047 0.316650390625 C 230.4051666259766 0.31756591796875 230.4055633544922 0.318328857421875 230.4060211181641 0.319244384765625 L 230.4141845703125 0.335235595703125 C 230.425537109375 0.35748291015625 230.4372711181641 0.3804931640625 230.4496002197266 0.404632568359375 L 230.4512939453125 0.407989501953125 C 231.0885162353516 1.657135009765625 232.9696502685547 5.344757080078125 232.9696502685547 5.344757080078125 L 232.0788879394531 5.799163818359375 L 229.6932525634766 1.12255859375 L 230.2431793212891 0 Z M 235.6961212158203 10.68951416015625 C 235.6961212158203 10.68951416015625 236.334716796875 11.94137573242188 236.9937744140625 13.23330688476562 L 236.9982757568359 13.24215698242188 C 237.0016021728516 13.2486572265625 237.0047607421875 13.25485229492188 237.0080871582031 13.26138305664062 L 237.0139007568359 13.27276611328125 C 237.0151519775391 13.27523803710938 237.0164184570312 13.2777099609375 237.0176544189453 13.2801513671875 L 238.4225769042969 16.03424072265625 L 237.5317687988281 16.4886474609375 L 234.8052978515625 11.14395141601562 L 235.6961212158203 10.68951416015625 Z M 241.1490478515625 21.37899780273438 L 243.8755340576172 26.7237548828125 L 242.9847106933594 27.17816162109375 L 240.2582397460938 21.83340454101562 L 241.1490631103516 21.37899780273438 Z M 246.6020050048828 32.06854248046875 C 246.6020050048828 32.06854248046875 246.7720336914062 32.40182495117188 247.0271148681641 32.90188598632812 L 247.0289764404297 32.90554809570312 C 247.0365905761719 32.92047119140625 247.0443572998047 32.9356689453125 247.0521240234375 32.95089721679688 L 247.0523681640625 32.95138549804688 C 247.0563201904297 32.95913696289062 247.0603332519531 32.96701049804688 247.0643157958984 32.97482299804688 L 247.0647583007812 32.97567749023438 C 247.0665588378906 32.97921752929688 247.0683288574219 32.982666015625 247.0701293945312 32.9862060546875 L 247.0800628662109 33.00567626953125 C 247.0868988037109 33.01907348632812 247.0936584472656 33.0323486328125 247.1006011962891 33.04592895507812 L 247.1040191650391 33.05264282226562 C 247.10693359375 33.058349609375 247.1099548339844 33.06430053710938 247.1128845214844 33.07003784179688 L 249.3284606933594 37.41323852539062 L 248.4376525878906 37.86764526367188 L 245.711181640625 32.52294921875 L 246.6020050048828 32.06854248046875 Z M 252.054931640625 42.75799560546875 L 254.7814025878906 48.102783203125 L 253.8905944824219 48.55718994140625 L 251.1641235351562 43.21240234375 L 252.0549468994141 42.75799560546875 Z M 257.5078735351562 53.44754028320312 L 260.2343139648438 58.792236328125 L 259.3435363769531 59.24664306640625 L 256.6170654296875 53.90194702148438 L 257.5078735351562 53.44754028320312 Z M 262.9608154296875 64.13702392578125 L 265.6872863769531 69.48178100585938 L 264.7964477539062 69.93618774414062 L 262.0700073242188 64.59140014648438 L 262.9608154296875 64.13699340820312 Z M 268.4137573242188 74.8265380859375 L 271.1402282714844 80.17129516601562 L 270.2493896484375 80.62570190429688 L 267.52294921875 75.28094482421875 L 268.4137573242188 74.8265380859375 Z M 273.86669921875 85.51602172851562 L 276.5931396484375 90.86077880859375 L 275.7023315429688 91.315185546875 L 272.9758911132812 85.97039794921875 L 273.86669921875 85.5159912109375 Z M 279.3196411132812 96.20553588867188 L 282.0461120605469 101.55029296875 L 281.1552734375 102.0046997070312 L 278.4288330078125 96.65994262695312 L 279.3196411132812 96.20553588867188 Z M 284.7725524902344 106.89501953125 L 287.4990234375 112.2397766113281 L 286.6082153320312 112.6941833496094 L 283.8817749023438 107.3494262695312 L 284.7725524902344 106.89501953125 Z M 290.2255249023438 117.5845336914062 L 291.3294982910156 119.7487182617188 C 291.3298950195312 119.74951171875 291.3304748535156 119.7506103515625 291.3308715820312 119.7514038085938 L 291.3374633789062 119.7643432617188 C 292.0915832519531 121.24267578125 292.9519348144531 122.9292907714844 292.9519348144531 122.9292907714844 L 292.0611572265625 123.3836975097656 L 289.334716796875 118.0389404296875 L 290.2255249023438 117.5845336914062 Z M 295.6784057617188 128.2739868164062 C 295.6784057617188 128.2739868164062 298.4048767089844 133.6187744140625 298.4048767089844 133.6187744140625 L 297.5140991210938 134.0731811523438 L 294.7876586914062 128.7284240722656 L 295.6784057617188 128.2739868164062 Z M 301.13134765625 138.9635314941406 C 301.13134765625 138.9635314941406 303.8578186035156 144.3082885742188 303.8578186035156 144.3082885742188 L 302.967041015625 144.7626953125 L 300.2406005859375 139.4179382324219 L 301.13134765625 138.9635314941406 Z M 306.5842895507812 149.6530456542969 C 306.5842895507812 149.6530456542969 309.3107604980469 154.9977722167969 309.3107604980469 154.9977722167969 L 308.4199829101562 155.4521789550781 L 305.6935424804688 150.1074829101562 L 306.5842895507812 149.6530456542969 Z M 312.0372314453125 160.342529296875 C 312.0372314453125 160.342529296875 314.7637023925781 165.6872863769531 314.7637023925781 165.6872863769531 L 313.8729248046875 166.1416931152344 L 311.146484375 160.7969360351562 L 312.0372314453125 160.342529296875 Z M 317.4901733398438 171.0320739746094 C 317.4901733398438 171.0320739746094 320.2166442871094 176.3767700195312 320.2166442871094 176.3767700195312 L 319.3258666992188 176.8311767578125 L 316.5994262695312 171.4864807128906 L 317.4901733398438 171.0320739746094 Z M 322.943115234375 181.7215270996094 C 322.943115234375 181.7215270996094 325.6695861816406 187.0662841796875 325.6695861816406 187.0662841796875 L 324.77880859375 187.5206909179688 L 322.0523681640625 182.1759338378906 L 322.943115234375 181.7215270996094 Z M 328.3960571289062 192.4110717773438 C 328.3960571289062 192.4110717773438 329.9270324707031 195.4122314453125 330.6945190429688 196.9167785644531 L 330.6988525390625 196.9252014160156 C 330.7057495117188 196.9387512207031 330.7125854492188 196.9521789550781 330.7193908691406 196.9654846191406 L 330.7211303710938 196.9689025878906 C 330.72802734375 196.982421875 330.7348022460938 196.9957275390625 330.7415771484375 197.0089721679688 L 330.7449035644531 197.0155029296875 C 330.747802734375 197.0212097167969 330.750732421875 197.0269470214844 330.753662109375 197.0326232910156 L 330.7564697265625 197.0381774902344 C 330.7575988769531 197.0403747558594 330.7587280273438 197.0426025390625 330.7598266601562 197.0447998046875 L 330.7624206542969 197.0498657226562 C 330.7627563476562 197.050537109375 330.7630615234375 197.0511169433594 330.763427734375 197.0518188476562 L 330.7688598632812 197.0624694824219 C 330.7688598632812 197.0624694824219 330.7689514160156 197.0626525878906 330.7689514160156 197.0626525878906 L 330.779296875 197.0829162597656 C 330.77978515625 197.0839233398438 330.7803955078125 197.0851135253906 330.7809448242188 197.0861206054688 L 331.1225280761719 197.7557678222656 L 330.2317504882812 198.2101745605469 L 327.5053100585938 192.865478515625 L 328.3960571289062 192.4110717773438 Z M 333.8489990234375 203.1005249023438 C 333.8489990234375 203.1005249023438 336.5754699707031 208.4452819824219 336.5754699707031 208.4452819824219 L 335.6846923828125 208.8997192382812 L 332.958251953125 203.554931640625 L 333.8489990234375 203.1005249023438 Z M 339.3019409179688 213.7900695800781 C 339.3019409179688 213.7900695800781 342.0284118652344 219.1348266601562 342.0284118652344 219.1348266601562 L 341.1376342773438 219.5892333984375 L 338.4111938476562 214.2444763183594 L 339.3019409179688 213.7900695800781 Z M 344.7548828125 224.4795379638672 L 346.9714965820312 228.8248443603516 C 346.9717102050781 228.8252410888672 346.9719848632812 228.8257598876953 346.97216796875 228.8261413574219 L 347.241455078125 229.3540191650391 C 347.2417602539062 229.3546142578125 347.2420654296875 229.355224609375 347.2423706054688 229.3558044433594 L 347.245849609375 229.3625946044922 C 347.2462158203125 229.3633728027344 347.24658203125 229.3640747070312 347.2469787597656 229.3648529052734 L 347.2506713867188 229.3720550537109 C 347.2529602050781 229.3765563964844 347.2552185058594 229.3809814453125 347.2574768066406 229.3854217529297 L 347.2591552734375 229.3887023925781 C 347.261474609375 229.3932342529297 347.2637329101562 229.3976745605469 347.2659912109375 229.4021453857422 L 347.2689819335938 229.4080200195312 C 347.2741088867188 229.4180145263672 347.2791442871094 229.4279022216797 347.2840881347656 229.4375915527344 L 347.2865600585938 229.4424133300781 C 347.2890014648438 229.4472351074219 347.2913818359375 229.4518890380859 347.2937927246094 229.4566192626953 L 347.2940979003906 229.4571990966797 C 347.2959594726562 229.4608917236328 347.2978210449219 229.4645233154297 347.2996826171875 229.4681549072266 L 347.304443359375 229.4774780273438 C 347.3092956542969 229.4869842529297 347.3140563964844 229.496337890625 347.3187255859375 229.5054931640625 L 347.3192138671875 229.5064697265625 C 347.3217163085938 229.5113372802734 347.3241577148438 229.5161285400391 347.3265686035156 229.5208892822266 L 347.3275451660156 229.5227813720703 C 347.3294372558594 229.5264739990234 347.3313598632812 229.5302429199219 347.3331909179688 229.5338897705078 L 347.3357849121094 229.5389556884766 C 347.3402404785156 229.5476837158203 347.3446350097656 229.5563049316406 347.3489074707031 229.5646667480469 L 347.3508911132812 229.5685882568359 C 347.3528137207031 229.5723266601562 347.3546447753906 229.5758819580078 347.3565063476562 229.5795593261719 L 347.3578186035156 229.5821228027344 C 347.358642578125 229.583740234375 347.3594360351562 229.5853271484375 347.3602600097656 229.5869140625 L 347.3692932128906 229.6046142578125 C 347.3693542480469 229.6047668457031 347.369384765625 229.6047973632812 347.3694458007812 229.6049346923828 L 347.3721618652344 229.6102447509766 C 347.3736572265625 229.6131439208984 347.3750915527344 229.6159973144531 347.3765563964844 229.6188507080078 L 347.3786010742188 229.6229095458984 C 347.3823852539062 229.6303100585938 347.3860778808594 229.6375427246094 347.3896789550781 229.6445770263672 L 347.3914184570312 229.6480102539062 C 347.3991088867188 229.6630706787109 347.4063110351562 229.6772003173828 347.4130859375 229.6904602050781 L 347.4148559570312 229.6939544677734 C 347.4216613769531 229.7072906494141 347.427978515625 229.7196350097656 347.4337768554688 229.7310333251953 L 347.434326171875 229.7320709228516 C 347.4400024414062 229.7432708740234 347.4452514648438 229.7535247802734 347.449951171875 229.7627563476562 L 347.451416015625 229.7656402587891 C 347.4609680175781 229.7843475341797 347.4683532714844 229.7987976074219 347.473388671875 229.8086700439453 L 347.4737548828125 229.8094177246094 C 347.4761962890625 229.8141632080078 347.4780578613281 229.8178253173828 347.4793090820312 229.8203125 L 347.4794311523438 229.820556640625 C 347.4800415039062 229.8217163085938 347.4804992675781 229.8226165771484 347.4808044433594 229.8232421875 L 347.4808959960938 229.8233947753906 C 347.4810485839844 229.8236846923828 347.4811401367188 229.8238983154297 347.4812316894531 229.8240356445312 L 347.4812316894531 229.8240661621094 C 347.4812622070312 229.8241424560547 347.4812927246094 229.8241882324219 347.4813232421875 229.82421875 L 347.4813537597656 229.8242950439453 L 346.590576171875 230.2787017822266 L 343.8641357421875 224.9339447021484 L 344.7548828125 224.4795227050781 Z M 350.2078247070312 235.1690521240234 C 350.2078247070312 235.1690521240234 352.9342956542969 240.5138244628906 352.9342956542969 240.5138244628906 L 352.0435180664062 240.9682312011719 L 349.3170776367188 235.6234741210938 L 350.2078247070312 235.1690521240234 Z M 355.6607666015625 245.8585357666016 L 358.3872375488281 251.2032928466797 L 357.4964599609375 251.6576995849609 L 354.7699890136719 246.3129425048828 L 355.6607666015625 245.8585357666016 Z M 361.1137084960938 256.5480651855469 L 362.078125 258.4386596679688 C 362.0784606933594 258.4392700195312 362.0786743164062 258.4397277832031 362.0790100097656 258.4403686523438 L 362.0888977050781 258.459716796875 C 362.08935546875 258.460693359375 362.0899658203125 258.4617919921875 362.0904235839844 258.4627685546875 L 362.1158752441406 258.5126342773438 C 362.1179809570312 258.5167236328125 362.1199645996094 258.5206298828125 362.1220703125 258.5247497558594 L 362.1384887695312 258.5569458007812 C 362.1395263671875 258.5590209960938 362.1404113769531 258.5607299804688 362.1414794921875 258.5628051757812 L 362.1468505859375 258.5733642578125 C 362.1478881835938 258.575439453125 362.1489868164062 258.5775451660156 362.1500244140625 258.57958984375 L 362.1544189453125 258.5881958007812 C 362.1554870605469 258.5902709960938 362.1566467285156 258.5925903320312 362.15771484375 258.5946350097656 L 362.1610412597656 258.6011962890625 C 362.1733093261719 258.6252136230469 362.185546875 258.6492309570312 362.1978759765625 258.6734008789062 L 362.2041015625 258.6855773925781 C 362.20947265625 258.6961669921875 362.21484375 258.7066345214844 362.2202453613281 258.7172241210938 L 362.2240905761719 258.7247924804688 C 362.2572021484375 258.7896728515625 362.2904663085938 258.8548889160156 362.3238830566406 258.92041015625 L 362.3263854980469 258.92529296875 C 362.3450927734375 258.9619750976562 362.3639221191406 258.9989013671875 362.3826904296875 259.0357055664062 L 362.3859558105469 259.0421142578125 C 363.0965576171875 260.43505859375 363.8401794433594 261.892822265625 363.8401794433594 261.892822265625 L 362.9493408203125 262.3472290039062 L 360.222900390625 257.0024719238281 L 361.1137084960938 256.5480651855469 Z M 366.566650390625 267.2376098632812 C 366.566650390625 267.2376098632812 367.0195007324219 268.1253051757812 367.5560607910156 269.1771240234375 L 367.5594787597656 269.183837890625 C 367.56494140625 269.194580078125 367.5704345703125 269.2052917480469 367.5758972167969 269.2160339355469 L 367.5883178710938 269.2403564453125 C 367.589599609375 269.2428588867188 367.5907592773438 269.2451171875 367.592041015625 269.2476806640625 L 369.2930908203125 272.5823059082031 L 368.4022827148438 273.0367126464844 L 365.6758422851562 267.6920166015625 L 366.566650390625 267.2376098632812 Z M 372.0195922851562 277.9270629882812 L 374.7460632324219 283.2718200683594 L 373.855224609375 283.7262573242188 L 371.1287536621094 278.3814697265625 L 372.0195922851562 277.9270629882812 Z M 377.4725341796875 288.6165771484375 C 377.4725341796875 288.6165771484375 377.5258178710938 288.7210083007812 377.617431640625 288.9006652832031 L 377.6197814941406 288.9052429199219 C 377.6232604980469 288.9120483398438 377.6268920898438 288.9191589355469 377.6304626464844 288.9261474609375 L 377.6313781738281 288.927978515625 C 377.6322937011719 288.9298095703125 377.6332702636719 288.9316711425781 377.6341857910156 288.9334716796875 L 377.6371459960938 288.9393310546875 C 377.6386413574219 288.9421997070312 377.64013671875 288.9451904296875 377.6416625976562 288.9481201171875 L 377.6448669433594 288.9544067382812 C 377.6451416015625 288.9550170898438 377.6455383300781 288.9557495117188 377.6458435058594 288.9563598632812 L 380.198974609375 293.9613037109375 L 379.3081665039062 294.4157104492188 L 376.5816955566406 289.0709838867188 L 377.4725341796875 288.6165771484375 Z M 382.9254455566406 299.3060607910156 L 385.6519165039062 304.6508178710938 L 384.7611083984375 305.105224609375 L 382.0346374511719 299.7604675292969 L 382.9254760742188 299.3060607910156 Z M 388.37841796875 309.99560546875 L 391.1048583984375 315.3403015136719 L 390.2140502929688 315.7947082519531 L 387.4875793457031 310.4500122070312 L 388.37841796875 309.99560546875 Z M 393.8313293457031 320.68505859375 L 396.5578002929688 326.0298461914062 L 395.6669921875 326.4842529296875 L 392.9405212402344 321.1394653320312 L 393.8313598632812 320.68505859375 Z M 399.2843017578125 331.3745727539062 L 402.0107421875 336.7193603515625 L 401.1199340820312 337.1737670898438 L 398.3934631347656 331.8289794921875 L 399.2843017578125 331.3745727539062 Z M 404.7372131347656 342.0640869140625 L 407.4636840820312 347.4088439941406 L 406.5728759765625 347.8632202148438 L 403.8464050292969 342.5184631347656 L 404.7372436523438 342.0640563964844 Z M 410.1901550292969 352.7536010742188 L 412.9166259765625 358.0983581542969 L 412.0258178710938 358.5527648925781 L 409.2993469238281 353.2080078125 L 410.190185546875 352.7536010742188 Z M 415.64306640625 363.4430541992188 C 415.64306640625 363.4430541992188 418.3695373535156 368.787841796875 418.3695373535156 368.787841796875 L 417.478759765625 369.2422485351562 L 414.7522888183594 363.8974609375 L 415.64306640625 363.4430541992188 Z M 421.0960083007812 374.1325988769531 C 421.0960083007812 374.1325988769531 423.8224792480469 379.4773559570312 423.8224792480469 379.4773559570312 L 422.9317016601562 379.9317626953125 L 420.2052307128906 374.5870056152344 L 421.0960083007812 374.1325988769531 Z M 426.5489501953125 384.8220520019531 C 426.5489501953125 384.8220520019531 429.2754211425781 390.1668090820312 429.2754211425781 390.1668090820312 L 428.3846435546875 390.6212463378906 L 425.6581726074219 385.2764892578125 L 426.5489501953125 384.8220520019531 Z M 432.0018920898438 395.5115966796875 C 432.0018920898438 395.5115966796875 434.7283630371094 400.8563537597656 434.7283630371094 400.8563537597656 L 433.8375854492188 401.3107604980469 L 431.1111145019531 395.9660034179688 L 432.0018920898438 395.5115966796875 Z M 437.454833984375 406.2011108398438 C 437.454833984375 406.2011108398438 440.1813049316406 411.5458374023438 440.1813049316406 411.5458374023438 L 439.29052734375 412.000244140625 L 436.5640563964844 406.655517578125 L 437.454833984375 406.2011108398438 Z M 442.9077758789062 416.8905944824219 C 442.9077758789062 416.8905944824219 445.6342468261719 422.2353515625 445.6342468261719 422.2353515625 L 444.7434692382812 422.6897583007812 L 442.0169982910156 417.3450012207031 L 442.9077758789062 416.8905944824219 Z M 448.3607177734375 427.5801086425781 C 448.3607177734375 427.5801086425781 451.0871887207031 432.9248352050781 451.0871887207031 432.9248352050781 L 450.1964111328125 433.3792419433594 L 447.4699401855469 428.0345458984375 L 448.3607177734375 427.5801086425781 Z M 453.8136596679688 438.2695922851562 C 453.8136596679688 438.2695922851562 456.5401306152344 443.6143493652344 456.5401306152344 443.6143493652344 L 455.6493530273438 444.0687561035156 L 452.9228820800781 438.7239990234375 L 453.8136596679688 438.2695922851562 Z M 459.2666015625 448.9591064453125 C 459.2666015625 448.9591064453125 460.4963989257812 451.3699035644531 461.3041076660156 452.9532775878906 L 461.3067932128906 452.9585571289062 C 461.3096618652344 452.9641723632812 461.3124694824219 452.9696960449219 461.3153381347656 452.9752807617188 L 461.3203735351562 452.9851379394531 C 461.3221740722656 452.9887084960938 461.3241271972656 452.9924926757812 461.325927734375 452.9960632324219 L 461.9930419921875 454.3038330078125 L 461.102294921875 454.7582397460938 L 458.3758239746094 449.4135437011719 L 459.2666015625 448.9591064453125 Z M 464.7195434570312 459.6485900878906 L 464.8148803710938 459.8355102539062 C 464.81494140625 459.8356628417969 464.8149719238281 459.835693359375 464.8150329589844 459.8358459472656 L 464.9088134765625 460.0196533203125 C 464.9089965820312 460.02001953125 464.9091491699219 460.0202941894531 464.9093322753906 460.0206298828125 L 464.9822998046875 460.1637268066406 C 464.9849853515625 460.1690063476562 464.98779296875 460.1744689941406 464.9905090332031 460.1798095703125 L 464.9913024902344 460.1813354492188 C 465.0238647460938 460.2451477050781 465.0586547851562 460.3133850097656 465.095703125 460.3860168457031 L 465.0997314453125 460.3939208984375 C 465.1146240234375 460.423095703125 465.1297302246094 460.4527282714844 465.145263671875 460.4831848144531 L 465.1458435058594 460.4843139648438 C 465.9127807617188 461.9877624511719 467.4460144042969 464.9933471679688 467.4460144042969 464.9933471679688 L 466.5552368164062 465.44775390625 L 463.8287658691406 460.1029968261719 L 464.7195434570312 459.6485900878906 Z M 463.6204833984375 469 L 469.4898681640625 469 L 469.6204833984375 469.2560119628906 L 469.6204833984375 470 C 469.6204833984375 470 463.6204833984375 470 463.6204833984375 470 L 463.6204833984375 469 Z M 451.6204833984375 469 L 457.6204833984375 469 L 457.6204833984375 470 C 457.6204833984375 470 451.6204833984375 470 451.6204833984375 470 L 451.6204833984375 469 Z M 439.6204833984375 469 L 445.6204833984375 469 L 445.6204833984375 470 C 445.6204833984375 470 439.6204833984375 470 439.6204833984375 470 L 439.6204833984375 469 Z M 427.6204833984375 469 L 433.6204833984375 469 L 433.6204833984375 470 C 433.6204833984375 470 427.6204833984375 470 427.6204833984375 470 L 427.6204833984375 469 Z M 415.6204833984375 469 L 421.6204833984375 469 L 421.6204833984375 470 C 421.6204833984375 470 415.6204833984375 470 415.6204833984375 470 L 415.6204833984375 469 Z M 403.6204833984375 469 L 409.6204833984375 469 L 409.6204833984375 470 C 409.6204833984375 470 403.6204833984375 470 403.6204833984375 470 L 403.6204833984375 469 Z M 391.6204833984375 469 L 397.6204833984375 469 L 397.6204833984375 470 C 397.6204833984375 470 391.6204833984375 470 391.6204833984375 470 L 391.6204833984375 469 Z M 379.6204833984375 469 L 385.6204833984375 469 L 385.6204833984375 470 C 385.6204833984375 470 379.6204833984375 470 379.6204833984375 470 L 379.6204833984375 469 Z M 367.6204833984375 469 L 373.6204833984375 469 L 373.6204833984375 470 C 373.6204833984375 470 367.6204833984375 470 367.6204833984375 470 L 367.6204833984375 469 Z M 355.6204833984375 469 L 361.6204833984375 469 L 361.6204833984375 470 C 361.6204833984375 470 355.6204833984375 470 355.6204833984375 470 L 355.6204833984375 469 Z M 343.6204833984375 469 L 349.6204833984375 469 L 349.6204833984375 470 C 349.6204833984375 470 343.6204833984375 470 343.6204833984375 470 L 343.6204833984375 469 Z M 331.6204833984375 469 L 337.6204833984375 469 L 337.6204833984375 470 C 337.6204833984375 470 331.6204833984375 470 331.6204833984375 470 L 331.6204833984375 469 Z M 319.6204833984375 469 L 325.6204833984375 469 L 325.6204833984375 470 C 325.6204833984375 470 319.6204833984375 470 319.6204833984375 470 L 319.6204833984375 469 Z M 307.6204833984375 469 L 313.6204833984375 469 L 313.6204833984375 470 C 313.6204833984375 470 307.6204833984375 470 307.6204833984375 470 L 307.6204833984375 469 Z M 295.6204833984375 469 L 301.6204833984375 469 L 301.6204833984375 470 C 301.6204833984375 470 295.6204833984375 470 295.6204833984375 470 L 295.6204833984375 469 Z M 283.6204833984375 469 L 289.6204833984375 469 L 289.6204833984375 470 C 289.6204833984375 470 283.6204833984375 470 283.6204833984375 470 L 283.6204833984375 469 Z M 271.6204833984375 469 L 277.6204833984375 469 L 277.6204833984375 470 C 277.6204833984375 470 271.6204833984375 470 271.6204833984375 470 L 271.6204833984375 469 Z M 259.6204833984375 469 L 265.6204833984375 469 L 265.6204833984375 470 C 265.6204833984375 470 259.6204833984375 470 259.6204833984375 470 L 259.6204833984375 469 Z M 247.6204681396484 469 L 253.6204681396484 469 L 253.6204681396484 470 C 253.6204681396484 470 247.6204681396484 470 247.6204681396484 470 L 247.6204681396484 469 Z M 235.6204681396484 469 L 241.6204681396484 469 L 241.6204681396484 470 C 241.6204681396484 470 235.6204681396484 470 235.6204681396484 470 L 235.6204681396484 469 Z M 223.6204681396484 469 L 229.6204681396484 469 L 229.6204681396484 470 C 229.6204681396484 470 223.6204681396484 470 223.6204681396484 470 L 223.6204681396484 469 Z M 211.6204833984375 469 L 217.6204681396484 469 L 217.6204681396484 470 C 217.6204681396484 470 211.6204833984375 470 211.6204833984375 470 L 211.6204833984375 469 Z M 199.6204833984375 469 L 205.6204833984375 469 L 205.6204833984375 470 C 205.6204833984375 470 199.6204833984375 470 199.6204833984375 470 L 199.6204833984375 469 Z M 187.6204833984375 469 L 193.6204833984375 469 L 193.6204833984375 470 C 193.6204833984375 470 187.6204833984375 470 187.6204833984375 470 L 187.6204833984375 469 Z M 175.6204833984375 469 L 181.6204833984375 469 L 181.6204833984375 470 C 181.6204833984375 470 175.6204833984375 470 175.6204833984375 470 L 175.6204833984375 469 Z M 163.6204833984375 469 L 169.6204833984375 469 L 169.6204833984375 470 C 169.6204833984375 470 163.6204833984375 470 163.6204833984375 470 L 163.6204833984375 469 Z M 151.6204833984375 469 L 157.6204833984375 469 L 157.6204833984375 470 C 157.6204833984375 470 151.6204833984375 470 151.6204833984375 470 L 151.6204833984375 469 Z M 139.6204833984375 469 L 145.6204833984375 469 L 145.6204833984375 470 C 145.6204833984375 470 139.6204833984375 470 139.6204833984375 470 L 139.6204833984375 469 Z M 127.6204833984375 469 L 133.6204833984375 469 L 133.6204833984375 470 C 133.6204833984375 470 127.6204833984375 470 127.6204833984375 470 L 127.6204833984375 469 Z M 115.6204833984375 469 L 121.6204833984375 469 L 121.6204833984375 470 C 121.6204833984375 470 115.6204833984375 470 115.6204833984375 470 L 115.6204833984375 469 Z M 103.6204833984375 469 L 109.6204833984375 469 L 109.6204833984375 470 C 109.6204833984375 470 103.6204833984375 470 103.6204833984375 470 L 103.6204833984375 469 Z M 91.6204833984375 469 L 97.6204833984375 469 L 97.6204833984375 470 C 97.6204833984375 470 91.6204833984375 470 91.6204833984375 470 L 91.6204833984375 469 Z M 79.6204833984375 469 L 85.6204833984375 469 L 85.6204833984375 470 C 85.6204833984375 470 79.6204833984375 470 79.6204833984375 470 L 79.6204833984375 469 Z M 67.6204833984375 469 L 73.6204833984375 469 L 73.6204833984375 470 C 73.6204833984375 470 67.6204833984375 470 67.6204833984375 470 L 67.6204833984375 469 Z M 55.6204833984375 469 L 61.6204833984375 469 L 61.6204833984375 470 C 61.6204833984375 470 55.6204833984375 470 55.6204833984375 470 L 55.6204833984375 469 Z M 43.6204833984375 469 L 49.6204833984375 469 L 49.6204833984375 470 C 49.6204833984375 470 43.6204833984375 470 43.6204833984375 470 L 43.6204833984375 469 Z M 31.6204833984375 469 L 37.6204833984375 469 L 37.6204833984375 470 C 37.6204833984375 470 31.6204833984375 470 31.6204833984375 470 L 31.6204833984375 469 Z M 19.6204833984375 469 L 25.6204833984375 469 L 25.6204833984375 470 C 25.6204833984375 470 19.6204833984375 470 19.6204833984375 470 L 19.6204833984375 469 Z M 7.6204833984375 469 L 13.6204833984375 469 L 13.6204833984375 470 C 13.6204833984375 470 7.6204833984375 470 7.6204833984375 470 L 7.6204833984375 469 Z M 1.92669677734375 466.0669860839844 L 2.82470703125 466.5069274902344 L 1.603424072265625 469 L 1.6204833984375 469 L 1.6204833984375 470 C 1.6204833984375 470 1.39569091796875 470 1.11358642578125 470 L 1.11358642578125 470 L 0 470 L 0 470 C 0 470 0 470 0 470 L 0 470 L 0 470 L 0 470 C 0 470 0 470 0 470 L 0.4898681640625 469 L 0.4898681640625 469 C 1.060699462890625 467.8347778320312 1.92669677734375 466.0669860839844 1.92669677734375 466.0669860839844 Z M 7.205810546875 455.2905883789062 L 8.10382080078125 455.7305297851562 L 5.46429443359375 461.1187744140625 L 4.56622314453125 460.6788330078125 L 7.205841064453125 455.2905883789062 Z M 12.48495483398438 444.5142211914062 L 13.38299560546875 444.9541015625 L 10.743408203125 450.3423461914062 L 9.84539794921875 449.9024047851562 C 9.84539794921875 449.9024047851562 11.60739135742188 446.3056335449219 12.252197265625 444.9893798828125 L 12.26141357421875 444.9705505371094 C 12.26620483398438 444.9607849121094 12.27096557617188 444.9510192871094 12.275634765625 444.9415283203125 L 12.48495483398438 444.5142211914062 Z M 17.76406860351562 433.7378234863281 L 18.662109375 434.1777648925781 L 16.02252197265625 439.5659484863281 L 15.12454223632812 439.1260070800781 C 15.12454223632812 439.1260070800781 15.2149658203125 438.94140625 15.3623046875 438.6406555175781 L 17.76406860351562 433.7378234863281 Z M 23.04324340820312 422.96142578125 L 23.94122314453125 423.4013671875 L 21.30169677734375 428.7895202636719 L 20.40365600585938 428.3496398925781 C 20.40365600585938 428.3496398925781 23.04324340820312 422.96142578125 23.04324340820312 422.96142578125 Z M 28.32235717773438 412.1849975585938 L 29.22036743164062 412.6249389648438 L 26.580810546875 418.01318359375 L 25.68276977539062 417.5732421875 L 28.32235717773438 412.1849975585938 Z M 33.60147094726562 401.4086303710938 L 34.49954223632812 401.8485107421875 L 31.85995483398438 407.2367553710938 L 30.96194458007812 406.7968139648438 C 30.96194458007812 406.7968139648438 33.60147094726562 401.4086303710938 33.60147094726562 401.4086303710938 Z M 38.88058471679688 390.6322326660156 L 39.77865600585938 391.0721740722656 L 37.13906860351562 396.4603576660156 L 36.24105834960938 396.0204162597656 C 36.24105834960938 396.0204162597656 36.44891357421875 395.5961303710938 36.74798583984375 394.9855651855469 L 36.75262451171875 394.9761352539062 C 36.75314331054688 394.9750671386719 36.75350952148438 394.974365234375 36.7540283203125 394.9732666015625 L 38.880615234375 390.6322326660156 Z M 44.15975952148438 379.8558349609375 L 45.05776977539062 380.2957763671875 L 42.41824340820312 385.6839599609375 L 41.52017211914062 385.2440185546875 L 42.818115234375 382.5945434570312 C 43.48516845703125 381.2328491210938 44.15975952148438 379.8558349609375 44.15975952148438 379.8558349609375 Z M 49.43887329101562 369.0794067382812 L 50.33688354492188 369.5193481445312 L 47.69735717773438 374.9075317382812 L 46.79928588867188 374.4676513671875 L 49.43887329101562 369.0794067382812 Z M 54.71798706054688 358.3030700683594 L 55.61605834960938 358.7429504394531 L 52.97647094726562 364.1311645507812 L 52.07846069335938 363.6912231445312 C 52.07846069335938 363.6912231445312 54.71798706054688 358.3030700683594 54.71798706054688 358.3030700683594 Z M 59.99713134765625 347.5266418457031 L 60.89517211914062 347.9665832519531 L 58.25558471679688 353.3547668457031 L 57.35757446289062 352.9148254394531 C 57.35757446289062 352.9148254394531 57.69830322265625 352.2192993164062 58.13485717773438 351.3281555175781 L 58.1357421875 351.3263244628906 C 58.1446533203125 351.3081665039062 58.1534423828125 351.2902221679688 58.16241455078125 351.2718811035156 L 59.99713134765625 347.5266723632812 Z M 65.27630615234375 336.750244140625 L 66.17428588867188 337.190185546875 L 63.53475952148438 342.578369140625 L 62.63671875 342.138427734375 L 63.68209838867188 340.0044250488281 C 63.68606567382812 339.9963684082031 63.68991088867188 339.9884948730469 63.69387817382812 339.9804077148438 L 63.7034912109375 339.9607849121094 C 63.70556640625 339.9565734863281 63.7076416015625 339.9523010253906 63.709716796875 339.9480895996094 L 63.71096801757812 339.9454956054688 C 64.44158935546875 338.4541015625 65.27630615234375 336.750244140625 65.27630615234375 336.750244140625 Z M 70.555419921875 325.9738159179688 L 71.45339965820312 326.4137573242188 L 68.81387329101562 331.8019409179688 L 67.91583251953125 331.362060546875 L 70.555419921875 325.9738159179688 Z M 75.83453369140625 315.1974182128906 L 76.73257446289062 315.6373596191406 L 74.09298706054688 321.0255737304688 L 73.19500732421875 320.5856323242188 C 73.19500732421875 320.5856323242188 74.00631713867188 318.929443359375 74.7293701171875 317.4534301757812 L 75.83453369140625 315.1974182128906 Z M 81.1136474609375 304.4210815429688 L 82.01171875 304.8609619140625 L 79.37213134765625 310.2491760253906 L 78.47412109375 309.8092346191406 C 78.47412109375 309.8092346191406 78.97018432617188 308.7965698242188 79.53213500976562 307.6494445800781 L 79.534423828125 307.6448059082031 C 79.53536987304688 307.6428833007812 79.53631591796875 307.6409301757812 79.53726196289062 307.6389770507812 L 79.54147338867188 307.6304321289062 C 79.54248046875 307.6283264160156 79.54367065429688 307.6258850097656 79.54470825195312 307.623779296875 L 79.55087280273438 307.6112060546875 C 79.55166625976562 307.6095581054688 79.55230712890625 307.6082763671875 79.5531005859375 307.606689453125 L 81.1136474609375 304.4210815429688 Z M 86.392822265625 293.6446533203125 L 87.29083251953125 294.0845947265625 L 84.65130615234375 299.4727783203125 L 83.75323486328125 299.0328369140625 L 84.60546875 297.2931518554688 C 85.37680053710938 295.7186279296875 86.392822265625 293.6446533203125 86.392822265625 293.6446533203125 Z M 91.67193603515625 282.8682250976562 L 92.5699462890625 283.3081665039062 L 89.930419921875 288.6963500976562 L 89.0323486328125 288.2564697265625 L 90.81793212890625 284.6115112304688 C 90.81832885742188 284.6107177734375 90.81866455078125 284.6100463867188 90.81903076171875 284.6092834472656 L 90.87493896484375 284.4951782226562 C 90.87576293945312 284.4935302734375 90.87640380859375 284.4921875 90.87722778320312 284.4905090332031 L 90.89028930664062 284.4638366699219 C 90.89065551757812 284.4630737304688 90.89105224609375 284.4622802734375 90.89141845703125 284.4615478515625 L 90.89553833007812 284.4530944824219 C 90.89984130859375 284.4443359375 90.90420532226562 284.4354248046875 90.90847778320312 284.4266967773438 L 90.92581176757812 284.391357421875 C 90.92669677734375 284.3895263671875 90.92764282226562 284.3875732421875 90.92852783203125 284.3858032226562 L 90.93643188476562 284.3696594238281 C 90.95974731445312 284.3220825195312 90.98284912109375 284.27490234375 91.00552368164062 284.2286376953125 L 91.00656127929688 284.2265014648438 C 91.02432250976562 284.1902465820312 91.0418701171875 284.1544189453125 91.05917358398438 284.1190795898438 L 91.06024169921875 284.1168823242188 C 91.07431030273438 284.0881958007812 91.0882568359375 284.0597534179688 91.10198974609375 284.0317077636719 L 91.10275268554688 284.0300903320312 C 91.12042236328125 283.9940795898438 91.13790893554688 283.9583740234375 91.15499877929688 283.9234619140625 L 91.158203125 283.9169311523438 C 91.46087646484375 283.299072265625 91.67193603515625 282.8682250976562 91.67193603515625 282.8682250976562 Z M 96.9510498046875 272.0918273925781 L 97.84912109375 272.5317687988281 L 95.20953369140625 277.9199829101562 L 94.3115234375 277.4800415039062 C 94.3115234375 277.4800415039062 95.22747802734375 275.6102905273438 95.98025512695312 274.0735473632812 L 96.95108032226562 272.0918273925781 Z M 102.2301635742188 261.3154907226562 L 103.1282348632812 261.75537109375 L 100.4886474609375 267.1435852050781 L 99.59063720703125 266.7036437988281 C 99.59063720703125 266.7036437988281 100.2526245117188 265.3523559570312 100.9135437011719 264.003173828125 L 100.9280700683594 263.9735107421875 C 100.9302368164062 263.9690551757812 100.932373046875 263.9647521972656 100.9345397949219 263.9603271484375 L 100.9430236816406 263.9429931640625 C 100.9459228515625 263.9370727539062 100.9489135742188 263.9309692382812 100.9518127441406 263.925048828125 L 100.9583740234375 263.9116516113281 C 100.9595031738281 263.9093627929688 100.9604797363281 263.9073486328125 100.9616088867188 263.9050598144531 L 102.2301940917969 261.3154907226562 Z M 107.5093383789062 250.5390625 L 108.4073486328125 250.97900390625 L 105.767822265625 256.3671875 L 104.8697509765625 255.9272308349609 L 105.5038452148438 254.6328735351562 C 105.504638671875 254.6313018798828 105.5054016113281 254.6297302246094 105.5061645507812 254.6281585693359 L 105.5175170898438 254.60498046875 C 106.2990417480469 253.0096740722656 107.5093383789062 250.5390625 107.5093383789062 250.5390625 Z M 112.7884826660156 239.7626495361328 L 113.6864624023438 240.2025909423828 L 111.0469360351562 245.5907592773438 L 110.1488952636719 245.1508178710938 L 112.4853515625 240.3813781738281 C 112.6708984375 240.0026550292969 112.7884826660156 239.7626495361328 112.7884826660156 239.7626495361328 Z M 118.0675964355469 228.9862365722656 L 118.9656372070312 229.4261779785156 L 116.3260498046875 234.8143463134766 L 115.4280700683594 234.3744659423828 C 115.4280700683594 234.3744659423828 116.4574279785156 232.2731781005859 117.2305297851562 230.6950073242188 L 117.2504577636719 230.6542816162109 C 117.2504577636719 230.6542816162109 117.2505493164062 230.6541137695312 117.2505493164062 230.6541137695312 L 118.0675964355469 228.9862365722656 Z M 123.3467407226562 218.2098388671875 L 124.2447509765625 218.6497650146484 L 121.6051635742188 224.0379943847656 L 120.7071838378906 223.5980529785156 C 120.7071838378906 223.5980529785156 121.0475463867188 222.9032287597656 121.4837951660156 222.0127105712891 L 121.4859924316406 222.0082092285156 C 121.4923706054688 221.9951782226562 121.4987182617188 221.9822387695312 121.505126953125 221.9691314697266 L 123.3467407226562 218.2098388671875 Z M 128.6258850097656 207.4334716796875 L 129.5238952636719 207.8733520507812 L 126.8843383789062 213.2615966796875 L 125.9862976074219 212.8216552734375 L 126.3231201171875 212.1340942382812 C 126.3232727050781 212.1337585449219 126.3233642578125 212.1335754394531 126.3235473632812 212.1332397460938 L 126.32861328125 212.1228942871094 C 126.32861328125 212.1228942871094 126.3287048339844 212.1226806640625 126.3287048339844 212.1226806640625 L 126.3605346679688 212.0577087402344 C 126.3609924316406 212.0567626953125 126.3614807128906 212.0557861328125 126.3619384765625 212.0548400878906 L 126.3666076660156 212.0453491210938 C 126.3675842285156 212.0433044433594 126.3685913085938 212.041259765625 126.3695983886719 212.0392456054688 L 126.370361328125 212.0376586914062 C 126.3717041015625 212.034912109375 126.3729858398438 212.0322570800781 126.3743591308594 212.0295104980469 L 126.3777160644531 212.0226440429688 C 126.3807983398438 212.016357421875 126.3839111328125 212.0099792480469 126.3870239257812 212.0036315917969 L 126.3880920410156 212.0014953613281 C 126.3908386230469 211.9958801269531 126.3936157226562 211.9902038574219 126.3963928222656 211.9845581054688 L 126.4021301269531 211.9727783203125 C 127.1456604003906 210.4550476074219 128.6258850097656 207.4334716796875 128.6258850097656 207.4334716796875 Z M 133.9049987792969 196.6570739746094 L 134.8030090332031 197.0969848632812 L 132.1634826660156 202.4851684570312 L 131.2654113769531 202.0452270507812 L 133.3390197753906 197.8123779296875 C 133.34033203125 197.8097534179688 133.3414001464844 197.8075256347656 133.3426818847656 197.8049011230469 L 133.3476867675781 197.7947082519531 C 133.6735534667969 197.1295166015625 133.9049987792969 196.6570739746094 133.9049987792969 196.6570739746094 Z M 139.1841125488281 185.8806457519531 L 140.0821838378906 186.3205871582031 L 137.4425964355469 191.7087707519531 L 136.5445861816406 191.2688903808594 C 136.5445861816406 191.2688903808594 137.7068786621094 188.8962097167969 138.4889221191406 187.2998046875 L 138.4923706054688 187.2927856445312 C 138.4955749511719 187.2861938476562 138.4989013671875 187.2794189453125 138.5021057128906 187.2728576660156 L 139.1841430664062 185.8806457519531 Z M 144.4632568359375 175.104248046875 L 145.3612976074219 175.544189453125 L 142.7217102050781 180.9324035644531 L 141.8236999511719 180.4924621582031 C 141.8236999511719 180.4924621582031 142.2413940429688 179.6398010253906 142.7445068359375 178.6127624511719 L 144.4632568359375 175.104248046875 Z M 149.7424011230469 164.327880859375 L 150.6404113769531 164.7677612304688 L 148.0008850097656 170.156005859375 L 147.1028137207031 169.716064453125 L 147.253662109375 169.4081726074219 C 147.2553100585938 169.4048156738281 147.2569274902344 169.4014892578125 147.2586059570312 169.3980712890625 L 147.2614440917969 169.3922729492188 C 147.2620544433594 169.3910217285156 147.2626037597656 169.389892578125 147.2632446289062 169.3886108398438 L 147.2644653320312 169.3860778808594 C 147.265380859375 169.3842468261719 147.2662658691406 169.3824462890625 147.2671813964844 169.3805847167969 L 147.2686462402344 169.3775939941406 C 147.2705078125 169.3737487792969 147.2723999023438 169.369873046875 147.2743225097656 169.3659973144531 L 147.2779846191406 169.3585205078125 C 147.2782287597656 169.3580017089844 147.2784729003906 169.3574829101562 147.2787475585938 169.3569641113281 L 147.2807006835938 169.3529968261719 C 147.8730773925781 168.1437377929688 149.7424011230469 164.327880859375 149.7424011230469 164.327880859375 Z M 155.0215148925781 153.5514831542969 L 155.9195251464844 153.9914245605469 L 153.2799987792969 159.3795776367188 L 152.3819274902344 158.9396362304688 L 154.2382507324219 155.150390625 C 154.2394409179688 155.14794921875 154.24072265625 155.1453552246094 154.2419128417969 155.1429138183594 L 154.2452697753906 155.1360778808594 C 154.681396484375 154.2457885742188 155.0215148925781 153.5514831542969 155.0215148925781 153.5514831542969 Z M 160.3006591796875 142.7750549316406 L 161.1986999511719 143.2149963378906 L 158.5591125488281 148.6031799316406 L 157.6611328125 148.1632385253906 C 157.6611328125 148.1632385253906 158.4026794433594 146.6494750976562 159.0996704101562 145.2266845703125 L 159.1097412109375 145.2061157226562 C 159.1122436523438 145.2010192871094 159.1147766113281 145.19580078125 159.1172790527344 145.1907348632812 L 159.1226196289062 145.1798400878906 C 159.1235046386719 145.1780395507812 159.1244812011719 145.1759948730469 159.1253662109375 145.1741943359375 L 159.1297607421875 145.1652221679688 C 159.1305541992188 145.16357421875 159.1313781738281 145.1619567871094 159.1321716308594 145.1603088378906 L 160.3006591796875 142.7750549316406 Z M 165.5797729492188 131.9986572265625 L 166.4778137207031 132.4385986328125 L 163.8382263183594 137.8267517089844 L 162.9402465820312 137.3868713378906 C 162.9402465820312 137.3868713378906 163.4272155761719 136.3927917480469 163.9827880859375 135.2586669921875 L 163.9843139648438 135.2555236816406 C 163.9862365722656 135.2516479492188 163.9880981445312 135.247802734375 163.989990234375 135.2439270019531 L 165.5798034667969 131.9986572265625 Z M 170.8589477539062 121.2222900390625 L 171.7569274902344 121.6621704101562 L 169.1174011230469 127.0504150390625 L 168.2193603515625 126.6104736328125 L 168.2193908691406 126.6104125976562 C 168.22998046875 126.5887756347656 170.8589477539062 121.2222900390625 170.8589477539062 121.2222900390625 Z M 176.1380615234375 110.4458923339844 L 177.0360717773438 110.8858337402344 L 174.3965148925781 116.2739868164062 L 173.4984741210938 115.8340454101562 L 175.13232421875 112.4989013671875 C 175.1394653320312 112.4843139648438 175.1465759277344 112.4697570800781 175.1537170410156 112.4552307128906 L 175.1561584472656 112.4502563476562 C 175.1655883789062 112.4309387207031 175.1751098632812 112.4115600585938 175.1845092773438 112.3923645019531 L 175.185791015625 112.3897705078125 C 175.7027893066406 111.3343811035156 176.1380615234375 110.4458923339844 176.1380615234375 110.4458923339844 Z M 181.4171752929688 99.66946411132812 L 182.3152465820312 100.1094055175781 L 179.6756591796875 105.4975891113281 L 178.7776489257812 105.0576477050781 C 178.7776489257812 105.0576477050781 179.7073364257812 103.1598205566406 180.4632263183594 101.6167907714844 L 180.4661560058594 101.61083984375 C 180.4753112792969 101.5921325683594 180.4844055175781 101.5735473632812 180.4935302734375 101.5549621582031 L 180.4944152832031 101.5531311035156 C 180.4989013671875 101.5439758300781 180.5034790039062 101.5346069335938 180.5079650878906 101.5254821777344 L 180.5098571777344 101.5216369628906 C 180.5113220214844 101.5186462402344 180.512939453125 101.5153503417969 180.5143737792969 101.5123596191406 L 181.4171752929688 99.66946411132812 Z M 186.6962890625 88.89306640625 L 187.5943603515625 89.3330078125 L 184.9547729492188 94.72119140625 L 184.0567626953125 94.28128051757812 C 184.0567626953125 94.28128051757812 184.6266784667969 93.117919921875 185.2368469238281 91.872314453125 L 185.2394714355469 91.866943359375 C 185.2406005859375 91.86465454101562 185.2416076660156 91.86257934570312 185.2427368164062 91.86029052734375 L 186.6963195800781 88.89306640625 Z M 191.9754638671875 78.11663818359375 L 192.8734741210938 78.55657958984375 L 190.2339477539062 83.94482421875 L 189.3358764648438 83.5048828125 C 189.3358764648438 83.5048828125 191.9754638671875 78.11663818359375 191.9754638671875 78.11663818359375 Z M 197.2545776367188 67.34030151367188 L 198.152587890625 67.78018188476562 L 195.5130615234375 73.16842651367188 L 194.614990234375 72.72848510742188 L 196.0312805175781 69.83743286132812 C 196.0313720703125 69.83724975585938 196.031494140625 69.83697509765625 196.0315856933594 69.83682250976562 L 196.0388488769531 69.82196044921875 C 196.0390319824219 69.82162475585938 196.0392761230469 69.82110595703125 196.0394287109375 69.82077026367188 L 196.0448608398438 69.8096923828125 C 196.0474243164062 69.804443359375 196.0499877929688 69.79925537109375 196.0525512695312 69.79403686523438 L 196.0664672851562 69.76559448242188 C 196.0682373046875 69.76199340820312 196.070068359375 69.75820922851562 196.0718383789062 69.75460815429688 L 196.0747985839844 69.74859619140625 C 196.6849060058594 68.50320434570312 197.2545776367188 67.34030151367188 197.2545776367188 67.34030151367188 Z M 202.53369140625 56.56387329101562 L 203.4317626953125 57.00381469726562 L 200.7921752929688 62.39199829101562 L 199.8941650390625 61.95205688476562 C 199.8941650390625 61.95205688476562 201.1264953613281 59.43649291992188 201.9070739746094 57.84304809570312 L 201.9113464355469 57.8343505859375 C 201.9114685058594 57.83404541015625 201.9114990234375 57.83401489257812 201.9116516113281 57.833740234375 L 202.5337219238281 56.56387329101562 Z M 207.8128356933594 45.7874755859375 L 208.7108764648438 46.2274169921875 L 206.0712890625 51.6156005859375 L 205.1733093261719 51.17572021484375 C 205.1733093261719 51.17572021484375 205.8118286132812 49.87225341796875 206.4607238769531 48.54757690429688 L 206.4642944335938 48.54034423828125 C 206.4678955078125 48.53292846679688 206.4715881347656 48.52545166015625 206.4751892089844 48.51803588867188 L 207.8128356933594 45.7874755859375 Z M 213.0920104980469 35.01104736328125 L 213.989990234375 35.45098876953125 L 211.3504638671875 40.8392333984375 L 210.4524230957031 40.3992919921875 C 210.4524230957031 40.3992919921875 213.0920104980469 35.01104736328125 213.0920104980469 35.01104736328125 Z M 218.3711242675781 24.23471069335938 L 219.2691192626953 24.67459106445312 L 216.6295928955078 30.06283569335938 L 215.7315368652344 29.62289428710938 L 216.9467010498047 27.14236450195312 C 216.9499969482422 27.1356201171875 216.9534759521484 27.12850952148438 216.9567718505859 27.12179565429688 L 216.9602203369141 27.11477661132812 C 216.9696197509766 27.0955810546875 216.9791870117188 27.07601928710938 216.9886169433594 27.05682373046875 L 216.9903106689453 27.0533447265625 C 217.6699371337891 25.666015625 218.3711242675781 24.23471069335938 218.3711242675781 24.23471069335938 Z M 223.6502380371094 13.45828247070312 L 224.5482940673828 13.89822387695312 L 221.9087066650391 19.28640747070312 L 221.0107116699219 18.84646606445312 C 221.0107116699219 18.84646606445312 222.4942016601562 15.81814575195312 223.2368774414062 14.30209350585938 L 223.2389984130859 14.29776000976562 C 223.2461242675781 14.28323364257812 223.2532653808594 14.26864624023438 223.2602386474609 14.25439453125 L 223.2611846923828 14.25247192382812 C 223.2647857666016 14.2451171875 223.2683563232422 14.23782348632812 223.2719268798828 14.23056030273438 L 223.2723388671875 14.22970581054688 C 223.2739105224609 14.22650146484375 223.2755126953125 14.22323608398438 223.2770843505859 14.22003173828125 L 223.2787475585938 14.21664428710938 C 223.2794952392578 14.215087890625 223.2801818847656 14.21368408203125 223.2809295654297 14.212158203125 L 223.2854309082031 14.20297241210938 C 223.2863616943359 14.20111083984375 223.2872467041016 14.19927978515625 223.2881774902344 14.1973876953125 L 223.2891998291016 14.19528198242188 C 223.2902984619141 14.19305419921875 223.2915191650391 14.1905517578125 223.2926177978516 14.18832397460938 L 223.2953491210938 14.1827392578125 C 223.2965545654297 14.1802978515625 223.2976837158203 14.177978515625 223.2988739013672 14.175537109375 L 223.3018493652344 14.16946411132812 C 223.3021392822266 14.16888427734375 223.3023986816406 14.1683349609375 223.3026885986328 14.16775512695312 L 223.3078308105469 14.15725708007812 C 223.3078308105469 14.15725708007812 223.3079071044922 14.1571044921875 223.3079071044922 14.1571044921875 L 223.3601379394531 14.05047607421875 C 223.3601989746094 14.05035400390625 223.3602447509766 14.05029296875 223.3602905273438 14.0501708984375 L 223.6502380371094 13.45828247070312 Z M 228.9293518066406 2.681884765625 L 229.8274078369141 3.121826171875 L 227.1878204345703 8.510009765625 L 226.2898254394531 8.070068359375 C 226.2898254394531 8.070068359375 226.3000793457031 8.04913330078125 226.3193359375 8.00982666015625 L 226.3195953369141 8.00927734375 C 226.3290252685547 7.99005126953125 226.3405609130859 7.96649169921875 226.3540954589844 7.938873291015625 L 226.3562316894531 7.93450927734375 C 226.3593292236328 7.928192138671875 226.3624877929688 7.921722412109375 226.3657684326172 7.915008544921875 L 226.3661956787109 7.914154052734375 C 226.3696441650391 7.9071044921875 226.3732299804688 7.899810791015625 226.3768920898438 7.892333984375 L 226.3784484863281 7.889129638671875 C 226.3800659179688 7.8858642578125 226.3816986083984 7.88250732421875 226.3833465576172 7.879150390625 L 226.3842163085938 7.87738037109375 C 226.3851013183594 7.875579833984375 226.3859710693359 7.873809814453125 226.3868560791016 7.871978759765625 L 226.3870697021484 7.871551513671875 C 226.3876342773438 7.870391845703125 226.3881683349609 7.869293212890625 226.3887329101562 7.868133544921875 L 226.3912506103516 7.863006591796875 C 226.3926696777344 7.860137939453125 226.3940582275391 7.857269287109375 226.3954925537109 7.854339599609375 L 226.3979034423828 7.84942626953125 C 226.3981475830078 7.84893798828125 226.3984069824219 7.848419189453125 226.3986511230469 7.847900390625 L 226.4116516113281 7.82135009765625 C 226.4118347167969 7.82098388671875 226.4119567871094 7.82073974609375 226.4121398925781 7.82037353515625 L 228.9293670654297 2.681884765625 Z" stroke="none" fill="#171717"/>
    </g>
    <rect id="Rectangle_37" data-name="Rectangle 37" width="159" height="159" transform="translate(553 3183)" fill="#f84525"/>
    <g id="Repeat_Grid_1" data-name="Repeat Grid 1" transform="translate(55 2418)" clip-path="url(#clip-path)">
      <g transform="translate(-274 -1530)">
        <rect id="Rectangle_27" data-name="Rectangle 27" width="9" height="9" transform="translate(274 1530)" fill="#f84525"/>
      </g>
      <g transform="translate(-274 -1460)">
        <rect id="Rectangle_27-2" data-name="Rectangle 27" width="9" height="9" transform="translate(274 1530)" fill="#f84525"/>
      </g>
      <g transform="translate(-274 -1390)">
        <rect id="Rectangle_27-3" data-name="Rectangle 27" width="9" height="9" transform="translate(274 1530)" fill="#f84525"/>
      </g>
      <g transform="translate(-274 -1320)">
        <rect id="Rectangle_27-4" data-name="Rectangle 27" width="9" height="9" transform="translate(274 1530)" fill="#f84525"/>
      </g>
      <g transform="translate(-274 -1250)">
        <rect id="Rectangle_27-5" data-name="Rectangle 27" width="9" height="9" transform="translate(274 1530)" fill="#f84525"/>
      </g>
      <g transform="translate(-274 -1180)">
        <rect id="Rectangle_27-6" data-name="Rectangle 27" width="9" height="9" transform="translate(274 1530)" fill="#f84525"/>
      </g>
    </g>
  </g>
</svg>
