<svg xmlns="http://www.w3.org/2000/svg" viewBox="0 0 93 73.561">
  <defs>
    <style>
      .cls-1 {
        fill: #ff3860;
      }
    </style>
  </defs>
  <g id="script" transform="translate(0 -53.51)">
    <g id="Group_77" data-name="Group 77" transform="translate(35.004 67.457)">
      <g id="Group_76" data-name="Group 76">
        <path id="Path_200" data-name="Path 200" d="M223.1,130.3h-29.02a1.363,1.363,0,0,0,0,2.726H223.1a1.363,1.363,0,1,0,0-2.726Z" transform="translate(-192.714 -130.296)"/>
      </g>
    </g>
    <g id="Group_79" data-name="Group 79" transform="translate(24.065 67.457)">
      <g id="Group_78" data-name="Group 78">
        <path id="Path_201" data-name="Path 201" d="M138.446,130.3h-4.6a1.363,1.363,0,0,0,0,2.726h4.6a1.363,1.363,0,1,0,0-2.726Z" transform="translate(-132.486 -130.296)"/>
      </g>
    </g>
    <g id="Group_81" data-name="Group 81" transform="translate(24.065 109.243)">
      <g id="Group_80" data-name="Group 80">
        <path id="Path_202" data-name="Path 202" class="cls-1" d="M148.108,360.341H133.849a1.363,1.363,0,0,0,0,2.726h14.259a1.363,1.363,0,0,0,0-2.726Z" transform="translate(-132.486 -360.341)"/>
      </g>
    </g>
    <g id="Group_83" data-name="Group 83" transform="translate(24.065 95.315)">
      <g id="Group_82" data-name="Group 82" transform="translate(0 0)">
        <path id="Path_203" data-name="Path 203" d="M153.829,283.66h-19.98a1.363,1.363,0,0,0,0,2.726h19.98a1.363,1.363,0,0,0,0-2.726Z" transform="translate(-132.486 -283.66)"/>
      </g>
    </g>
    <g id="Group_85" data-name="Group 85" transform="translate(24.065 81.386)">
      <g id="Group_84" data-name="Group 84">
        <path id="Path_204" data-name="Path 204" d="M163.555,206.977H133.849a1.363,1.363,0,0,0,0,2.726h29.705a1.363,1.363,0,1,0,0-2.726Z" transform="translate(-132.486 -206.977)"/>
      </g>
    </g>
    <g id="Group_87" data-name="Group 87" transform="translate(0 53.51)">
      <g id="Group_86" data-name="Group 86">
        <path id="Path_205" data-name="Path 205" d="M80.932,53.51H24.593a9.061,9.061,0,0,0-9.05,9.05V116.2H1.363A1.363,1.363,0,0,0,0,117.576c.054,5.413,3.944,9.495,9.048,9.495H65.559a9.061,9.061,0,0,0,9.05-9.05V101.5a1.363,1.363,0,0,0-2.727,0v16.519a6.331,6.331,0,0,1-6.324,6.324h-.172c-3.565,0-6.283-2.921-6.322-6.795A1.363,1.363,0,0,0,57.7,116.2H18.27V62.56a6.331,6.331,0,0,1,6.324-6.324H74.464c-.04.041-.078.084-.117.126s-.1.1-.142.152-.1.111-.144.167-.092.107-.137.161-.091.115-.136.173-.088.111-.13.168-.085.118-.127.178-.083.117-.123.176-.078.122-.117.183-.078.121-.115.183-.073.126-.108.189-.072.125-.107.189-.066.129-.1.194-.067.129-.1.194-.06.133-.09.2-.06.132-.089.2-.054.137-.081.205-.054.135-.079.2-.048.141-.072.213-.047.136-.068.2-.042.147-.063.22-.04.137-.058.206-.036.154-.053.231-.033.135-.046.2-.029.161-.043.242-.025.133-.035.2c-.013.086-.023.174-.033.261-.008.063-.017.125-.024.188-.01.1-.016.2-.023.294,0,.054-.009.108-.012.162q-.011.229-.012.461v12.1a1.363,1.363,0,1,0,2.726,0V64.381H88.632A1.363,1.363,0,0,0,89.995,63C89.941,57.592,86.051,53.51,80.932,53.51Zm-24.5,65.416q.028.212.065.42c.008.046.018.092.027.138.017.092.035.183.054.274.012.054.025.108.037.161.019.082.038.163.059.244.015.056.03.112.046.168.021.077.043.153.066.229.017.057.035.113.053.17q.035.111.073.22.029.084.06.168.04.108.082.215c.021.054.043.108.065.162.03.072.061.143.093.215.023.051.045.1.068.153.035.074.071.148.107.221.023.045.044.091.067.136.044.086.091.17.137.255.017.031.033.062.05.092q.1.171.2.337c.016.026.033.05.05.076.054.084.109.168.165.251.026.038.053.075.08.112.049.069.1.137.148.2.03.04.061.08.092.119.049.063.1.125.148.186l.1.119q.075.089.153.175l.105.115c.025.027.05.056.075.082H9.048a6.318,6.318,0,0,1-6.19-5.418H56.434ZM74.676,61.654c0-.009,0-.019,0-.028.006-.042.014-.083.021-.124.01-.058.02-.116.031-.174s.019-.088.028-.131.024-.108.037-.162.023-.09.035-.135.028-.1.043-.153.028-.091.043-.136.032-.1.049-.144.033-.093.05-.138.035-.09.053-.135.038-.094.058-.141.037-.083.056-.124.044-.1.068-.145.036-.07.054-.106c.027-.052.053-.1.082-.156.011-.02.023-.039.034-.059a6.332,6.332,0,0,1,.415-.643l0-.006c.049-.066.1-.13.15-.194l.024-.031c.05-.062.1-.122.154-.182l.029-.033q.08-.09.163-.177l.027-.029q.086-.089.175-.175l.02-.019q.094-.089.192-.175l.007-.006a6.321,6.321,0,0,1,3-1.451h0q.139-.026.281-.046l.017,0q.135-.019.271-.031l.042,0c.083-.007.167-.013.251-.017l.147,0c.053,0,.105,0,.158,0a6.318,6.318,0,0,1,6.19,5.418H74.676Z" transform="translate(0 -53.51)"/>
      </g>
    </g>
    <g id="Group_89" data-name="Group 89" transform="translate(48.862 77.262)">
      <g id="Group_88" data-name="Group 88" transform="translate(0 0)">
        <path id="Path_206" data-name="Path 206" class="cls-1" d="M313.143,185.645c0-.016,0-.032,0-.048a1.357,1.357,0,0,0-.067-.369c0-.006,0-.012,0-.017l-.006-.014a1.377,1.377,0,0,0-.075-.173l-.011-.02a1.387,1.387,0,0,0-.089-.141l-.021-.029a1.358,1.358,0,0,0-.116-.134l-.028-.027a1.36,1.36,0,0,0-.124-.106l-.017-.014a1.391,1.391,0,0,0-.155-.1l-.031-.016a1.348,1.348,0,0,0-.169-.073h0a1.388,1.388,0,0,0-.18-.047l-.041-.007a1.362,1.362,0,0,0-.188-.019c-11.407-.3-26.281,2.451-33.8,11.035-3.291,3.757-4.81,8.523-6.278,13.132q-.18.566-.361,1.131c-.005.016-.01.032-.015.048l-2.3,8.183a1.363,1.363,0,1,0,2.625.739l2.137-7.589a42.44,42.44,0,0,1,7.557-2.569c1.474-.4,3.144-.855,5.166-1.477,4.37-1.344,12.754-6.968,16.613-11.143a93.169,93.169,0,0,1,9.495-9.075l.011-.01a1.364,1.364,0,0,0,.135-.13l.008-.008a1.354,1.354,0,0,0,.113-.149l.019-.029a1.356,1.356,0,0,0,.153-.338l.01-.034a1.363,1.363,0,0,0,.037-.182s0,0,0-.007c.005-.042.009-.085.01-.128C313.144,185.676,313.143,185.661,313.143,185.645Zm-33.076,11.48c3.173-3.622,8.037-6.353,14.455-8.116a53.469,53.469,0,0,1,5.427-1.177,105.45,105.45,0,0,0-11.889,6.919,109.055,109.055,0,0,0-11.842,9.053A22.374,22.374,0,0,1,280.067,197.125Zm21.085-3.193c-3.755,4.064-11.866,9.3-15.412,10.387-1.979.608-3.626,1.057-5.08,1.452-1.315.358-2.512.684-3.695,1.059.529-.507,1.15-1.075,1.881-1.713a109.076,109.076,0,0,1,10.728-8.1c6.881-4.6,13.108-7.823,17.676-9.222C305.267,189.623,303.315,191.591,301.152,193.932Z" transform="translate(-269.006 -184.272)"/>
      </g>
    </g>
  </g>
</svg>
