<svg id="crtv_logo" xmlns="http://www.w3.org/2000/svg" width="76.717" height="24.522" viewBox="0 0 76.717 24.522">
  <path id="Path_178" data-name="Path 178" d="M34.525,80a5.949,5.949,0,0,0-1.778-1.014,9.7,9.7,0,0,0-2.02-.485,11.533,11.533,0,0,0-2.106-.086c-.707.036-1.392.1-2.042.193a27.281,27.281,0,0,0-5.547,1.5A42.1,42.1,0,0,0,15.8,82.546a41.244,41.244,0,0,0-4.619,2.963,30.12,30.12,0,0,0-4.091,3.663c-.464.535-.957,1.15-1.485,1.849a10.753,10.753,0,0,0-1.292,2.2,6.533,6.533,0,0,0-.557,2.356,3.451,3.451,0,0,0,.714,2.249,2.589,2.589,0,0,0,1.485.942,8.207,8.207,0,0,0,2.042.243,14.017,14.017,0,0,0,2.128-.157c.7-.107,1.278-.178,1.742-.228a40.609,40.609,0,0,0,6.818-1.449q3.395-1.028,6.8-2.2t6.833-2.235a43.6,43.6,0,0,1,6.954-1.549c.186-.021.478-.043.871-.05a4.523,4.523,0,0,1,1.1.086,1.16,1.16,0,0,1,.735.421c.15.207.079.521-.228.942a.9.9,0,0,1-.557.386,5.66,5.66,0,0,1-.8.157c-.278.036-.557.057-.835.071s-.514.029-.7.05a51.861,51.861,0,0,0-6.783,1.656q-3.363,1.06-6.761,2.2T18.44,99.239a44.006,44.006,0,0,1-7.061,1.414c-.607.071-1.3.143-2.092.228a12.519,12.519,0,0,1-2.37.014,9.014,9.014,0,0,1-2.235-.485,3.378,3.378,0,0,1-1.671-1.292,4.54,4.54,0,0,1-1.1-2.4,6.992,6.992,0,0,1,.157-2.549,10.321,10.321,0,0,1,.978-2.492,16.448,16.448,0,0,1,1.428-2.2,29.489,29.489,0,0,1,5-4.934,46.766,46.766,0,0,1,5.876-3.891,43.622,43.622,0,0,1,6.433-2.913,22.425,22.425,0,0,1,6.89-1.307,14.12,14.12,0,0,1,3.106.207,8.44,8.44,0,0,1,2.856,1.078c.257.143.543.314.857.521a1.258,1.258,0,0,1,.578.735.821.821,0,0,1-.036.628,1.088,1.088,0,0,1-.386.436.994.994,0,0,1-.557.157A.762.762,0,0,1,34.525,80Z" transform="translate(-1.859 -76.422)" fill="#7f7f7f"/>
  <path id="Path_179" data-name="Path 179" d="M532.662,260.238a1,1,0,0,1,.907.421,1.454,1.454,0,0,1,.143.907,7.065,7.065,0,0,0,1.5-1.742c.093-.143.179-.293.264-.45a2.385,2.385,0,0,1,.279-.45,1.209,1.209,0,0,1,.364-.328.869.869,0,0,1,.521-.086.745.745,0,0,1,.664.45,2.331,2.331,0,0,1,.143.8c.114.236.421.393.907.471a12.017,12.017,0,0,0,1.621.143c.593.014,1.157,0,1.692-.036s.907-.05,1.114-.05a5.382,5.382,0,0,0,.714-.05c.264-.036.543-.064.821-.086a4.236,4.236,0,0,1,.8.014,1.374,1.374,0,0,1,.664.264.968.968,0,0,1,.364.507.941.941,0,0,1-.014.578,1.153,1.153,0,0,1-.328.471.858.858,0,0,1-.578.193,3.667,3.667,0,0,1-1.2.086,7.544,7.544,0,0,0-1.2-.014h-1.885c-.628,0-1.257-.021-1.885-.071a10.562,10.562,0,0,1-1.392-.243,3.775,3.775,0,0,1-1.292-.557c-.257.3-.521.6-.8.892s-.557.564-.835.821-.571.514-.871.785a2.386,2.386,0,0,1-1.049.543,1.191,1.191,0,0,1-1.257-.314,1.04,1.04,0,0,1-.278-.578,1.6,1.6,0,0,1,.05-.607c.057-.207.128-.421.207-.628s.157-.407.229-.593a1.131,1.131,0,0,1,.071-.942A.815.815,0,0,1,532.662,260.238Z" transform="translate(-493.47 -245.503)" fill="#7f7f7f"/>
  <path id="Path_180" data-name="Path 180" d="M580.91,130.3c-.721.607-1.428,1.2-2.128,1.8s-1.385,1.192-2.056,1.8c.671,0,1.371-.007,2.092-.014s1.449,0,2.178.036a15.756,15.756,0,0,1,2.128.243,8.26,8.26,0,0,1,1.935.607,1.948,1.948,0,0,1,.664.486,1.52,1.52,0,0,1,.35.8.855.855,0,0,1-.228.714,1.089,1.089,0,0,1-.607.314,1.072,1.072,0,0,1-.664-.107.827.827,0,0,1-.421-.543,3.116,3.116,0,0,0-1.414-.421c-.571-.043-1.042-.093-1.414-.143-.671-.071-1.342-.129-2.006-.171s-1.328-.079-2.006-.107c-.393-.021-.785-.043-1.171-.05s-.771-.014-1.171-.014l-.35.314c-.957.907-1.956,1.892-3.013,2.949a13.023,13.023,0,0,0-2.492,3.4,12,12,0,0,0,2.392-.821c.778-.357,1.563-.678,2.356-.957.464-.164.935-.307,1.414-.436a9.081,9.081,0,0,1,1.449-.264,1.462,1.462,0,0,1,.628.071,1.276,1.276,0,0,1,.521.314.919.919,0,0,1,.264.507.846.846,0,0,1-.193.643,1.066,1.066,0,0,1-.835.421,5.174,5.174,0,0,0-.978.143,10.65,10.65,0,0,0-1.849.521c-.607.236-1.207.478-1.813.735s-1.257.521-1.949.8a5.166,5.166,0,0,1-2.092.386c-.764-.05-1.235-.257-1.392-.628a1.841,1.841,0,0,1,.086-1.414,8.921,8.921,0,0,1,1.028-1.849,22.634,22.634,0,0,1,1.485-1.9c.521-.607,1.007-1.135,1.449-1.585s.735-.75.871-.892c.093-.093.171-.179.243-.264a1.878,1.878,0,0,1,.243-.228h-1.985c-.65,0-1.314.014-1.985.036-1.349.05-2.692.107-4.027.193s-2.677.193-4.027.328c-.485.071-.971.136-1.449.193a11.941,11.941,0,0,0-1.449.264,2.676,2.676,0,0,0-.385.107.514.514,0,0,1-.386,0,.51.51,0,0,1,0-.978,44.219,44.219,0,0,1,8.61-1.392q4.434-.278,8.753-.35c.607-.557,1.207-1.107,1.813-1.642s1.221-1.071,1.849-1.606c.3-.278.657-.635,1.064-1.064a2.855,2.855,0,0,1,1.235-.821.8.8,0,0,1,1.007.4.982.982,0,0,1,.107.578A.907.907,0,0,1,580.91,130.3Zm3.384,6.24c-.05-.043-.078-.071-.107-.071C584.194,136.519,584.222,136.54,584.294,136.54Z" transform="translate(-516.794 -124.975)" fill="#7f7f7f"/>
  <path id="Path_181" data-name="Path 181" d="M836.917,273.5a1.354,1.354,0,0,1,.75.171,1.049,1.049,0,0,1,.385.486,1.906,1.906,0,0,1,.121.678c0,.243-.014.485-.036.714a4.1,4.1,0,0,0,1.606-.4,16.273,16.273,0,0,0,1.535-.835c.514-.314,1.021-.607,1.535-.892a5.116,5.116,0,0,1,1.571-.557,6.573,6.573,0,0,1,1.357-.071,13.967,13.967,0,0,1,1.414.143c.478.071.942.143,1.392.228s.9.143,1.342.193a4.09,4.09,0,0,0,.678.014,7.482,7.482,0,0,1,.8,0,6.4,6.4,0,0,1,.764.086,1.567,1.567,0,0,1,.607.243,1.04,1.04,0,0,1,.385.643.9.9,0,0,1-.171.714.862.862,0,0,1-.735.385h-.871a13.247,13.247,0,0,1-1.671-.171c-.557-.093-1.114-.179-1.671-.264s-1.114-.15-1.671-.207a8.43,8.43,0,0,0-1.642-.014,8.642,8.642,0,0,0-1.449.486q-.718.311-1.414.664c-.464.236-.921.464-1.378.7a9.519,9.519,0,0,1-1.414.593,6.516,6.516,0,0,1-.893.228,1.912,1.912,0,0,1-.921-.05c-.578-.186-.9-.485-.957-.892a4.73,4.73,0,0,1,.014-1.307,1.088,1.088,0,0,1-.264-1.064,1,1,0,0,1,.3-.45A.865.865,0,0,1,836.917,273.5Z" transform="translate(-776.42 -258.769)" fill="#7f7f7f"/>
</svg>
