<?xml version="1.0" encoding="utf-8"?>
<!-- Generator: Adobe Illustrator 22.0.1, SVG Export Plug-In . SVG Version: 6.00 Build 0)  -->
<svg version="1.1" id="Layer_1" xmlns="http://www.w3.org/2000/svg" xmlns:xlink="http://www.w3.org/1999/xlink" x="0px" y="0px"
	 viewBox="0 0 1179.7 318.3" style="enable-background:new 0 0 1179.7 318.3;" xml:space="preserve">
<style type="text/css">
	.st0{fill:#7F7F7F;}
	.st1{fill:none;stroke:#7F7F7F;stroke-width:9;stroke-miterlimit:10;}
</style>
<g>
	<g>
		<g>
			<path class="st0" d="M56.7,224L53,206.2c-4.1-14.5-13.8-35.6-22.3-48.1l-11-16.3c-0.5-0.7,0-1.7,0.9-1.7l0,0
				c0.2,0,0.5,0.1,0.7,0.2c16.2,12.1,25.7,30.9,30.2,50.1l0.9,2.9c3.2,9.9,4.7,20.3,4.6,30.7l0,0C57,224.1,56.8,224.2,56.7,224z"/>
			<path class="st0" d="M64.5,221.9l-2.9-29.5c-3.8-24.2-14.4-59.7-24.2-81L24.6,83.6c-0.6-1.3,0.2-2.8,1.4-2.8l0,0
				c0.3,0,0.6,0.2,0.9,0.4c20.2,21.3,30.7,53.1,34.5,84.9l0.9,4.9c3.1,16.6,4,33.7,2.6,50.8l0,0C64.9,222.2,64.5,222.2,64.5,221.9z"
				/>
			<path class="st0" d="M50.3,165.8l-3.4-8.4c-3.3-6.8-10.1-16.3-15.3-21.6l-6.9-7c-0.3-0.3-0.1-0.9,0.3-0.9l0,0c0.1,0,0.2,0,0.4,0
				c9.1,4.5,15.5,12.9,19.4,21.9l0.7,1.4c2.5,4.6,4.2,9.5,5,14.7l0,0C50.5,165.9,50.4,165.9,50.3,165.8z"/>
			<path class="st0" d="M135.1,224l3.7-17.8c4-14.5,13.7-35.6,22-48.1l10.9-16.3c0.5-0.7,0-1.7-0.9-1.7l0,0c-0.2,0-0.5,0.1-0.7,0.2
				c-16.1,12.1-25.5,30.9-29.9,50.1l-0.9,2.9c-3.1,9.9-4.7,20.3-4.5,30.7l0,0C134.8,224.1,135.1,224.2,135.1,224z"/>
			<path class="st0" d="M125.5,226.4l2.2-31.8c3.6-26.2,15.8-65.4,27.7-89.3L171,74.1c0.7-1.4-0.5-3-2.1-2.8l0,0
				c-0.4,0.1-0.8,0.3-1.2,0.6c-26,25.2-38.3,60.4-41.5,94.7l-0.9,5.3c-3.1,18-3.3,36.4-0.4,54.5l0,0
				C125,226.7,125.5,226.7,125.5,226.4z"/>
			<path class="st0" d="M101.5,220.8l0.4-37.1c1.9-30.5,10.8-75.9,20.1-103.4l12.3-35.9c0.6-1.6-0.6-3.5-2-3.3l0,0
				c-0.4,0.1-0.7,0.3-1,0.6c-21.7,28.5-30.8,69.1-32,109.2l-0.6,6.2c-1.9,21-1.1,42.5,2.3,63.7l0,0
				C101.1,221.2,101.5,221.2,101.5,220.8z"/>
			<path class="st0" d="M110.8,222.6v-17.9c0.6-14.7,3.9-36.4,7.4-49.5l4.6-17.1c0.2-0.8-0.2-1.7-0.8-1.6l0,0
				c-0.1,0-0.3,0.1-0.4,0.3c-8.4,13.3-11.8,32.7-12,52.1l-0.2,3c-0.6,10.1-0.2,20.5,1.2,30.8l0,0
				C110.6,222.7,110.8,222.7,110.8,222.6z"/>
			<path class="st0" d="M72.6,224.5l1.9-12.9c0.9-10.8-0.4-27.4-2.9-37.9L68.3,160c-0.1-0.6,0.5-1.2,1-0.9l0,0
				c0.2,0.1,0.3,0.2,0.4,0.3c7.8,12.1,9.5,27.2,7.7,41.2l-0.1,2.2c-0.4,7.5-1.9,14.8-4.6,21.8l0,0C72.7,224.6,72.6,224.6,72.6,224.5
				z"/>
			<path class="st0" d="M83.4,212.9l1.7-28.3c0-23.5-5-58.9-11.4-80.7l-8.4-28.5c-0.4-1.3,0.7-2.7,1.9-2.4l0,0
				c0.3,0.1,0.6,0.3,0.8,0.6c16.8,23.6,22.3,55.5,21.1,86.2l0.1,4.8c0.5,16.2-1.3,32.5-5.4,48.4l0,0
				C83.7,213.2,83.4,213.2,83.4,212.9z"/>
			<polygon class="st0" points="31.5,78.7 24.5,78.7 20.6,84.6 18.3,77.8 11.6,75.8 17.1,71.6 16.8,64.5 22.5,68.7 29.1,66.3 
				27.1,73.1 			"/>
			<polygon class="st0" points="22.5,136.6 17.5,138 16.1,143 12.8,138.5 7.5,138.4 10.5,134.2 8.5,129.1 13.6,131 17.8,127.9 
				18,133.3 			"/>
			<polygon class="st0" points="26.7,125.3 23.9,126.1 23.1,129 21.2,126.4 18.1,126.3 19.9,123.9 18.7,121 21.7,122.1 24,120.4 
				24.2,123.4 			"/>
			<polygon class="st0" points="71.2,157.8 68.2,157.7 66.6,160.2 65.6,157.2 62.7,156.2 65,154.5 64.9,151.3 67.3,153.3 
				70.1,152.3 69.3,155.3 			"/>
			<polygon class="st0" points="70.3,69.7 64.5,70.3 61.8,75.4 59.4,70.2 53.7,69.1 58,65.2 57.2,59.5 62.2,62.4 67.4,59.8 
				66.3,65.5 			"/>
			<polygon class="st0" points="142,46.5 134.4,38.1 123.2,39.7 128.7,29.9 123.7,19.7 134.8,21.9 143,14.1 144.3,25.3 154.3,30.6 
				144,35.3 			"/>
			<polygon class="st0" points="176.5,75.1 171,69.1 162.9,70.3 166.9,63.2 163.4,55.9 171.4,57.5 177.2,51.8 178.1,59.9 
				185.3,63.7 177.9,67.1 			"/>
			<polygon class="st0" points="177.1,143 174,137.8 167.9,137.4 171.9,132.8 170.4,126.9 176,129.3 181.2,126 180.6,132.1 
				185.3,136 179.4,137.3 			"/>
			<polygon class="st0" points="127.2,137.7 124.7,134.1 120.2,133.5 122.9,130.6 121.5,126.6 125.7,128.5 129.2,126.5 129.2,130.6 
				132.7,133.4 128.5,134 			"/>
			<polygon class="st0" points="66.5,116.6 63,115.7 60.3,118.1 60,114.5 56.9,112.7 60.3,111.3 61,107.8 63.4,110.6 67,110.2 
				65.1,113.3 			"/>
			<polygon class="st0" points="27.2,104.3 23.6,104.8 22,108 20.4,104.7 16.9,104.1 19.5,101.6 19,98 22.2,99.8 25.4,98.2 
				24.7,101.7 			"/>
			<polygon class="st0" points="54.6,87.4 49.8,88.2 47.3,92.4 45.4,88.3 40.7,87.7 44.4,84.3 43.9,79.7 48.1,81.8 52.6,79.5 
				51.4,84.2 			"/>
			<polygon class="st0" points="48,54.5 44.5,54.7 43.1,57.8 41.5,54.5 38,53.7 40.4,51.4 39.8,47.8 42.9,49.7 45.9,48.3 45.4,51.8 
							"/>
			<polygon class="st0" points="97.7,84 94.4,80.4 89.6,81.1 92,76.9 89.8,72.5 94.6,73.5 98.1,70.1 98.6,74.9 102.9,77.2 
				98.5,79.2 			"/>
			<polygon class="st0" points="92.8,51.3 87.4,46 79.9,47.4 83.3,40.6 79.6,34 87.1,35.1 92.3,29.6 93.6,37.1 100.4,40.3 
				93.7,43.8 			"/>
			<polygon class="st0" points="169,117.8 167.7,114.7 164.2,114.3 166.9,111.7 166.5,108.2 169.5,109.7 172.7,107.9 171.9,111.4 
				174.2,113.8 170.7,114.5 			"/>
			<polygon class="st0" points="134,97.4 131.9,94.7 128.5,95.2 130.4,92 129.2,88.7 132.4,89.4 135.1,86.8 135.2,90.5 138.1,92.2 
				134.9,93.8 			"/>
			<polygon class="st0" points="144.3,73.4 141.4,69.6 136.6,70.3 139.3,65.8 137.5,61.1 142.1,62.2 145.8,58.6 146,63.7 150,66.2 
				145.5,68.3 			"/>
			<polygon class="st0" points="70.4,31.3 67.9,31.1 66.3,33 65.8,30.7 63.5,29.8 65.6,28.6 65.8,26.2 67.7,27.7 70.1,27 69.1,29.3 
							"/>
			<polygon class="st0" points="105.9,23.5 103.8,22.2 101.5,23.1 102.2,20.8 100.5,18.9 103,18.8 104.4,16.8 105.3,19.1 
				107.7,19.6 105.7,21.1 			"/>
			<polygon class="st0" points="155.1,195.1 153,193.8 150.6,194.7 151.3,192.4 149.7,190.5 152.2,190.4 153.5,188.4 154.4,190.7 
				156.8,191.2 154.9,192.7 			"/>
			<polygon class="st0" points="187.2,103.9 185.1,102.6 182.7,103.5 183.4,101.2 181.8,99.3 184.3,99.2 185.6,97.2 186.5,99.5 
				188.9,100 187,101.5 			"/>
			<polygon class="st0" points="15.5,103.5 13,104 11.9,106.2 10.8,104 8.4,103.8 10.2,102 9.8,99.6 12,100.7 14.2,99.5 13.7,101.9 
							"/>
			<polygon class="st0" points="48.4,36.4 46.9,36.7 46.1,38.1 45.5,36.7 43.9,36.5 45.1,35.4 44.8,33.9 46.2,34.6 47.6,33.8 
				47.3,35.4 			"/>
			<polygon class="st0" points="162.9,44.8 161.4,45 160.7,46.5 160,45.1 158.4,44.9 159.6,43.8 159.3,42.3 160.7,43 162.1,42.2 
				161.8,43.7 			"/>
			<polygon class="st0" points="178.9,92.6 177.3,92.8 176.6,94.3 175.9,92.9 174.4,92.7 175.5,91.6 175.3,90.1 176.6,90.8 178,90 
				177.8,91.5 			"/>
			<polygon class="st0" points="114,46.9 112.5,47.2 111.8,48.6 111.1,47.2 109.5,47 110.7,45.9 110.4,44.4 111.8,45.1 113.2,44.3 
				112.9,45.9 			"/>
			<polygon class="st0" points="33.7,49.4 32.2,49.7 31.5,51.1 30.8,49.7 29.2,49.6 30.4,48.4 30.1,46.9 31.5,47.6 32.9,46.8 
				32.6,48.4 			"/>
			<polygon class="st0" points="85.7,20.6 84.2,20.9 83.4,22.3 82.8,20.9 81.2,20.8 82.4,19.6 82.1,18.1 83.5,18.8 84.9,18 
				84.6,19.6 			"/>
			<polygon class="st0" points="167.6,170.9 166.3,167.7 162.9,167.3 165.5,164.7 165.1,161.2 168.1,162.7 171.3,160.9 170.5,164.5 
				172.9,166.9 169.4,167.6 			"/>
			<polygon class="st0" points="36.3,191.8 38.3,190.4 40.4,191.3 39.8,189 41.3,187.2 39,187.1 37.8,185.1 37,187.3 34.7,187.9 
				36.5,189.4 			"/>
			<polygon class="st0" points="71.2,136.7 72.4,134.3 74.4,133.6 73.2,132 73.9,129.5 72,130.9 70.4,130 70.4,132.5 68.7,134.5 
				70.6,134.5 			"/>
			<polygon class="st0" points="26.1,165.9 24.2,164.7 22.2,165.6 22.7,163.4 21.3,161.8 23.5,161.6 24.6,159.8 25.4,161.8 
				27.6,162.3 25.9,163.7 			"/>
			<polygon class="st0" points="9.8,116.2 8.8,116.2 8.2,117.1 7.9,116.1 6.9,115.9 7.7,115.2 7.6,114.2 8.5,114.8 9.5,114.4 
				9.2,115.4 			"/>
			<polygon class="st0" points="173.6,149.9 172.6,149 171.3,149.3 171.8,148.1 171.1,146.9 172.5,147 173.3,146 173.6,147.3 
				174.9,147.8 173.7,148.5 			"/>
			<polygon class="st0" points="183.1,115.3 182.3,113.9 180.6,113.8 181.7,112.6 181.3,110.9 182.8,111.6 184.2,110.7 184.1,112.4 
				185.4,113.4 183.8,113.8 			"/>
		</g>
		<g>
			<path class="st0" d="M135.1,243.3H60.7c-2.6,0-4.8-2.1-4.8-4.8l0,0c0-2.6,2.1-4.8,4.8-4.8h74.4c2.6,0,4.8,2.1,4.8,4.8l0,0
				C139.8,241.2,137.7,243.3,135.1,243.3z"/>
			<path class="st1" d="M79.9,280.8c0,9.9,8,17.9,17.9,17.9s17.9-8,17.9-17.9"/>
			<path class="st0" d="M134,259H61.7c-2.6,0-4.8-2.1-4.8-4.8l0,0c0-2.6,2.1-4.8,4.8-4.8H134c2.6,0,4.8,2.1,4.8,4.8l0,0
				C138.8,256.9,136.6,259,134,259z"/>
			<path class="st0" d="M130.6,274.7H65.3c-2.6,0-4.8-2.1-4.8-4.8l0,0c0-2.6,2.1-4.8,4.8-4.8h65.3c2.6,0,4.8,2.1,4.8,4.8l0,0
				C135.3,272.5,133.2,274.7,130.6,274.7z"/>
		</g>
		<path class="st0" d="M118.3,279h-5c-1.1,0-2,0.9-2,2l0,0h9l0,0C120.3,279.9,119.4,279,118.3,279z"/>
		<path class="st0" d="M82.4,279h-5c-1.1,0-2,0.9-2,2l0,0h9l0,0C84.4,279.9,83.5,279,82.4,279z"/>
	</g>
	<g>
		<path class="st0" d="M261.1,144.3H294v29.3h-32.9V210h-35.4V102.9h72.8v30.3h-36.9L261.1,144.3L261.1,144.3z"/>
		<path class="st0" d="M313.7,102.9H350V210h-36.4V102.9H313.7z"/>
		<path class="st0" d="M370.3,102.9h46c5.1,0,10.6,0.5,15.7,1.5s10.1,3,14.2,5.6c4,2.5,7.6,6.1,10.1,10.6s4,10.1,4,16.7
			s-1.5,12.1-5.1,17.2c-3,5.1-8.1,9.1-14.2,11.6l27.3,43.5h-41.5l-20.7-38.4h-1v38.4h-34.9L370.3,102.9L370.3,102.9z M405.1,147.8
			h7.1c1,0,2.5,0,4-0.5c1.5,0,3-0.5,4-1.5c1-0.5,2.5-1.5,3-2.5c1-1,1.5-2.5,1.5-4.5s-0.5-3.5-1-4.5s-1.5-2-2.5-2.5s-2.5-1-3.5-1
			c-1.5,0-2.5,0-3.5,0h-8.6V148h-0.5V147.8z"/>
		<path class="st0" d="M478.4,102.9h73.8v29.8h-39.9v9.1h37.4v28.3h-37.4v10.1h42.5V210h-76.3V102.9H478.4z"/>
		<path class="st0" d="M625.5,210h-36.4l-29.3-107.2h38.4l11.6,60.2h0.5l12.6-60.2h37.9l13.6,60.2h0.5l11.6-60.2h36.9L693.8,210
			h-36.4l-15.2-60.7h-0.5L625.5,210z"/>
		<path class="st0" d="M726.6,155.9c0-8.6,1.5-16.2,4.5-23.3c3-7.1,7.1-12.6,12.6-17.7c5.6-5.1,11.6-8.6,18.7-11.1
			c7.1-2.5,15.2-4,23.8-4s16.2,1.5,23.8,4c7.1,2.5,13.6,6.6,19.2,11.1c5.6,5.1,9.6,10.6,12.6,17.7c3,7.1,4.5,14.7,4.5,23.3
			s-1.5,16.2-4.5,23.8c-3,7.1-7.1,13.1-12.6,18.2c-5.6,5.1-11.6,9.1-19.2,11.6s-15.2,4-23.8,4s-16.2-1.5-23.8-4
			c-7.1-2.5-13.6-6.6-18.7-11.6c-5.1-5.1-9.6-11.1-12.6-18.2C728.2,172.1,726.6,164.5,726.6,155.9z M765.1,155.9
			c0,3.5,0.5,6.6,1.5,9.6s2.5,5.6,4.5,7.6s4,3.5,6.6,5.1c2.5,1,5.6,1.5,8.6,1.5s6.1-0.5,8.6-1.5s5.1-3,6.6-5.1c2-2,3.5-4.5,4.5-7.6
			c1-3,1.5-6.1,1.5-9.6s-0.5-6.6-1.5-9.6s-2.5-5.1-4.5-7.1s-4-3.5-6.6-4.5c-2.5-1-5.6-1.5-8.6-1.5s-6.1,0.5-8.6,1.5
			s-5.1,2.5-6.6,4.5c-2,2-3.5,4.5-4.5,7.1S765.1,152.4,765.1,155.9z"/>
		<path class="st0" d="M861.1,102.9h46.5c5.1,0,10.6,0.5,15.7,1.5c5.1,1,10.1,3,14.2,5.6c4,2.5,7.6,6.1,10.1,10.6s4,10.1,4,16.7
			s-1.5,12.1-5.1,17.2c-3,5.1-8.1,9.1-14.2,11.6l27.3,43.5h-41.5l-20.7-38.4h-1v38.4h-34.9V102.9H861.1L861.1,102.9z M896,147.8h7.1
			c1,0,2.5,0,4-0.5c1.5,0,3-0.5,4-1.5c1-0.5,2.5-1.5,3-2.5c1-1,1.5-2.5,1.5-4.5s-0.5-3.5-1-4.5s-1.5-2-2.5-2.5s-2.5-1-3.5-1
			c-1.5,0-2.5,0-3.5,0h-8.6V148H896V147.8z"/>
		<path class="st0" d="M1004.7,167.6L1004.7,167.6l-0.5,43h-34.9V103.4h34.9v39.4h0.5l28.8-39.4h42.5l-40.4,49l42.5,58.1h-44.5
			L1004.7,167.6z"/>
		<path class="st0" d="M1120.4,213.1c-4.5,0-8.6-0.5-12.6-1c-4-1-8.1-2-12.1-3.5s-7.6-3-11.1-5.1c-3.5-2-6.6-4-9.1-6.6l22.2-23.8
			c2.5,2.5,6.1,5.1,10.1,7.1s8.6,3,13.1,3c2,0,4-0.5,5.6-1c1.5-0.5,2.5-2,2.5-4c0-1-0.5-2-1-2.5s-1.5-1.5-3-2s-3.5-1.5-6.1-2.5
			c-2.5-1-5.6-2-9.1-3s-7.1-2.5-10.6-4.5c-3.5-1.5-6.1-3.5-9.1-6.1c-2.5-2.5-4.5-5.6-6.1-8.6c-1.5-3-2.5-7.6-2.5-12.1
			c0-6.6,1.5-12.1,4-17.2s6.1-8.6,10.6-11.6c4-3,9.1-5.1,14.7-6.6s10.6-2,15.7-2c7.1,0,14.2,1.5,21.7,4c7.6,2.5,13.6,6.6,19.2,11.6
			l-22.2,22.7c-2.5-3-5.6-5.6-9.1-7.1s-6.6-2.5-9.6-2.5c-2.5,0-4.5,0.5-6.6,1c-1.5,1-2.5,2-2.5,3.5s1,3,2.5,3.5c1.5,1,4.5,2,8.1,3
			c4,1,8.1,2.5,12.1,4s8.1,3.5,11.6,6.1c3.5,2.5,6.6,5.6,9.1,9.6s3.5,8.6,3.5,14.2c0,6.6-1.5,12.1-4,16.7
			c-2.5,4.5-6.1,8.6-10.1,12.1c-4,3-9.1,5.6-14.2,7.1C1131,212.6,1126,213.1,1120.4,213.1z"/>
	</g>
</g>
</svg>
