<?xml version="1.0" encoding="utf-8"?>
<!-- Generator: Adobe Illustrator 22.0.1, SVG Export Plug-In . SVG Version: 6.00 Build 0)  -->
<svg version="1.1" id="Layer_1" xmlns="http://www.w3.org/2000/svg" xmlns:xlink="http://www.w3.org/1999/xlink" x="0px" y="0px"
	 viewBox="0 0 1124 149.9" style="enable-background:new 0 0 1124 149.9;" xml:space="preserve">
<g>
	<g>
		<path d="M65.9,62.8h37.5v33.5H65.9v41.6H25.5V15.5h83.1v34.6H66.5L65.9,62.8L65.9,62.8z"/>
		<path d="M126,15.5h41.6v122.4H126V15.5z"/>
		<path d="M190.6,15.5h52.5c5.8,0,12.1,0.6,17.9,1.7c5.8,1.2,11.5,3.5,16.2,6.3c4.6,2.9,8.7,6.9,11.5,12.1c2.9,5.2,4.6,11.5,4.6,19
			s-1.7,13.9-5.8,19.6c-3.5,5.8-9.2,10.4-16.2,13.3l31.2,49.6h-47.3l-23.7-43.9h-1.2v43.9h-39.8L190.6,15.5L190.6,15.5z M230.4,66.9
			h8.1c1.2,0,2.9,0,4.6-0.6c1.7,0,3.5-0.6,4.6-1.7c1.2-0.6,2.9-1.7,3.5-2.9c1.2-1.2,1.7-2.9,1.7-5.2c0-2.3-0.6-4-1.2-5.2
			c-0.6-1.2-1.7-2.3-2.9-2.9s-2.9-1.2-4-1.2c-1.7,0-2.9,0-4,0H231v19.6H230.4z"/>
		<path d="M314.1,15.5h84.3v34.1h-45.6V60h42.7v32.3h-42.7v11.5h48.5v34.1h-87.2V15.5z"/>
		<path d="M482.1,137.9h-41.6L407.1,15.5h43.9l13.3,68.7h0.6l14.4-68.7h43.3l15.6,68.7h0.6L552,15.5h42.1L560,137.9h-41.6
			l-17.3-69.3h-0.6L482.1,137.9z"/>
		<path d="M598.6,76.1c0-9.8,1.7-18.5,5.2-26.6c3.5-8.1,8.1-14.4,14.4-20.2s13.3-9.8,21.4-12.7s17.3-4.6,27.1-4.6s18.5,1.7,27.1,4.6
			c8.1,2.9,15.6,7.5,21.9,12.7c6.3,5.8,11,12.1,14.4,20.2c3.5,8.1,5.2,16.7,5.2,26.6s-1.7,18.5-5.2,27.1c-3.5,8.1-8.1,15-14.4,20.8
			c-6.3,5.8-13.3,10.4-21.9,13.3c-8.7,2.9-17.3,4.6-27.1,4.6s-18.5-1.7-27.1-4.6c-8.1-2.9-15.6-7.5-21.4-13.3
			c-5.8-5.8-11-12.7-14.4-20.8C600.3,94.6,598.6,85.9,598.6,76.1z M642.4,76.1c0,4,0.6,7.5,1.7,11c1.2,3.5,2.9,6.3,5.2,8.7
			c2.3,2.3,4.6,4,7.5,5.8c2.9,1.2,6.3,1.7,9.8,1.7c3.5,0,6.9-0.6,9.8-1.7c2.9-1.2,5.8-3.5,7.5-5.8c2.3-2.3,4-5.2,5.2-8.7
			c1.2-3.5,1.7-6.9,1.7-11c0-4-0.6-7.5-1.7-11c-1.2-3.5-2.9-5.8-5.2-8.1c-2.3-2.3-4.6-4-7.5-5.2c-2.9-1.2-6.3-1.7-9.8-1.7
			c-3.5,0-6.9,0.6-9.8,1.7c-2.9,1.2-5.8,2.9-7.5,5.2c-2.3,2.3-4,5.2-5.2,8.1C643,68,642.4,72.1,642.4,76.1z"/>
		<path d="M751.1,15.5h53.1c5.8,0,12.1,0.6,17.9,1.7c5.8,1.2,11.5,3.5,16.2,6.3c4.6,2.9,8.7,6.9,11.5,12.1c2.9,5.2,4.6,11.5,4.6,19
			s-1.7,13.9-5.8,19.6c-3.5,5.8-9.2,10.4-16.2,13.3l31.2,49.6h-47.3l-23.7-43.9h-1.2v43.9h-39.8V15.5L751.1,15.5L751.1,15.5z
			 M790.9,66.9h8.1c1.2,0,2.9,0,4.6-0.6c1.7,0,3.5-0.6,4.6-1.7c1.2-0.6,2.9-1.7,3.5-2.9c1.2-1.2,1.7-2.9,1.7-5.2
			c0-2.3-0.6-4-1.2-5.2c-0.6-1.2-1.7-2.3-2.9-2.9s-2.9-1.2-4-1.2c-1.7,0-2.9,0-4,0h-9.8v19.6H790.9z"/>
		<path d="M915,89.4L915,89.4l-0.6,49.1h-39.8V16.1h39.8v45h0.6l32.9-45h48.5l-46.2,56l48.5,66.4h-50.8L915,89.4z"/>
		<path d="M1047.2,141.3c-5.2,0-9.8-0.6-14.4-1.2c-4.6-1.2-9.2-2.3-13.9-4c-4.6-1.7-8.7-3.5-12.7-5.8c-4-2.3-7.5-4.6-10.4-7.5
			l25.4-27.1c2.9,2.9,6.9,5.8,11.5,8.1s9.8,3.5,15,3.5c2.3,0,4.6-0.6,6.3-1.2c1.7-0.6,2.9-2.3,2.9-4.6c0-1.2-0.6-2.3-1.2-2.9
			c-0.6-0.6-1.7-1.7-3.5-2.3c-1.7-0.6-4-1.7-6.9-2.9c-2.9-1.2-6.3-2.3-10.4-3.5c-4-1.2-8.1-2.9-12.1-5.2c-4-1.7-6.9-4-10.4-6.9
			c-2.9-2.9-5.2-6.3-6.9-9.8s-2.9-8.7-2.9-13.9c0-7.5,1.7-13.9,4.6-19.6c2.9-5.8,6.9-9.8,12.1-13.3c4.6-3.5,10.4-5.8,16.7-7.5
			c6.3-1.7,12.1-2.3,17.9-2.3c8.1,0,16.2,1.7,24.8,4.6s15.6,7.5,21.9,13.3l-25.4,26c-2.9-3.5-6.3-6.3-10.4-8.1
			c-4-1.7-7.5-2.9-11-2.9c-2.9,0-5.2,0.6-7.5,1.2c-1.7,1.2-2.9,2.3-2.9,4c0,1.7,1.2,3.5,2.9,4c1.7,1.2,5.2,2.3,9.2,3.5
			c4.6,1.2,9.2,2.9,13.9,4.6c4.6,1.7,9.2,4,13.3,6.9c4,2.9,7.5,6.3,10.4,11s4,9.8,4,16.2c0,7.5-1.7,13.9-4.6,19
			c-2.9,5.2-6.9,9.8-11.5,13.9c-4.6,3.5-10.4,6.3-16.2,8.1C1059.3,140.8,1053.6,141.3,1047.2,141.3z"/>
	</g>
</g>
</svg>
