<?xml version="1.0" encoding="utf-8"?>
<!-- Generator: Adobe Illustrator 22.0.1, SVG Export Plug-In . SVG Version: 6.00 Build 0)  -->
<svg version="1.1" id="Layer_1" xmlns="http://www.w3.org/2000/svg" xmlns:xlink="http://www.w3.org/1999/xlink" x="0px" y="0px"
	 viewBox="0 0 1366 768" style="enable-background:new 0 0 1366 768;" xml:space="preserve">
<style type="text/css">
	.st0{stroke:#3D3C3C;stroke-width:5;stroke-miterlimit:10;}
	.st1{stroke:#F9F7F7;stroke-width:4;stroke-miterlimit:10;}
</style>
<g>
	<path d="M782.6,470.2h-130c-1.3,0-2.5-1.2-2.5-2.5v-10.3c0-1.3,1.2-2.5,2.5-2.5h130c1.3,0,2.5,1.2,2.5,2.5v10.3
		C785.1,469.2,784,470.2,782.6,470.2z"/>
	<path class="st0" d="M897.4,225.9"/>
	<path class="st1" d="M688.8,530.5c0,16,13,28.8,28.8,28.8c15.8,0,28.8-13,28.8-28.8"/>
	<path d="M651.5,442.3l-6-28.5c-6.6-23.3-22.3-57.4-35.9-77.6l-17.8-26.3c-0.7-1.2,0-2.8,1.5-2.8l0,0c0.4,0,0.7,0.1,1,0.3
		c26.2,19.4,41.4,49.8,48.6,80.6l1.5,4.8c5.1,16,7.6,32.7,7.3,49.5l0,0C652,442.6,651.5,442.6,651.5,442.3z"/>
	<path d="M664.1,438.9l-4.8-47.4c-6.1-38.9-23.2-96.2-38.9-130.5l-20.6-44.8c-0.9-2.1,0.4-4.6,2.2-4.5l0,0c0.6,0,1,0.3,1.3,0.7
		c32.6,34.4,49.5,85.5,55.6,136.7l1.5,7.9c4.9,26.8,6.4,54.3,4.2,81.8l0,0C664.7,439.5,664.1,439.5,664.1,438.9z"/>
	<path d="M641.2,348.7l-5.5-13.5c-5.4-10.9-16.1-26.2-24.7-34.8L600,289.1c-0.4-0.4-0.3-1.3,0.4-1.5l0,0c0.1,0,0.4,0,0.6,0.1
		c14.6,7.2,25,20.8,31.2,35.3l1.2,2.2c3.9,7.3,6.7,15.4,8.1,23.6l0,0C641.5,348.7,641.2,348.9,641.2,348.7z"/>
	<path d="M777.8,442.3l6-28.5c6.4-23.3,22.1-57.4,35.4-77.6l17.6-26.3c0.7-1.2,0-2.8-1.5-2.8l0,0c-0.4,0-0.7,0.1-1,0.3
		c-25.9,19.4-41.1,49.8-48.1,80.6l-1.5,4.8c-5.1,16-7.5,32.7-7.3,49.5l0,0C777.2,442.6,777.7,442.6,777.8,442.3z"/>
	<path d="M762.3,446.2l3.4-51.1c5.8-42.1,25.4-105.4,44.5-143.8l25.1-50.4c1.2-2.2-0.7-4.8-3.4-4.5l0,0c-0.7,0.1-1.3,0.4-1.9,0.9
		c-41.8,40.7-61.7,97.1-66.8,152.6l-1.5,8.7c-5.1,29-5.2,58.7-0.6,87.7l0,0C761.5,446.8,762.3,446.8,762.3,446.2z"/>
	<path d="M723.7,437.2l0.6-59.8c3.1-49.2,17.3-122.3,32.4-166.5l19.7-57.8c0.9-2.7-0.9-5.7-3.1-5.4l0,0c-0.6,0.1-1.2,0.4-1.6,1
		c-35,45.9-49.6,111.3-51.4,175.9l-0.9,10c-3,33.8-1.8,68.4,3.7,102.5l0,0C723,437.8,723.7,437.8,723.7,437.2z"/>
	<path d="M738.5,440.1v-28.8c1-23.6,6.3-58.7,12-79.7l7.5-27.5c0.3-1.2-0.4-2.8-1.3-2.7l0,0c-0.3,0-0.4,0.1-0.6,0.4
		c-13.5,21.4-19,52.8-19.4,83.8l-0.3,4.8c-1,16.3-0.4,33,1.9,49.6l0,0C738.4,440.4,738.5,440.4,738.5,440.1z"/>
	<path d="M677.1,443l3.1-20.8c1.5-17.3-0.6-44.2-4.6-61l-5.4-22.1c-0.3-1,0.7-1.9,1.6-1.5l0,0c0.3,0.1,0.4,0.3,0.6,0.4
		c12.6,19.6,15.4,43.8,12.4,66.4l-0.1,3.6c-0.6,12-3.1,23.9-7.3,35.1l0,0C677.4,443.3,677.1,443.3,677.1,443z"/>
	<path d="M694.4,424.5l2.7-45.6c0-37.8-7.9-94.9-18.4-129.9l-13.5-45.9c-0.6-2.1,1-4.3,3-3.9l0,0c0.4,0.1,1,0.4,1.3,0.9
		c27.1,38.1,35.9,89.4,33.9,138.7l0.1,7.8c0.7,26-2.1,52.5-8.7,78l0,0C695,425,694.4,425,694.4,424.5z"/>
	<polygon points="610.9,208.4 599.7,208.4 593.4,217.7 589.7,206.9 578.8,203.8 587.7,197 587.3,185.5 596.5,192.3 607,188.4 
		603.9,199.3 	"/>
	<polygon points="596.4,301.4 588.3,303.8 586.2,311.8 580.8,304.7 572.2,304.4 577.1,297.8 573.8,289.4 582.2,292.4 588.9,287.6 
		589.2,296.3 	"/>
	<polygon points="603.3,283.4 598.6,284.6 597.4,289.3 594.3,285.2 589.4,284.9 592.2,281.2 590.4,276.6 595,278.2 598.9,275.5 
		599.1,280.4 	"/>
	<polygon points="674.9,335.7 670.1,335.6 667.5,339.6 665.9,334.8 661.1,333.2 665,330.4 664.7,325.3 668.6,328.3 673.1,326.8 
		671.9,331.7 	"/>
	<polygon points="673.4,193.8 664.1,195 659.6,203.2 655.9,194.7 646.6,193 653.6,186.7 652.3,177.3 660.4,182.1 668.7,178.1 
		666.9,187.2 	"/>
	<polygon points="788.9,156.4 776.6,142.9 758.5,145.6 767.5,129.8 759.4,113.4 777.4,116.9 790.4,104.2 792.5,122.3 808.6,131 
		792,138.5 	"/>
	<polygon points="844.5,202.6 835.7,193 822.7,194.8 829.1,183.3 823.3,171.6 836.1,174.2 845.5,165.1 847,178.1 858.7,184.2 
		846.7,189.7 	"/>
	<polygon points="845.4,311.8 840.3,303.5 830.6,302.9 837,295.4 834.6,286 843.6,289.9 852,284.5 851.1,294.3 858.7,300.6 
		849.1,302.9 	"/>
	<polygon points="765,303.5 760.9,297.5 753.8,296.6 758.1,291.9 755.9,285.5 762.6,288.5 768.3,285.4 768.3,291.9 773.9,296.4 
		767.2,297.5 	"/>
	<polygon points="667.4,269.4 661.7,268 657.4,271.9 656.9,266.1 651.8,263.1 657.2,261 658.6,255 662.3,259.5 668.1,259.1 665,264 
			"/>
	<polygon points="604,249.7 598.3,250.4 595.5,255.5 593.1,250.3 587.4,249.1 591.6,245.3 590.9,239.5 595.9,242.3 601.2,239.8 
		600,245.5 	"/>
	<polygon points="648.2,222.2 640.3,223.6 636.3,230.5 633.3,223.6 625.7,222.9 631.7,217.4 630.9,209.9 637.6,213.2 644.8,209.6 
		643,217.2 	"/>
	<polygon points="637.5,169.4 632,169.7 629.6,174.8 627,169.4 621.5,168.1 625.4,164.3 624.2,158.6 629.3,161.6 634.2,159.4 
		633.3,165.1 	"/>
	<polygon points="717.4,216.9 712.2,211.2 704.4,212.3 708.3,205.4 704.9,198.2 712.5,200 718.2,194.5 719.1,202.3 726,206 
		718.8,209.3 	"/>
	<polygon points="709.7,164.2 700.9,155.6 688.9,157.9 694.4,147.1 688.5,136.4 700.6,138.2 708.8,129.2 710.9,141.3 721.9,146.5 
		711.2,151.9 	"/>
	<polygon points="832.4,271.3 830.1,266.2 824.8,265.5 828.9,261.5 828.3,255.8 833.1,258.3 838.2,255.3 837,261 840.7,264.9 
		835.2,266.1 	"/>
	<polygon points="776,238.4 772.6,234.1 767.2,234.9 770.2,229.6 768.3,224.4 773.5,225.6 777.7,221.6 777.8,227.4 782.5,230.2 
		777.4,232.6 	"/>
	<polygon points="792.6,199.7 787.8,193.6 780.2,194.8 784.5,187.5 781.7,180 789,181.7 795,175.8 795.3,184.2 801.7,188.2 
		794.6,191.7 	"/>
	<polygon points="673.7,132 669.6,131.7 666.9,134.7 666.2,131 662.4,129.5 665.9,127.6 666.2,123.8 669.2,126.2 673.1,125 
		671.4,128.7 	"/>
	<polygon points="730.7,119.5 727.5,117.4 723.7,118.7 724.8,115.1 722.1,112.2 726.1,112 728.2,108.7 729.7,112.3 733.6,113.2 
		730.4,115.6 	"/>
	<polygon points="810,395.8 806.5,393.7 802.8,395.1 803.8,391.5 801.3,388.5 805.3,388.3 807.4,385.1 808.8,388.6 812.8,389.5 
		809.7,391.9 	"/>
	<polygon points="861.7,248.9 858.2,246.8 854.5,248.3 855.5,244.6 852.8,241.6 856.9,241.4 859.1,238.1 860.5,241.6 864.4,242.8 
		861.2,245.2 	"/>
	<polygon points="585.2,248.3 581.1,249.1 579.4,252.6 577.7,249.1 573.8,248.8 576.7,245.9 576.1,242 579.5,243.8 583.1,241.9 
		582.3,245.8 	"/>
	<polygon points="638.2,140.3 635.7,140.7 634.5,142.9 633.5,140.7 630.9,140.6 632.7,138.8 632.4,136.2 634.6,137.3 636.9,136.1 
		636.4,138.5 	"/>
	<polygon points="822.7,153.7 820.1,154.2 818.9,156.4 817.9,154.3 815.3,154 817.1,152.2 816.8,149.7 819.1,150.9 821.3,149.5 
		820.9,151.9 	"/>
	<polygon points="848.2,230.7 845.7,231.1 844.5,233.4 843.4,231.1 841,231 842.8,229.2 842.4,226.6 844.6,227.8 846.9,226.5 
		846.4,229 	"/>
	<polygon points="743.9,157.1 741.4,157.6 740.2,159.8 739.1,157.7 736.6,157.4 738.4,155.6 738.1,153.1 740.3,154.3 742.6,153 
		742.1,155.5 	"/>
	<polygon points="614.5,161.2 612.1,161.6 610.9,163.9 609.8,161.8 607.3,161.5 609.1,159.7 608.8,157.1 610.9,158.3 613.3,157 
		612.7,159.4 	"/>
	<polygon points="698.3,114.8 695.8,115.3 694.6,117.5 693.5,115.3 691,115 692.8,113.2 692.5,110.8 694.7,111.9 697,110.7 
		696.5,113.2 	"/>
	<polygon points="830.1,356.7 828,351.7 822.5,351.1 826.7,346.9 826.1,341.3 830.9,343.7 836.1,340.8 834.8,346.5 838.5,350.4 
		833,351.4 	"/>
	<polygon points="618.7,390.4 621.8,388.3 625.2,389.5 624.3,386.1 626.7,383.1 623,383 621,379.7 619.7,383.3 616.1,384.2 
		619,386.6 	"/>
	<polygon points="674.9,301.8 676.8,297.9 680.1,296.7 678.1,294.3 679.2,290.2 676,292.4 673.5,290.9 673.5,294.9 670.8,298.2 
		674,298.4 	"/>
	<polygon points="602.2,348.7 599.2,346.8 595.9,348.3 596.8,344.7 594.4,342.2 598,342 599.8,338.7 601.2,342.2 604.6,343.1 
		601.9,345.3 	"/>
	<polygon points="576.1,268.8 574.4,268.8 573.5,270.3 572.9,268.5 571.3,268.2 572.6,267 572.5,265.5 573.8,266.4 575.5,265.8 
		575,267.4 	"/>
	<polygon points="839.8,323 838.2,321.5 836.1,322.1 836.9,320 835.8,318.3 837.9,318.4 839.4,316.8 839.8,318.8 841.8,319.7 
		840,320.8 	"/>
	<polygon points="855.1,267.4 853.7,265 851.1,264.9 852.8,263 852.1,260.3 854.6,261.3 856.9,260 856.6,262.5 858.7,264.3 
		856.1,264.9 	"/>
	<path d="M781,495.5H654.2c-1.3,0-2.5-1.2-2.5-2.5v-10.3c0-1.3,1.2-2.5,2.5-2.5h126.6c1.3,0,2.5,1.2,2.5,2.5V493
		C783.5,494.2,782.3,495.5,781,495.5z"/>
	<path d="M775.3,520.8H659.9c-1.3,0-2.5-1.2-2.5-2.5v-10.3c0-1.3,1.2-2.5,2.5-2.5h115.5c1.3,0,2.5,1.2,2.5,2.5v10.3
		C777.8,519.6,776.8,520.8,775.3,520.8z"/>
</g>
<g>
	<path d="M595.8,608.6h9.2v8.3h-9.1v10.2h-9.9v-30h20.3v8.4h-10.4L595.8,608.6L595.8,608.6z"/>
	<path d="M610.5,597.1h10.2v30h-10.2V597.1z"/>
	<path d="M626.3,597.1h12.9c1.5,0,2.9,0.1,4.4,0.4s2.8,0.8,3.9,1.6c1.1,0.7,2.1,1.7,2.8,3c0.7,1.2,1,2.8,1,4.7
		c0,1.8-0.4,3.5-1.3,4.9c-0.9,1.4-2.2,2.5-3.9,3.2l7.6,12.2h-11.6l-5.8-10.7H636v10.7h-9.8L626.3,597.1L626.3,597.1z M636,609.7h2
		c0.3,0,0.7,0,1.1-0.1c0.4,0,0.8-0.2,1.1-0.3c0.3-0.2,0.6-0.4,0.9-0.8c0.2-0.3,0.3-0.7,0.3-1.3s-0.1-1-0.3-1.3s-0.4-0.5-0.7-0.7
		c-0.3-0.1-0.6-0.2-1-0.3s-0.7-0.1-1-0.1H636L636,609.7L636,609.7z"/>
	<path d="M656.6,597.1h20.6v8.4h-11.1v2.6h10.5v7.9h-10.5v2.8h11.9v8.4h-21.4V597.1z"/>
	<path d="M697.7,627.1h-10.2l-8.2-30H690l3.2,16.9h0.2l3.5-16.9h10.6l3.8,16.9h0.2l3.3-16.9H725l-8.4,30h-10.2l-4.2-17H702
		L697.7,627.1z"/>
	<path d="M725.9,611.9c0-2.4,0.4-4.6,1.3-6.5s2-3.6,3.5-4.9c1.5-1.3,3.2-2.4,5.3-3.1c2-0.7,4.2-1.1,6.6-1.1c2.4,0,4.6,0.4,6.6,1.1
		c2,0.7,3.8,1.8,5.3,3.1c1.5,1.3,2.7,3,3.5,4.9s1.3,4.1,1.3,6.5c0,2.4-0.4,4.6-1.3,6.6c-0.8,2-2,3.7-3.5,5.1
		c-1.5,1.4-3.3,2.5-5.3,3.2c-2,0.8-4.2,1.1-6.6,1.1c-2.4,0-4.6-0.4-6.6-1.1c-2-0.8-3.8-1.8-5.3-3.2c-1.5-1.4-2.6-3.1-3.5-5.1
		C726.3,616.5,725.9,614.3,725.9,611.9z M736.7,611.9c0,1,0.1,1.9,0.4,2.7c0.3,0.8,0.7,1.5,1.2,2.1s1.1,1,1.9,1.4
		c0.7,0.3,1.5,0.5,2.4,0.5c0.8,0,1.6-0.2,2.3-0.5c0.7-0.3,1.3-0.8,1.9-1.4c0.5-0.6,0.9-1.3,1.2-2.1s0.4-1.7,0.4-2.7
		c0-1-0.1-1.8-0.4-2.6s-0.7-1.5-1.2-2c-0.5-0.5-1.2-1-1.9-1.3c-0.7-0.3-1.5-0.5-2.3-0.5c-0.8,0-1.6,0.1-2.4,0.5
		c-0.7,0.3-1.4,0.7-1.9,1.3s-0.9,1.2-1.2,2C736.8,610,736.7,610.9,736.7,611.9z"/>
	<path d="M763.5,597.1h12.9c1.5,0,2.9,0.1,4.4,0.4s2.7,0.8,3.9,1.6c1.1,0.7,2.1,1.7,2.8,3c0.7,1.2,1,2.8,1,4.7
		c0,1.8-0.4,3.5-1.3,4.9c-0.9,1.4-2.2,2.5-3.9,3.2l7.6,12.2h-11.6l-5.8-10.7h-0.3v10.7h-9.8L763.5,597.1L763.5,597.1z M773.2,609.7
		h2c0.3,0,0.7,0,1.1-0.1c0.4,0,0.8-0.2,1.1-0.3c0.3-0.2,0.6-0.4,0.9-0.8c0.2-0.3,0.3-0.7,0.3-1.3s-0.1-1-0.3-1.3s-0.4-0.5-0.7-0.7
		c-0.3-0.1-0.6-0.2-1-0.3c-0.3,0-0.7-0.1-1-0.1h-2.4L773.2,609.7L773.2,609.7z"/>
	<path d="M803.7,615.1L803.7,615.1l-0.1,11.9h-9.8v-30h9.8v11.1h0.1l8-11.1h11.9l-11.3,13.7l11.8,16.3h-12.4L803.7,615.1z"/>
	<path d="M836,627.9c-1.2,0-2.4-0.1-3.6-0.3c-1.2-0.2-2.3-0.5-3.4-0.9c-1.1-0.4-2.1-0.9-3.1-1.4c-1-0.5-1.8-1.2-2.6-1.8l6.2-6.7
		c0.7,0.8,1.6,1.4,2.8,2c1.2,0.6,2.4,0.9,3.6,0.9c0.6,0,1.1-0.1,1.5-0.3s0.7-0.6,0.7-1.1c0-0.3-0.1-0.5-0.2-0.7
		c-0.1-0.2-0.4-0.4-0.8-0.6s-0.9-0.4-1.6-0.7c-0.7-0.2-1.6-0.5-2.6-0.9c-1-0.3-2-0.7-2.9-1.2s-1.8-1-2.5-1.7
		c-0.7-0.7-1.3-1.5-1.7-2.4c-0.4-0.9-0.6-2.1-0.6-3.4c0-1.9,0.4-3.4,1.1-4.8c0.8-1.3,1.7-2.4,2.9-3.2c1.2-0.8,2.5-1.4,4-1.8
		c1.5-0.4,3-0.5,4.4-0.5c2,0,4,0.4,6,1.1c2,0.8,3.8,1.9,5.4,3.3l-6.3,6.4c-0.7-0.8-1.5-1.5-2.5-1.9c-1-0.4-1.9-0.6-2.7-0.6
		c-0.7,0-1.3,0.1-1.8,0.3c-0.4,0.2-0.7,0.5-0.7,1c0,0.4,0.2,0.8,0.7,1c0.5,0.2,1.2,0.5,2.3,0.8c1.1,0.3,2.2,0.7,3.4,1.2
		c1.2,0.4,2.3,1,3.3,1.8c1,0.7,1.8,1.6,2.5,2.6c0.6,1,1,2.3,1,3.9c0,1.8-0.3,3.4-1.1,4.7c-0.7,1.3-1.7,2.5-2.8,3.3
		c-1.2,0.9-2.5,1.5-4,2C839,627.7,837.5,627.9,836,627.9z"/>
</g>
</svg>
