<?xml version="1.0" encoding="utf-8"?>
<!-- Generator: Adobe Illustrator 22.0.1, SVG Export Plug-In . SVG Version: 6.00 Build 0)  -->
<svg version="1.1" id="Layer_1" xmlns="http://www.w3.org/2000/svg" xmlns:xlink="http://www.w3.org/1999/xlink" x="0px" y="0px"
	 viewBox="0 0 357 41" style="enable-background:new 0 0 357 41;" xml:space="preserve">
<style type="text/css">
	.st0{enable-background:new    ;}
</style>
<g id="Symbol_1_1" transform="translate(-124 -2894)">
	<g id="fs" transform="translate(103.7 2855.989)">
		<g id="Group_11" transform="translate(20.3 43.492)">
			<path id="Path_131" d="M8.2,10.3h7.6v6.9H8.2v8.5H0V0.8h16.8v7H8.2V10.3z"/>
			<path id="Path_132" d="M20.4,0.8h8.5v24.8h-8.5V0.8z"/>
			<path id="Path_133" d="M33.4,0.8h10.8c1.2,0,2.5,0.1,3.7,0.3C49,1.4,50.1,1.8,51,2.4c1,0.6,1.7,1.5,2.3,2.5
				c0.6,1.2,0.9,2.5,0.9,3.9c0,1.4-0.4,2.8-1.1,4c-0.8,1.2-1.9,2.1-3.2,2.6l6.3,10.1h-9.6l-4.8-8.9h-0.2v8.9h-8.1V0.8z M41.5,11.2
				h1.6c0.3,0,0.6,0,0.9-0.1c0.3,0,0.7-0.1,0.9-0.3c0.3-0.1,0.6-0.4,0.7-0.7C45.9,9.8,46,9.4,46,9c0-0.4-0.1-0.7-0.2-1
				c-0.1-0.2-0.3-0.4-0.6-0.6c-0.2-0.1-0.5-0.2-0.8-0.2h-2.7L41.5,11.2L41.5,11.2z"/>
			<path id="Path_134" d="M58.5,0.8h17.1v7h-9.3V10H75v6.5h-8.7v2.3h9.8v7H58.5V0.8z"/>
			<path id="Path_135" d="M92.6,25.6h-8.5L77.4,0.8h8.8l2.7,14H89l2.9-14h8.7l3.1,14h0.1l2.7-14h8.6l-6.9,24.8h-8.5l-3.5-14.1h-0.1
				L92.6,25.6z"/>
			<path id="Path_136" d="M115.9,13c0-1.8,0.3-3.7,1-5.4c0.7-1.5,1.7-2.9,2.9-4.1c1.3-1.1,2.7-2,4.3-2.6c3.6-1.2,7.4-1.2,11,0
				c1.6,0.6,3.1,1.5,4.3,2.6c1.2,1.1,2.2,2.6,2.9,4.1c0.7,1.7,1.1,3.5,1,5.4c0,1.9-0.3,3.7-1,5.5c-0.7,1.6-1.7,3-2.9,4.2
				c-1.3,1.2-2.7,2-4.3,2.6c-1.8,0.6-3.6,0.9-5.5,0.9c-1.9,0-3.7-0.3-5.5-0.9c-1.6-0.6-3.1-1.5-4.3-2.6c-1.3-1.2-2.2-2.6-2.9-4.2
				C116.3,16.8,115.9,14.9,115.9,13z M124.9,13c0,0.8,0.1,1.5,0.3,2.3c0.2,0.6,0.6,1.2,1,1.7c0.4,0.5,1,0.9,1.6,1.1
				c0.6,0.3,1.3,0.4,1.9,0.5c0.7,0,1.4-0.1,1.9-0.5c0.6-0.3,1.1-0.7,1.6-1.1c0.5-0.5,0.8-1.1,1-1.7c0.2-0.7,0.4-1.5,0.3-2.3
				c0-0.7-0.1-1.5-0.3-2.2c-0.2-0.6-0.6-1.2-1-1.7c-0.4-0.5-1-0.8-1.6-1c-1.3-0.5-2.6-0.5-3.9,0c-0.6,0.2-1.1,0.6-1.6,1
				c-0.5,0.5-0.8,1.1-1,1.7C125,11.6,124.9,12.3,124.9,13z"/>
			<path id="Path_137" d="M147.1,0.8h10.8c1.2,0,2.5,0.1,3.7,0.3c1.1,0.2,2.2,0.6,3.2,1.3c1,0.6,1.7,1.5,2.3,2.5
				c0.6,1.2,0.9,2.5,0.9,3.9c0,1.4-0.4,2.8-1.1,4c-0.8,1.2-1.9,2.1-3.2,2.6l6.3,10.1h-9.6l-4.8-8.9h-0.2v8.9h-8.1V0.8z M155.1,11.2
				h1.6c0.3,0,0.6,0,0.9-0.1c0.3,0,0.7-0.1,0.9-0.3c0.3-0.1,0.6-0.4,0.7-0.7c0.2-0.3,0.3-0.7,0.3-1c0-0.4-0.1-0.7-0.2-1
				c-0.1-0.2-0.3-0.4-0.6-0.6c-0.2-0.1-0.5-0.2-0.8-0.2h-2.7v4L155.1,11.2z"/>
			<path id="Path_138" d="M180.3,15.7L180.3,15.7l-0.1,9.8H172V0.8h8.1V10h0.1l6.6-9.2h9.8l-9.4,11.3l9.8,13.5h-10.3L180.3,15.7z"/>
			<path id="Path_139" d="M207,26.3c-1,0-2-0.1-3-0.2c-1-0.2-1.9-0.5-2.9-0.8c-0.9-0.3-1.7-0.7-2.5-1.1c-0.8-0.4-1.5-0.9-2.2-1.5
				l5-5.5c0.7,0.7,1.4,1.3,2.3,1.7c0.9,0.5,1.9,0.7,3,0.7c0.4,0,0.9-0.1,1.3-0.2c0.4-0.1,0.6-0.5,0.6-0.9c0-0.2-0.1-0.4-0.2-0.6
				c-0.2-0.2-0.4-0.4-0.7-0.5c-0.3-0.1-0.8-0.3-1.4-0.6c-0.7-0.3-1.4-0.5-2.2-0.7c-0.8-0.2-1.6-0.6-2.4-1c-0.7-0.4-1.4-0.9-2.1-1.4
				c-0.6-0.6-1.1-1.3-1.4-2.1c-0.4-0.9-0.6-1.9-0.6-2.9c0-1.4,0.3-2.7,0.9-3.9c0.6-1,1.5-1.9,2.4-2.6c1-0.7,2.1-1.2,3.3-1.5
				c1.2-0.3,2.4-0.5,3.7-0.5c1.7,0,3.4,0.3,5,0.9c1.7,0.6,3.2,1.5,4.5,2.7l-5.1,5.3c-0.6-0.7-1.3-1.2-2.1-1.6
				c-0.7-0.3-1.4-0.5-2.2-0.6c-0.5,0-1,0.1-1.5,0.2c-0.4,0.1-0.6,0.5-0.6,0.9c0,0.4,0.2,0.7,0.6,0.8c0.6,0.3,1.2,0.5,1.8,0.7
				c1,0.3,1.9,0.6,2.9,1c1,0.4,1.9,0.9,2.7,1.5c0.8,0.6,1.5,1.3,2.1,2.2c0.6,1,0.8,2.1,0.8,3.2c0,1.4-0.3,2.7-0.9,3.9
				c-0.5,1.1-1.4,2.1-2.4,2.7c-1,0.7-2.1,1.3-3.3,1.6C209.3,26.2,208.2,26.3,207,26.3z"/>
		</g>
	</g>
	<g class="st0">
		<path d="M365.1,2906.7c-0.4-0.6-1-1.1-1.7-1.4c-0.7-0.4-1.5-0.6-2.4-0.6c-0.5,0-1,0.1-1.5,0.2s-0.9,0.3-1.3,0.6
			c-0.4,0.3-0.7,0.7-1,1.1s-0.4,0.9-0.4,1.5c0,0.6,0.1,1.1,0.3,1.5c0.2,0.4,0.5,0.7,0.9,1c0.4,0.3,0.8,0.5,1.4,0.7
			c0.5,0.2,1.1,0.4,1.7,0.6c0.7,0.2,1.5,0.5,2.2,0.8c0.7,0.3,1.4,0.7,2,1.1s1.1,1,1.5,1.7c0.4,0.7,0.6,1.6,0.6,2.6
			c0,1.1-0.2,2.1-0.6,2.9c-0.4,0.8-1,1.5-1.6,2c-0.7,0.5-1.5,0.9-2.4,1.2c-0.9,0.3-1.8,0.4-2.7,0.4c-1.3,0-2.6-0.3-3.9-0.8
			c-1.2-0.5-2.3-1.3-3.1-2.3l2.3-2c0.5,0.7,1.2,1.3,2,1.8c0.8,0.5,1.8,0.7,2.7,0.7c0.5,0,1-0.1,1.5-0.2s1-0.4,1.4-0.7
			c0.4-0.3,0.7-0.7,1-1.1s0.4-1,0.4-1.6c0-0.6-0.1-1.2-0.4-1.6c-0.3-0.4-0.6-0.8-1.1-1.1c-0.5-0.3-1-0.6-1.6-0.8
			c-0.6-0.2-1.3-0.4-1.9-0.6c-0.7-0.2-1.4-0.4-2-0.7c-0.7-0.3-1.3-0.7-1.8-1.1s-0.9-1-1.3-1.7s-0.5-1.5-0.5-2.5c0-1.1,0.2-2,0.6-2.7
			c0.4-0.8,1-1.4,1.7-1.9c0.7-0.5,1.5-0.9,2.3-1.1c0.9-0.2,1.7-0.3,2.6-0.3c1.2,0,2.4,0.2,3.5,0.7c1.1,0.4,2,1,2.6,1.8L365.1,2906.7
			z"/>
		<path d="M378.6,2924h-3v-18.6h-6.8v-2.6h16.6v2.6h-6.8V2924z"/>
		<path d="M396.3,2924.5c-1.4,0-2.6-0.2-3.7-0.7c-1-0.5-1.9-1.1-2.6-1.9c-0.7-0.8-1.2-1.7-1.5-2.7s-0.5-2.1-0.5-3.1v-13.4h3v13.2
			c0,0.7,0.1,1.4,0.3,2.1c0.2,0.7,0.5,1.3,0.9,1.9c0.4,0.6,0.9,1,1.6,1.4s1.5,0.5,2.5,0.5c1,0,1.8-0.2,2.5-0.5
			c0.7-0.3,1.2-0.8,1.6-1.4c0.4-0.6,0.7-1.2,0.9-1.9c0.2-0.7,0.3-1.4,0.3-2.1v-13.2h3v13.4c0,1.1-0.2,2.1-0.5,3.1s-0.8,1.9-1.5,2.7
			c-0.7,0.8-1.5,1.4-2.6,1.9S397.7,2924.5,396.3,2924.5z"/>
		<path d="M409.6,2902.8h7.3c1.4,0,2.7,0.2,4.1,0.6c1.4,0.4,2.6,1,3.7,1.9c1.1,0.9,2,2,2.7,3.3c0.7,1.3,1,3,1,4.8
			c0,1.8-0.3,3.4-1,4.7c-0.7,1.3-1.6,2.4-2.7,3.3c-1.1,0.9-2.3,1.5-3.7,2c-1.4,0.4-2.7,0.6-4.1,0.6h-7.3V2902.8z M412.6,2921.4h3.7
			c1.3,0,2.5-0.2,3.6-0.5c1.1-0.4,2-0.9,2.8-1.6c0.8-0.7,1.4-1.5,1.8-2.5c0.4-1,0.7-2.1,0.7-3.4c0-1.3-0.2-2.5-0.7-3.5
			c-0.4-1-1.1-1.8-1.8-2.5c-0.8-0.7-1.7-1.2-2.8-1.5s-2.3-0.5-3.6-0.5h-3.7V2921.4z"/>
		<path d="M435.4,2924h-3v-21.2h3V2924z"/>
		<path d="M462,2913.3c0,1.6-0.3,3.1-0.9,4.5c-0.6,1.4-1.4,2.5-2.4,3.5c-1,1-2.2,1.8-3.6,2.3c-1.4,0.5-2.9,0.8-4.5,0.8
			c-1.6,0-3.1-0.3-4.5-0.8c-1.4-0.5-2.6-1.3-3.6-2.3c-1-1-1.8-2.2-2.3-3.5s-0.8-2.9-0.8-4.5c0-1.7,0.3-3.2,0.8-4.5
			c0.6-1.4,1.3-2.5,2.3-3.5c1-1,2.2-1.7,3.6-2.3c1.4-0.5,2.9-0.8,4.5-0.8c1.6,0,3.1,0.3,4.5,0.8c1.4,0.5,2.6,1.3,3.6,2.3
			c1,1,1.8,2.1,2.4,3.5C461.7,2910.2,462,2911.7,462,2913.3z M458.8,2913.3c0-1.2-0.2-2.3-0.6-3.3c-0.4-1-0.9-1.9-1.6-2.7
			c-0.7-0.8-1.5-1.4-2.5-1.8c-1-0.5-2.1-0.7-3.3-0.7c-1.2,0-2.3,0.2-3.3,0.7c-1,0.5-1.8,1.1-2.5,1.8c-0.7,0.8-1.2,1.7-1.6,2.7
			c-0.4,1-0.6,2.1-0.6,3.3c0,1.2,0.2,2.3,0.6,3.3c0.4,1,0.9,1.9,1.6,2.7c0.7,0.8,1.5,1.4,2.5,1.8c1,0.4,2.1,0.7,3.3,0.7
			c1.2,0,2.3-0.2,3.3-0.7c1-0.4,1.9-1,2.5-1.8c0.7-0.8,1.2-1.7,1.6-2.7C458.6,2915.6,458.8,2914.5,458.8,2913.3z"/>
		<path d="M476.6,2906.7c-0.4-0.6-1-1.1-1.7-1.4c-0.7-0.4-1.5-0.6-2.4-0.6c-0.5,0-1,0.1-1.5,0.2c-0.5,0.1-0.9,0.3-1.3,0.6
			s-0.7,0.7-1,1.1s-0.4,0.9-0.4,1.5c0,0.6,0.1,1.1,0.3,1.5c0.2,0.4,0.5,0.7,0.9,1c0.4,0.3,0.8,0.5,1.4,0.7c0.5,0.2,1.1,0.4,1.7,0.6
			c0.7,0.2,1.5,0.5,2.2,0.8c0.7,0.3,1.4,0.7,2,1.1c0.6,0.5,1.1,1,1.5,1.7c0.4,0.7,0.6,1.6,0.6,2.6c0,1.1-0.2,2.1-0.6,2.9
			c-0.4,0.8-1,1.5-1.6,2c-0.7,0.5-1.5,0.9-2.4,1.2s-1.8,0.4-2.7,0.4c-1.3,0-2.6-0.3-3.9-0.8c-1.2-0.5-2.3-1.3-3.1-2.3l2.3-2
			c0.5,0.7,1.2,1.3,2,1.8c0.8,0.5,1.8,0.7,2.7,0.7c0.5,0,1-0.1,1.5-0.2c0.5-0.1,1-0.4,1.4-0.7c0.4-0.3,0.7-0.7,1-1.1s0.4-1,0.4-1.6
			c0-0.6-0.1-1.2-0.4-1.6c-0.3-0.4-0.6-0.8-1.1-1.1c-0.5-0.3-1-0.6-1.6-0.8c-0.6-0.2-1.3-0.4-1.9-0.6c-0.7-0.2-1.3-0.4-2-0.7
			c-0.7-0.3-1.2-0.7-1.8-1.1c-0.5-0.5-0.9-1-1.3-1.7c-0.3-0.7-0.5-1.5-0.5-2.5c0-1.1,0.2-2,0.6-2.7c0.4-0.8,1-1.4,1.7-1.9
			s1.5-0.9,2.3-1.1c0.9-0.2,1.7-0.3,2.6-0.3c1.2,0,2.4,0.2,3.5,0.7c1.1,0.4,2,1,2.6,1.8L476.6,2906.7z"/>
	</g>
</g>
</svg>
