<?xml version="1.0" encoding="utf-8"?>
<!-- Generator: Adobe Illustrator 22.0.1, SVG Export Plug-In . SVG Version: 6.00 Build 0)  -->
<svg version="1.1" id="Layer_1" xmlns="http://www.w3.org/2000/svg" xmlns:xlink="http://www.w3.org/1999/xlink" x="0px" y="0px"
	 viewBox="0 0 300 100" style="enable-background:new 0 0 300 100;" xml:space="preserve">
<style type="text/css">
	.st0{fill:#AFAFAF;}
	.st1{fill:#020202;}
</style>
<g id="Layer_x0020_1">
	<g id="_167744456944">
		<polygon points="179.9,58.2 179.9,42.7 181.8,42.7 181.8,58.2 		"/>
		<polygon points="122.3,42.7 122.3,58.4 120.5,58.4 120.5,42.7 		"/>
		<polygon class="st0" points="115.6,28.4 115.6,10.1 147.5,10.1 147.5,28.4 142.6,28.4 142.6,70.3 145.2,72.8 157.1,72.8 
			159.6,70.3 159.6,28.4 154.8,28.4 154.8,10.1 186.8,10.1 186.8,28.4 181.8,28.4 181.8,35.3 179.9,35.3 179.9,26.4 184.6,26.4 
			184.6,12.1 156.8,12.1 156.8,26.4 161.6,26.4 161.6,70.6 157.5,74.7 144.9,74.7 140.6,70.4 140.6,26.4 145.5,26.4 145.5,12.1 
			117.6,12.1 117.6,26.4 122.3,26.4 122.3,35.3 120.5,35.3 120.5,28.4 		"/>
		<polygon class="st0" points="120.1,23.8 120.1,14.6 143.1,14.6 143.1,23.8 138.2,23.8 138.2,72.2 143.2,77.1 159.1,77.1 
			164.1,72.1 164.1,23.8 159.2,23.8 159.2,14.6 182.2,14.6 182.2,23.8 177.4,23.8 177.4,75.8 166.8,86.4 135.6,86.4 124.8,75.7 
			124.8,23.8 		"/>
		<rect x="97.5" y="37.5" class="st0" width="107.4" height="30.5"/>
		<g>
			<path class="st1" d="M105.7,51.3h3.5v3.1h-3.5v3.9h-3.8V46.9h7.8v3.2h-4V51.3z"/>
			<path class="st1" d="M111.4,46.9h3.9v11.5h-3.9V46.9z"/>
			<path class="st1" d="M117.4,46.9h5c0.6,0,1.2,0.1,1.7,0.2c0.6,0.1,1.1,0.3,1.5,0.6s0.8,0.7,1.1,1.2c0.2,0.5,0.4,1.1,0.4,1.8
				c0,0.7-0.2,1.3-0.5,1.8c-0.3,0.5-0.8,0.9-1.5,1.2l2.9,4.6h-4.5l-2.2-4.1h-0.1v4.1h-3.7V46.9z M121.1,51.8h0.7c0.2,0,0.2,0,0.4,0
				s0.3-0.1,0.4-0.2c0.1-0.1,0.2-0.2,0.3-0.3c0.1-0.2,0.2-0.3,0.2-0.5c0-0.2,0-0.3-0.1-0.5c-0.1-0.1-0.2-0.2-0.3-0.2
				c-0.1-0.1-0.2-0.1-0.4-0.1c-0.2,0-0.2,0-0.4,0h-0.8V51.8z"/>
			<path class="st1" d="M129,46.9h7.9v3.2h-4.3v1h4v3h-4v1.1h4.5v3.2H129C129,58.4,129,46.9,129,46.9z"/>
			<path class="st1" d="M144.7,58.4h-3.9l-3.1-11.5h4.1l1.2,6.4h0.1l1.3-6.4h4.1l1.4,6.4h0.1l1.2-6.4h4l-3.2,11.5H148l-1.7-6.5h-0.1
				L144.7,58.4z"/>
			<path class="st1" d="M155.5,52.6c0-0.9,0.2-1.7,0.5-2.5c0.3-0.7,0.7-1.4,1.3-1.9c0.6-0.5,1.2-0.9,2-1.2c0.7-0.2,1.7-0.4,2.6-0.4
				s1.7,0.2,2.6,0.4c0.7,0.2,1.5,0.7,2.1,1.2c0.6,0.5,1,1.2,1.3,1.9c0.3,0.7,0.5,1.6,0.5,2.5c0,0.9-0.2,1.7-0.5,2.5
				c-0.3,0.7-0.7,1.4-1.3,1.9c-0.6,0.5-1.2,0.9-2.1,1.2c-0.8,0.3-1.7,0.4-2.6,0.4s-1.7-0.2-2.6-0.4c-0.8-0.2-1.5-0.7-2-1.2
				c-0.6-0.5-1-1.2-1.3-1.9S155.5,53.5,155.5,52.6z M159.7,52.6c0,0.4,0.1,0.7,0.2,1.1c0.1,0.3,0.2,0.6,0.5,0.8
				c0.2,0.2,0.4,0.4,0.7,0.5c0.2,0.2,0.6,0.2,0.9,0.2s0.7-0.1,0.9-0.2c0.2-0.1,0.5-0.3,0.7-0.5c0.2-0.2,0.3-0.5,0.5-0.8
				c0.1-0.3,0.2-0.7,0.2-1.1c0-0.3-0.1-0.7-0.2-1c-0.1-0.3-0.2-0.6-0.5-0.7c-0.2-0.2-0.4-0.4-0.7-0.5c-0.2-0.1-0.6-0.2-0.9-0.2
				s-0.7,0.1-0.9,0.2c-0.2,0.1-0.5,0.2-0.7,0.5c-0.2,0.2-0.3,0.5-0.5,0.7C159.7,51.8,159.7,52.3,159.7,52.6z"/>
			<path class="st1" d="M169.9,46.9h5c0.6,0,1.2,0.1,1.7,0.2c0.6,0.1,1.1,0.3,1.5,0.6s0.8,0.7,1.1,1.2c0.2,0.5,0.4,1.1,0.4,1.8
				c0,0.7-0.2,1.3-0.5,1.8c-0.3,0.5-0.8,0.9-1.5,1.2l2.9,4.6h-4.5l-2.2-4.1h-0.1v4.1h-3.7V46.9z M173.6,51.8h0.7c0.2,0,0.2,0,0.4,0
				s0.3-0.1,0.4-0.2s0.2-0.2,0.3-0.3c0.1-0.2,0.2-0.3,0.2-0.5c0-0.2,0-0.3-0.1-0.5c-0.1-0.1-0.2-0.2-0.3-0.2
				c-0.1-0.1-0.2-0.1-0.4-0.1c-0.2,0-0.2,0-0.4,0h-0.9L173.6,51.8L173.6,51.8z"/>
			<path class="st1" d="M185.3,53.8L185.3,53.8v4.5h-3.7V46.9h3.7v4.2l0,0l3.1-4.2h4.5l-4.3,5.3l4.5,6.2h-4.7L185.3,53.8z"/>
			<path class="st1" d="M197.7,58.7c-0.5,0-0.9,0-1.4-0.1c-0.5-0.1-0.9-0.2-1.3-0.3c-0.4-0.2-0.8-0.3-1.2-0.6s-0.7-0.4-1-0.7
				l2.3-2.6c0.2,0.3,0.7,0.6,1.1,0.7c0.4,0.2,0.9,0.3,1.4,0.3c0.2,0,0.4,0,0.6-0.1c0.2-0.1,0.2-0.2,0.2-0.4c0-0.1,0-0.2-0.1-0.2
				c-0.1-0.1-0.2-0.2-0.3-0.2c-0.2-0.1-0.3-0.2-0.7-0.2c-0.2-0.1-0.6-0.2-1-0.3c-0.4-0.2-0.7-0.2-1.2-0.5c-0.3-0.2-0.7-0.4-0.9-0.7
				c-0.2-0.2-0.5-0.6-0.7-0.9c-0.2-0.3-0.2-0.8-0.2-1.3c0-0.7,0.2-1.3,0.4-1.8c0.3-0.5,0.7-0.9,1.2-1.2s1-0.6,1.6-0.7
				c0.6-0.2,1.2-0.2,1.7-0.2c0.7,0,1.5,0.2,2.3,0.4c0.7,0.3,1.5,0.7,2.1,1.2l-2.4,2.5c-0.2-0.3-0.6-0.6-1-0.7
				c-0.4-0.2-0.7-0.2-1-0.2c-0.2,0-0.5,0-0.7,0.1c-0.2,0.1-0.2,0.2-0.2,0.4c0,0.2,0.1,0.3,0.2,0.4c0.2,0.1,0.5,0.2,0.8,0.3
				c0.4,0.2,0.8,0.2,1.3,0.4c0.4,0.2,0.9,0.4,1.2,0.7c0.4,0.2,0.7,0.6,0.9,1c0.2,0.4,0.4,0.9,0.4,1.5c0,0.7-0.2,1.3-0.4,1.8
				c-0.2,0.5-0.7,0.9-1.1,1.3c-0.4,0.3-1,0.6-1.5,0.7C198.8,58.6,198.3,58.7,197.7,58.7z"/>
		</g>
		<polygon class="st0" points="95.2,35.3 121.5,35.3 121.5,33.4 93.3,33.4 93.3,71.9 120.5,71.9 120.5,78 133.4,90.9 168.9,90.9 
			181.8,78 181.8,71.9 209,71.9 209,33.4 181.2,33.4 181.2,35.3 209,35.3 207.1,35.3 207.1,70 181.2,70 181.2,70 179.9,70 
			179.9,77.6 168.6,89 133.8,89 122.3,77.6 122.3,70 120.5,70 120.5,70 95.2,70 		"/>
	</g>
</g>
</svg>
