<?xml version="1.0" encoding="utf-8"?>
<!-- Generator: Adobe Illustrator 22.0.1, SVG Export Plug-In . SVG Version: 6.00 Build 0)  -->
<svg version="1.1" id="Layer_1" xmlns="http://www.w3.org/2000/svg" xmlns:xlink="http://www.w3.org/1999/xlink" x="0px" y="0px"
	 viewBox="0 0 1985.6 860.6" style="enable-background:new 0 0 1985.6 860.6;" xml:space="preserve">
<style type="text/css">
	.st0{fill:#7F7F7F;}
</style>
<g>
	<path class="st0" d="M1264,626.9c-4.3,0-8.3-0.5-12-1.6s-6.7-2.2-9.1-3.3c-1.4-0.6-2.9-1.2-4.3-2s-2.6-1.5-3.5-2.1h0.1l-1.2-0.7
		l4.8-9.3l5.4,2.7v-0.1c2.5,1.2,5.6,2.4,9.1,3.5c3.5,1.2,7.1,1.7,10.8,1.7c2.5,0,4.9-0.3,7.1-1s4-1.5,5.4-2.3
		c2.3-2.3,3.5-5.3,3.5-8.8s-1.8-6.4-5.3-8.7c-3.3-2.3-7.6-4.4-13-6.3c-2.9-1.4-5.8-2.7-8.7-4.1c-2.9-1.4-5.6-3-8.1-5
		c-5.6-4.7-8.4-10.1-8.4-16.2c0-3.3,0.7-6.2,2-8.6c0.7-1.4,1.5-2.6,2.4-3.8s2-2.2,3.2-3.3c4.8-3.8,10.9-5.7,18.4-5.7
		c3.8,0,7.3,0.4,10.6,1.1c3.2,0.8,5.9,1.5,7.9,2.3h-0.1c1,0.2,1.8,0.5,2.7,0.8c0.8,0.3,1.7,0.6,2.6,0.9l-5.5,10
		c-2.3-0.9-5.1-1.7-8.3-2.6c-3.2-0.8-6.5-1.3-9.8-1.3c-1.1,0-2.6,0.1-4.5,0.4c-1.9,0.3-3.7,0.9-5.3,1.8c-3.1,1.7-4.7,4.4-4.7,8.2
		c0,1.3,0.5,2.5,1.4,3.6s2.1,2.2,3.7,3.2s3.3,2,5.3,2.9c2,1,4.1,1.9,6.2,2.9l1.9,0.8c2.6,1.2,5.4,2.5,8.4,3.9
		c2.9,1.4,5.6,3.1,8.1,5.1c2.9,2.3,5.1,5,6.8,8c1.7,3,2.5,6.2,2.5,9.7c0,3.6-0.9,6.9-2.6,9.8c-1.7,3-4,5.5-6.9,7.7
		c-2.5,1.6-5.5,2.9-8.9,3.9C1270.8,626.3,1267.4,626.9,1264,626.9z"/>
	<path class="st0" d="M1356.8,542.7v11h-21v72.5h-11v-72.5h-20.9v-11H1356.8z"/>
	<path class="st0" d="M1429.2,542.7v53.7c0,4.1-0.8,8.1-2.3,11.8c-1.6,3.7-3.7,6.9-6.3,9.7c-2.7,2.7-5.8,4.9-9.5,6.6
		c-3.7,1.6-7.6,2.4-11.8,2.4c-4.2,0-8.1-0.8-11.7-2.4c-3.6-1.6-6.7-3.8-9.4-6.5c-2.7-2.7-4.8-6-6.3-9.7s-2.3-7.7-2.3-11.9v-53.7
		h11.5v53.7c0,2.9,0.5,5.5,1.4,7.9c1,2.4,2.3,4.6,3.9,6.4c1.7,1.8,3.6,3.3,5.8,4.3c2.2,1,4.6,1.6,7,1.6c2.5,0,4.8-0.5,7-1.6
		c2.2-1,4.2-2.5,5.8-4.3c1.7-1.8,3-4,4-6.4s1.5-5.1,1.5-7.9v-53.7L1429.2,542.7L1429.2,542.7z"/>
	<path class="st0" d="M1470.4,542.7c2.6,0,5.6,0.2,8.8,0.6c3.3,0.4,6.5,1.2,9.8,2.3s6.5,2.6,9.7,4.6c3.1,2,5.9,4.5,8.4,7.6
		c2.4,3.1,4.4,6.9,5.8,11.4c1.5,4.5,2.2,9.7,2.2,15.9c0,6.4-0.9,12-2.7,16.5c-1.8,4.6-4.1,8.4-6.9,11.5s-6,5.5-9.5,7.2
		c-3.5,1.8-7,3.1-10.4,3.9c-3.4,0.9-6.6,1.4-9.5,1.7c-2.9,0.2-5.3,0.4-6.9,0.4h-22.9v-83.5h24.1V542.7z M1469.2,615.1
		c5.1,0,9.7-0.7,13.8-2.1c4.1-1.4,7.7-3.4,10.6-6s5.1-5.8,6.7-9.5s2.3-7.9,2.3-12.5c0-9.8-2.8-17.4-8.4-23
		c-5.6-5.5-13.5-8.3-23.8-8.3h-12.2V615L1469.2,615.1L1469.2,615.1z"/>
	<path class="st0" d="M1545,542.7v83.5h-11.7v-83.5H1545z"/>
	<path class="st0" d="M1601.7,626.6c-6,0-11.6-1.1-16.8-3.4c-5.1-2.3-9.6-5.3-13.4-9.1s-6.7-8.3-8.8-13.4
		c-2.1-5.1-3.2-10.5-3.2-16.2c0-6,1.1-11.5,3.2-16.7s5-9.6,8.8-13.4c3.8-3.8,8.2-6.7,13.4-8.9c5.1-2.1,10.7-3.2,16.8-3.2
		c5.7,0,11.1,1.1,16.2,3.2c5.1,2.1,9.5,5.1,13.4,8.9c3.8,3.8,6.9,8.3,9.1,13.4c2.3,5.2,3.4,10.7,3.4,16.7c0,5.7-1.1,11.1-3.4,16.2
		c-2.3,5.1-5.3,9.5-9.1,13.4c-3.8,3.8-8.3,6.9-13.4,9.1C1612.9,625.4,1607.5,626.6,1601.7,626.6z M1601.7,553.9
		c-4.3,0-8.3,0.8-12.1,2.3c-3.7,1.6-7,3.7-9.7,6.4s-4.9,5.9-6.4,9.7c-1.6,3.7-2.3,7.8-2.3,12.2c0,4.1,0.8,7.9,2.3,11.6
		c1.6,3.7,3.7,6.9,6.4,9.7c2.7,2.8,6,5.1,9.7,6.7c3.7,1.6,7.8,2.4,12.1,2.4c4.1,0,7.9-0.8,11.6-2.4c3.7-1.6,6.9-3.9,9.7-6.7
		c2.8-2.8,5-6.1,6.6-9.7c1.6-3.7,2.4-7.5,2.4-11.6c0-4.4-0.8-8.4-2.5-12.2c-1.7-3.7-3.9-7-6.7-9.7c-2.8-2.7-6.1-4.8-9.7-6.4
		C1609.5,554.7,1605.7,553.9,1601.7,553.9z"/>
	<path class="st0" d="M1685.5,626.9c-4.3,0-8.3-0.5-12-1.6s-6.7-2.2-9.1-3.3c-1.4-0.6-2.9-1.2-4.3-2s-2.6-1.5-3.5-2.1h0.1l-1.2-0.7
		l4.8-9.3l5.4,2.7v-0.1c2.5,1.2,5.6,2.4,9.1,3.5c3.5,1.2,7.1,1.7,10.8,1.7c2.5,0,4.9-0.3,7.1-1s4-1.5,5.4-2.3
		c2.3-2.3,3.5-5.3,3.5-8.8s-1.8-6.4-5.3-8.7c-3.3-2.3-7.6-4.4-13-6.3c-2.9-1.4-5.8-2.7-8.7-4.1c-2.9-1.4-5.6-3-8.1-5
		c-5.6-4.7-8.4-10.1-8.4-16.2c0-3.3,0.7-6.2,2-8.6c0.7-1.4,1.5-2.6,2.4-3.8s2-2.2,3.2-3.3c4.8-3.8,10.9-5.7,18.4-5.7
		c3.8,0,7.3,0.4,10.6,1.1c3.2,0.8,5.9,1.5,7.9,2.3h-0.1c1,0.2,1.8,0.5,2.7,0.8c0.8,0.3,1.7,0.6,2.6,0.9l-5.5,10
		c-2.3-0.9-5.1-1.7-8.3-2.6c-3.2-0.8-6.5-1.3-9.8-1.3c-1.1,0-2.6,0.1-4.5,0.4c-1.9,0.3-3.7,0.9-5.3,1.8c-3.1,1.7-4.7,4.4-4.7,8.2
		c0,1.3,0.5,2.5,1.4,3.6s2.1,2.2,3.7,3.2s3.3,2,5.3,2.9c2,1,4.1,1.9,6.2,2.9l1.9,0.8c2.6,1.2,5.4,2.5,8.4,3.9
		c2.9,1.4,5.6,3.1,8.1,5.1c2.9,2.3,5.1,5,6.8,8c1.7,3,2.5,6.2,2.5,9.7c0,3.6-0.9,6.9-2.6,9.8c-1.7,3-4,5.5-6.9,7.7
		c-2.5,1.6-5.5,2.9-8.9,3.9C1692.3,626.3,1688.9,626.9,1685.5,626.9z"/>
</g>
<g>
	<path class="st0" d="M445.4,513.9h-90.7c0,0,10.8-7.3,10.8-34.9v-66.3c0-17.6-4.3-27.1-7.3-31.4h-21.4v97.8
		c0,27.6,11.1,34.9,11.1,34.9h-90.7c0,0,10.8-7.3,10.8-34.9v-97.8h-10.8v-3.8H268v-25.2c0.3-63.9,45-72.6,90.2-72.6
		c38.2,0,76.4,18.1,74.7,59.6c-1.1,26.3-21.1,33.8-41.4,30.3c-16-2.7-31.4-17.9-19.2-49.3c13.3-33.3,1.4-37.6-11.9-37.6
		c-20.6,0-23.6,25.7-23.6,58v36.8h108.6c0,0-10.8,7.3-10.8,35.2V479C434.6,506.5,445.4,513.9,445.4,513.9z"/>
	<path class="st0" d="M596.8,429.4c-41.2,4.6-34.7-45.2-45-25.5c-6,11.4-8.7,25.2-8.7,40.1c0,7.6,0,21.7,0,34.9
		c0,27.6,10.8,34.9,10.8,34.9h-90.4c0,0,10.8-7.3,10.8-34.9v-66.3c0-27.9-10.8-35.2-10.8-35.2h72.3l7.3,44.1
		c4.9-21.1,13-43.3,34.4-49.3c16.5-4.9,34.4-0.5,41.2,15.7C626.8,406.9,616,426.9,596.8,429.4z"/>
	<path class="st0" d="M783.1,475.1c-12.5,27.4-40.3,41.4-72.8,41.7c-42.8,0-81.2-23.8-81.2-71.5c0.3-39.3,23.6-71.2,80.7-71.2
		c58,0,71.8,32,72.3,71.2h-87.2c11.1,46.3,61.5,54.4,85.6,29.8L783.1,475.1L783.1,475.1z M694,441.8h31.1
		c3.5-28.7,0.8-65.8-16.8-65.8C693.5,376,685.3,402.8,694,441.8z"/>
	<path class="st0" d="M1052.8,377.4c-13.3,11.6-25.2,27.6-37.9,57.4c-12.7,30.1-32.2,79.1-32.2,79.1h-32.2c0,0-17.9-34.7-34.1-66.1
		C904.1,477,889,513.9,889,513.9h-31.4c0,0-47.1-90.7-58.2-111.3C788,381.4,782,377.4,782,377.4h89.1c0,0-5.7,8.9,1.1,25.2
		c7,16.2,32.8,66.1,32.8,66.1s2.2-3.5,9.5-23.6c0-0.3,0-0.3,0.3-0.5c-9.5-17.9-17.9-34.4-21.9-42c-11.1-21.4-17.3-25.2-17.3-25.2
		h89.1c0,0-5.7,8.9,1.4,25.2c6.8,16.2,31.4,69.1,31.4,69.1s3-6.5,10.6-26.5c11.6-31.4,6.8-59.6-14.1-67.7h58.8V377.4z"/>
	<path class="st0" d="M1216.9,445.6c-0.3,39.3-30.6,71.2-87.7,71.2c-57.4,0-87.7-32-88-71.2c0.3-39.5,30.6-71.5,88-71.5
		C1186.3,374.1,1216.6,406.1,1216.9,445.6z M1148.7,445.6c-0.5-29.5-1.4-69.3-19.5-69.3c-18.4,0-19.2,39.8-19.8,69.3
		c0.5,29.2,1.4,69.1,19.8,69.1C1147.3,514.7,1148.1,474.9,1148.7,445.6z"/>
	<path class="st0" d="M1362.9,429.4c-41.2,4.6-34.7-45.2-45-25.5c-6,11.4-8.7,25.2-8.7,40.1c0,7.6,0,21.7,0,34.9
		c0,27.6,10.8,34.9,10.8,34.9h-90.4c0,0,10.8-7.3,10.8-34.9v-66.3c0-27.9-10.8-35.2-10.8-35.2h72.3l7.3,44.1
		c4.9-21.1,13-43.3,34.4-49.3c16.5-4.9,34.4-0.5,41.2,15.7C1392.9,406.9,1382.1,426.9,1362.9,429.4z"/>
	<path class="st0" d="M1581.4,513.9h-87.2c0,0,6.5-7.9-6.2-34.9l-12.2-25.5l-1.1,1.4V479c0,27.6,10.8,34.9,10.8,34.9h-90.4
		c0,0,10.8-7.3,10.8-34.9V345.7c0-27.9-10.8-35.2-10.8-35.2h90.4c0,0-10.8,7.3-10.8,35.2v105.1l29.5-32.2
		c18.7-21.1,19.5-33.9,0.3-41.2h69.9c-21.7,5.1-46,13.8-58.2,30.6l39,70.9C1569.2,504.4,1581.4,513.9,1581.4,513.9z"/>
	<path class="st0" d="M1708.1,490.6c-10.3,22.2-38.7,26.3-52.8,26.3c-13,0-25.7-4.3-44.4-6.2c-12.5-1.1-18.4,6.8-18.4,6.8v-55
		c0,0,24.6,51.2,58.8,51.2c9.5,0,12.2-15.2-12.5-32.2c-15.4-10.6-28.4-18.7-41.7-33c-13.3-14.1-12.7-40.3,0.8-55.5
		c9.8-11.1,26.8-18.7,48.5-18.7c9.8,0,17.6,0.8,36.3,5.4c12.2,3,15.4-4.9,15.4-4.9v53.9c0,0-17.6-51.7-46.8-51.7
		c-8.7,0-13.8,7-7.9,19c6.5,13.3,33.6,27.6,50.9,41.2C1712.5,451,1716.2,473,1708.1,490.6z"/>
</g>
</svg>
