<?xml version="1.0" encoding="utf-8"?>
<!-- Generator: Adobe Illustrator 22.0.1, SVG Export Plug-In . SVG Version: 6.00 Build 0)  -->
<svg version="1.1" id="Layer_1" xmlns="http://www.w3.org/2000/svg" xmlns:xlink="http://www.w3.org/1999/xlink" x="0px" y="0px"
	 viewBox="0 0 1993.1 872" style="enable-background:new 0 0 1993.1 872;" xml:space="preserve">
<style type="text/css">
	.st0{fill:#7F7F7F;}
</style>
<path class="st0" d="M622.6,417l-26.9,71c-4.2,10.2-9.3,22.6-15.3,37.1c-16.7,38.2-39.3,47.8-63.9,39c-31.1-11-26.3-58,11.3-60
	c34.5-1.7,35.1,48.7,56.3,2.5c1.1-2,4.2-9.1,8.2-18.7h-48.7c0,0-32-80.6-42.1-105.8c-10.2-25.5-26-36.8-26-36.8h101.8
	c0,0-7.6,8.5,1.4,36.8l25.7,73c0,0,4.2-7.9,8.2-20.1c16.7-49.5,10.7-79.2-17.5-89.7h85.7C655.4,355.1,640.2,373.7,622.6,417z"/>
<path class="st0" d="M850.3,416.7c-0.3,41-32,74.4-91.7,74.4c-60,0-91.7-33.4-91.9-74.4c0.3-41.3,32-74.7,91.9-74.7
	C818.4,342.1,850.1,375.4,850.3,416.7z M779.1,416.7c-0.6-30.8-1.4-72.4-20.4-72.4c-19.2,0-20.1,41.6-20.7,72.4
	c0.6,30.5,1.4,72.1,20.7,72.1C777.6,488.9,778.5,447.3,779.1,416.7z"/>
<path class="st0" d="M1058.3,488c0,0-37.1,0-59.4,0c-15.8,0-21.5-5.9-23.8-19c-9.1,19-30,22.6-45,22.6c-40.2,0-57.1-24.6-57.1-56
	v-53.5c0-29.1-11.3-36.8-11.3-36.8h83.2v93.1c0,17,1.1,38.8,14.4,39c7.9,0,15.8-10.2,15.8-24.3c0-5.9,0-61.7,0-71
	c0-29.1-11.3-36.8-11.3-36.8h83.2c0,0,0,94.8,0,106.1C1047,480.4,1058.3,488,1058.3,488z"/>
<path class="st0" d="M1188.4,451.5v-56.6c0-16.7-0.8-38.5-14.4-38.8c-7.6-0.3-15.6,10.2-15.6,24c0,10.7,0,44.4,0,71.3
	c0,28.9,11.3,36.5,11.3,36.5h-94.5c0,0,11.3-7.6,11.3-36.5v-69.3c0-29.1-11.3-36.8-11.3-36.8h75.5l7.6,19.2c9.1-19,30-22.6,45-22.6
	c39.9,0,56.9,24.3,56.9,55.4v54c0,28.9,11.6,36.5,11.6,36.5H1177C1177.1,488,1188.4,480.4,1188.4,451.5z"/>
<path class="st0" d="M1405.7,320.8c-3.1,4.5-7.4,15-10.5,24c32.8,7.9,51.5,30.8,51.8,58c-0.3,33.9-28.9,61.1-77.8,61.1
	c-22.1,0-39.9-5.4-52.9-14.7c-0.6,3.1-0.6,7.1,2.3,11.9c6.8,12.7,31.1,16.7,67.9,17.3c54.9,0.6,70.2,22.1,67,50.4
	c-3.7,35.6-45.5,47.5-84.6,47.5c-39.9,0-92.5-2.8-91.1-28c0.8-13.6,16.4-17.3,33.7-16.4c-19-11.9-29.4-37.3-21.5-59.1
	c4.5-12.4,14.7-20.4,24-24.9c-14.4-11.3-22.3-27.2-22.6-45c0.3-33.7,28.9-60.8,77.8-60.8c8.8,0,16.7,0.8,24,2.3l2.8-8.5
	c6.2-17.5,16.1-36.5,34.8-39.6c14.4-2.3,29.1,3.1,33.4,17.5c5.1,17-6.2,33.1-22.6,33.1C1405.9,346.9,1416.4,305,1405.7,320.8z
	 M1314.9,533.8c-15.3,18.4,19.5,40.2,53.7,40.2c39,0,46.4-8.2,45.8-16.4c-0.6-10.7-12.2-10.2-48.1-12.2
	C1350.2,544.6,1331.5,542,1314.9,533.8z M1387,402.9c-0.6-24.9-2.5-58.6-17.8-58.6c-15.6,0-17.3,33.7-17.8,58.6
	c0.6,25.2,2.3,58.8,17.8,58.8C1384.4,461.7,1386.4,428,1387,402.9z"/>
<path class="st0" d="M1524.5,461.7c0,16.1-13.3,29.4-29.4,29.4s-29.4-13.3-29.4-29.4s13.3-29.4,29.4-29.4S1524.5,445.6,1524.5,461.7
	z"/>
</svg>
