<svg xmlns="http://www.w3.org/2000/svg" width="170.708" height="91.317" viewBox="0 0 170.708 91.317">
  <g id="_1-04" data-name="1-04" transform="translate(-62.694 11.832)">
    <path id="Path_143" data-name="Path 143" d="M83.736,382.039v17.932H65.1V344.3H89.006a38.451,38.451,0,0,1,8.335.906,21.319,21.319,0,0,1,7.31,3.065,16.18,16.18,0,0,1,5.187,5.736,21.327,21.327,0,0,1,.037,17.813,16.924,16.924,0,0,1-5.114,5.9,21.069,21.069,0,0,1-7.31,3.3A34.831,34.831,0,0,1,89,382.048H83.736Zm0-23.192v8.966H87.67a7.41,7.41,0,0,0,3.888-1.061,3.85,3.85,0,0,0,1.766-3.577,4.266,4.266,0,0,0-.476-2.159,3.472,3.472,0,0,0-1.3-1.3,5.781,5.781,0,0,0-1.848-.668,11.072,11.072,0,0,0-2.04-.192H83.736Z" transform="translate(-0.905 -323.55)" fill="none" stroke="#231f20" stroke-miterlimit="10" stroke-width="3"/>
    <path id="Path_144" data-name="Path 144" d="M636.8,356.284a29.739,29.739,0,0,1,2.36-12.067,26.833,26.833,0,0,1,6.487-9.158,28.818,28.818,0,0,1,9.789-5.819,37.909,37.909,0,0,1,24.537,0,29.163,29.163,0,0,1,9.826,5.819,26.559,26.559,0,0,1,6.523,9.158,29.772,29.772,0,0,1,2.36,12.067,30.6,30.6,0,0,1-2.36,12.186,27.639,27.639,0,0,1-6.523,9.4,29.184,29.184,0,0,1-9.826,6.011,36.519,36.519,0,0,1-24.537,0,28.952,28.952,0,0,1-9.789-6.011,27.714,27.714,0,0,1-6.487-9.4A30.6,30.6,0,0,1,636.8,356.284Z" transform="translate(-520.301 -308.015)" fill="none" stroke="#231f20" stroke-miterlimit="10" stroke-width="3"/>
    <path id="Path_145" data-name="Path 145" d="M1406.436,382.039v17.932H1387.8V344.3h23.9a38.452,38.452,0,0,1,8.335.906,21.319,21.319,0,0,1,7.31,3.065,16.179,16.179,0,0,1,5.187,5.736,21.328,21.328,0,0,1,.037,17.813,16.927,16.927,0,0,1-5.114,5.9,21.069,21.069,0,0,1-7.31,3.3,34.831,34.831,0,0,1-8.454,1.025h-5.251Zm0-23.192v8.966h3.934a7.411,7.411,0,0,0,3.888-1.061,3.85,3.85,0,0,0,1.766-3.577,4.266,4.266,0,0,0-.476-2.159,3.473,3.473,0,0,0-1.3-1.3,5.781,5.781,0,0,0-1.848-.668,11.072,11.072,0,0,0-2.04-.192h-3.925Z" transform="translate(-1202.594 -323.55)" fill="none" stroke="#231f20" stroke-miterlimit="10" stroke-width="3"/>
    <text id="YOUNG" transform="translate(64.104 10.168)" font-size="22" font-family="AvenirNext-Medium, Avenir Next" font-weight="500"><tspan x="0" y="0">YOUNG</tspan></text>
  </g>
</svg>
