<svg xmlns="http://www.w3.org/2000/svg" viewBox="0 0 102 102">
  <defs>
    <style>
      .cls-1, .cls-2 {
        fill: #ff3860;
      }

      .cls-1 {
        opacity: 0.133;
      }
    </style>
  </defs>
  <g id="Group_93" data-name="Group 93" transform="translate(-124 -2747)">
    <rect id="Rectangle_54" data-name="Rectangle 54" class="cls-1" width="102" height="102" transform="translate(124 2747)"/>
    <g id="video-camera_1_" data-name="video-camera (1)" transform="translate(117.653 2763)">
      <g id="Group_14" data-name="Group 14" transform="translate(25.347)">
        <g id="Group_13" data-name="Group 13" transform="translate(0)">
          <path id="Path_147" data-name="Path 147" class="cls-2" d="M88.133,25.906a1.575,1.575,0,0,0-1.554-.035L76.4,31.351v-4.7a1.575,1.575,0,0,0-1.574-1.575H72.263A14.112,14.112,0,1,0,49.666,10.8,10.638,10.638,0,1,0,33.92,25.08H32.482a1.575,1.575,0,0,0-1.575,1.575V33.8H26.922a1.575,1.575,0,0,0-1.575,1.575v6.192a1.575,1.575,0,0,0,1.575,1.575h3.986v7.147a1.575,1.575,0,0,0,1.575,1.575H51.057l-8.534,16.37a1.574,1.574,0,1,0,2.792,1.456L53.653,53.7l8.338,15.995a1.574,1.574,0,0,0,2.792-1.456l-8.534-16.37H74.824A1.575,1.575,0,0,0,76.4,50.291v-4.7l10.181,5.48A1.574,1.574,0,0,0,88.9,49.688V27.257A1.574,1.574,0,0,0,88.133,25.906ZM30.908,39.994H28.5V36.951h2.411ZM63.387,3.149A10.966,10.966,0,1,1,52.422,14.115,10.978,10.978,0,0,1,63.387,3.149ZM51.364,21.5a14.22,14.22,0,0,0,3.148,3.581H49.018A10.677,10.677,0,0,0,51.364,21.5ZM41.469,10.091a7.495,7.495,0,1,1-7.494,7.494A7.5,7.5,0,0,1,41.469,10.091Zm31.78,23.895V48.715H34.057V28.229H73.249Zm12.5,13.066L76.4,42.018V34.927l9.353-5.034Z" transform="translate(-25.347)"/>
        </g>
      </g>
      <g id="Group_16" data-name="Group 16" transform="translate(36.686 12.803)">
        <g id="Group_15" data-name="Group 15">
          <path id="Path_148" data-name="Path 148" class="cls-2" d="M112.437,92.931a4.783,4.783,0,1,0,4.783,4.783A4.788,4.788,0,0,0,112.437,92.931Zm0,6.731a1.949,1.949,0,1,1,1.949-1.949A1.951,1.951,0,0,1,112.437,99.662Z" transform="translate(-107.654 -92.931)"/>
        </g>
      </g>
      <g id="Group_18" data-name="Group 18" transform="translate(56.519 7.246)">
        <g id="Group_17" data-name="Group 17">
          <path id="Path_149" data-name="Path 149" class="cls-2" d="M258.478,52.595a6.869,6.869,0,1,0,6.869,6.869A6.876,6.876,0,0,0,258.478,52.595Zm0,10.588a3.72,3.72,0,1,1,3.72-3.72A3.724,3.724,0,0,1,258.478,63.183Z" transform="translate(-251.609 -52.595)"/>
        </g>
      </g>
      <g id="Group_20" data-name="Group 20" transform="translate(39.693 32.808)">
        <g id="Group_19" data-name="Group 19">
          <path id="Path_150" data-name="Path 150" class="cls-2" d="M148.091,238.137H130.972a1.5,1.5,0,0,0-1.5,1.5v8.338a1.5,1.5,0,0,0,1.5,1.5h17.119a1.5,1.5,0,0,0,1.5-1.5v-8.338A1.5,1.5,0,0,0,148.091,238.137Zm-1.5,8.338H132.467v-5.346H146.6v5.346Z" transform="translate(-129.476 -238.137)"/>
        </g>
      </g>
      <g id="Group_22" data-name="Group 22" transform="translate(64.991 34.303)">
        <g id="Group_21" data-name="Group 21" transform="translate(0)">
          <circle id="Ellipse_1" data-name="Ellipse 1" class="cls-2" cx="1.575" cy="1.575" r="1.575"/>
        </g>
      </g>
      <g id="Group_24" data-name="Group 24" transform="translate(64.991 39.491)">
        <g id="Group_23" data-name="Group 23" transform="translate(0)">
          <circle id="Ellipse_2" data-name="Ellipse 2" class="cls-2" cx="1.575" cy="1.575" r="1.575"/>
        </g>
      </g>
    </g>
  </g>
</svg>
