<svg id="fs" xmlns="http://www.w3.org/2000/svg" width="151.834" height="15.821" viewBox="0 0 151.834 15.821">
  <g id="Group_11" data-name="Group 11" transform="translate(0 2.726)">
    <path id="Path_131" data-name="Path 131" d="M24.4,48.225h3.757v3.416H24.4v4.213H20.3V43.5h8.369v3.473H24.4Z" transform="translate(-20.3 -43.101)" fill="#7f7f7f"/>
    <path id="Path_132" data-name="Path 132" d="M38.1,43.5h4.213V55.854H38.1Z" transform="translate(-27.967 -43.101)" fill="#7f7f7f"/>
    <path id="Path_133" data-name="Path 133" d="M49.5,43.5h5.351a9.866,9.866,0,0,1,1.822.171,4.45,4.45,0,0,1,1.594.626,3.467,3.467,0,0,1,1.139,1.252,4.052,4.052,0,0,1,.455,1.936,3.408,3.408,0,0,1-.569,1.993A3.615,3.615,0,0,1,57.7,50.787l3.131,5.01H56.047l-2.391-4.441h-.114V55.8H49.5Zm4.042,5.181h.8a1.415,1.415,0,0,0,.455-.057.646.646,0,0,0,.455-.171.513.513,0,0,0,.342-.342.7.7,0,0,0,.171-.512,1.137,1.137,0,0,0-.114-.512.686.686,0,0,0-.285-.285,1.055,1.055,0,0,0-.4-.114H53.6l-.057,1.993Z" transform="translate(-32.877 -43.101)" fill="#7f7f7f"/>
    <path id="Path_134" data-name="Path 134" d="M71.4,43.5h8.482v3.473H75.271v1.082H79.6V51.3H75.271v1.139h4.9v3.473H71.4Z" transform="translate(-42.309 -43.101)" fill="#7f7f7f"/>
    <path id="Path_135" data-name="Path 135" d="M95.472,55.854H91.259L87.9,43.5h4.384l1.366,6.946h.057L95.13,43.5h4.327l1.537,6.946h.057l1.366-6.946h4.27l-3.416,12.354H99.058l-1.765-7h-.057Z" transform="translate(-49.416 -43.101)" fill="#7f7f7f"/>
    <path id="Path_136" data-name="Path 136" d="M121.6,49.29a6.794,6.794,0,0,1,.512-2.676,6.605,6.605,0,0,1,1.423-2.05,6.87,6.87,0,0,1,2.163-1.309,8.425,8.425,0,0,1,5.465,0,5.964,5.964,0,0,1,2.163,1.309,5.774,5.774,0,0,1,1.423,2.05,6.793,6.793,0,0,1,.512,2.676,7.289,7.289,0,0,1-.512,2.733,6.87,6.87,0,0,1-1.423,2.106,6.483,6.483,0,0,1-2.163,1.309,8.332,8.332,0,0,1-2.733.455,8.6,8.6,0,0,1-2.733-.455,5.964,5.964,0,0,1-2.163-1.309,5.522,5.522,0,0,1-1.423-2.106A7.289,7.289,0,0,1,121.6,49.29Zm4.44,0a3.671,3.671,0,0,0,.171,1.139,2.144,2.144,0,0,0,.512.854,2.042,2.042,0,0,0,.8.569,2.682,2.682,0,0,0,.968.228,1.871,1.871,0,0,0,.968-.228,2.566,2.566,0,0,0,.8-.569,2.144,2.144,0,0,0,.512-.854,3.424,3.424,0,0,0,.171-1.139,3.315,3.315,0,0,0-.171-1.082,2.144,2.144,0,0,0-.512-.854,1.93,1.93,0,0,0-.8-.512,2.827,2.827,0,0,0-1.936,0,2.388,2.388,0,0,0-.8.512,2.144,2.144,0,0,0-.512.854A3.315,3.315,0,0,0,126.04,49.29Z" transform="translate(-63.931 -42.8)" fill="#7f7f7f"/>
    <path id="Path_137" data-name="Path 137" d="M148.8,43.5h5.351a9.866,9.866,0,0,1,1.822.171,4.449,4.449,0,0,1,1.594.626,3.467,3.467,0,0,1,1.139,1.252,4.051,4.051,0,0,1,.455,1.936,3.408,3.408,0,0,1-.569,1.993A3.615,3.615,0,0,1,157,50.787l3.131,5.01h-4.782l-2.391-4.441h-.114V55.8H148.8Zm3.985,5.181h.8a1.415,1.415,0,0,0,.455-.057.646.646,0,0,0,.455-.171.513.513,0,0,0,.342-.342,1.36,1.36,0,0,0,.171-.512,1.137,1.137,0,0,0-.114-.512.686.686,0,0,0-.285-.285,1.055,1.055,0,0,0-.4-.114h-1.366v1.993Z" transform="translate(-75.646 -43.101)" fill="#7f7f7f"/>
    <path id="Path_138" data-name="Path 138" d="M174.7,50.9h0l-.057,4.9H170.6V43.5h4.042v4.554h.057L178,43.5h4.9l-4.668,5.636,4.9,6.718H178Z" transform="translate(-85.035 -43.101)" fill="#7f7f7f"/>
    <path id="Path_139" data-name="Path 139" d="M197.237,56.023a12.95,12.95,0,0,1-1.48-.114,13.289,13.289,0,0,1-1.423-.4,8.379,8.379,0,0,1-1.252-.569A7.25,7.25,0,0,1,192,54.2l2.5-2.733a4.577,4.577,0,0,0,1.139.854,3.321,3.321,0,0,0,1.48.342,2.046,2.046,0,0,0,.626-.114.451.451,0,0,0,.285-.455.435.435,0,0,0-.114-.285.876.876,0,0,0-.342-.228c-.171-.057-.4-.171-.683-.285a8.254,8.254,0,0,0-1.082-.342,5.405,5.405,0,0,1-1.2-.512,7.992,7.992,0,0,1-1.025-.683,3.231,3.231,0,0,1-.683-1.025,3.516,3.516,0,0,1-.285-1.423,3.891,3.891,0,0,1,.455-1.936,5.3,5.3,0,0,1,1.2-1.309,5.427,5.427,0,0,1,1.651-.74,6.941,6.941,0,0,1,1.822-.228,8.049,8.049,0,0,1,2.5.455,5.6,5.6,0,0,1,2.22,1.366l-2.562,2.619a2.782,2.782,0,0,0-1.025-.8,3.055,3.055,0,0,0-1.082-.285,2.526,2.526,0,0,0-.74.114.451.451,0,0,0-.285.455.428.428,0,0,0,.285.4,3.854,3.854,0,0,0,.911.342,8.68,8.68,0,0,1,1.423.512,7.727,7.727,0,0,1,1.366.74,4.628,4.628,0,0,1,1.025,1.082,2.888,2.888,0,0,1,.4,1.594,4.222,4.222,0,0,1-.455,1.936,3.479,3.479,0,0,1-1.2,1.366,4.95,4.95,0,0,1-1.651.8A6.4,6.4,0,0,1,197.237,56.023Z" transform="translate(-94.253 -42.929)" fill="#7f7f7f"/>
  </g>
  <g id="Group_12" data-name="Group 12" transform="translate(109.198 0)">
    <path id="Path_140" data-name="Path 140" d="M219.678,51.572c.057.512-.74.968-1.082,1.2a13.243,13.243,0,0,1-1.48.968,1.7,1.7,0,0,0-.455.228c-.171.171-.171.114-.114.4a4.6,4.6,0,0,1,.057.911,5.615,5.615,0,0,1-.171,1.366A2.325,2.325,0,0,1,214.1,58.29c-1.025,0-2.049-.569-1.879-1.651a2.466,2.466,0,0,1-.057.285c-.114-.057,0-.455.057-.512a3.379,3.379,0,0,1,1.2-1.48,8.143,8.143,0,0,1,.854-.626c.228-.114.683-.342.74-.569a2.993,2.993,0,0,0-.228-.968c-.057-.285-.171-.626-.228-.968a1.909,1.909,0,0,0,0-.569,3.99,3.99,0,0,1-.171-.8,3.5,3.5,0,0,1,.057-.8c.114-.4,1.025-1.309,1.423-.911,0-.057.228.228.228.342,0,.057-.057.683-.171.683a1.158,1.158,0,0,0,.057-.285,3.21,3.21,0,0,0-.228.683,1.4,1.4,0,0,0,.057.683c0-.057,0-.057.057-.057,0,0,.171.854.285,1.537-.114-.455-.285-.968-.342-1.309.114.74.285,1.423.455,2.163a.079.079,0,0,0,0-.114c0,.057.057.057.057.114a11.861,11.861,0,0,0,2.049-1.139c.285-.171.626-.512.911-.683.228-.057.4,0,.4.228Zm-5.921,5.636.455-.171-.114.114a3.683,3.683,0,0,0,.512-.455l-.057.057a4.227,4.227,0,0,0,.455-.854,4.263,4.263,0,0,0,.114-1.2c-.057.057-.057.057-.114.057l.114-.114-.171.114c.114-.057-.228.228-.285.228l-.512.342a3.07,3.07,0,0,0-.911.8c-.171.228-.569.911-.171,1.025A.732.732,0,0,0,213.757,57.208Zm2.22-.342a2.813,2.813,0,0,1-2.106,1.139,3.616,3.616,0,0,0,1.309-.285A1.9,1.9,0,0,0,215.977,56.866Zm.228-4.327c.057.171.057.342.114.455A2.565,2.565,0,0,0,216.205,52.54Zm.342,2.106Z" transform="translate(-212.114 -42.583)" fill="#7f7f7f"/>
    <path id="Path_141" data-name="Path 141" d="M228.98,42.332c0,.228-.285.4-.455.455-.228.057-.455-.057-.683-.057-.114.057-.057.057-.171.114a1.415,1.415,0,0,1-.455.057c-.228,0-.683-.114-.854,0-.057,0-.057.057-.114.114l.057-.114c-.114,0-.285.455-.4.74l.171-.342-.228.626c-.171.342-.285.683-.455,1.082-.285.683-.569,1.366-.8,2.05a32.1,32.1,0,0,0-1.2,3.985c-.057.228-.342,1.2,0,1.309.057.057.4-.171.4-.171l.285-.285a2.268,2.268,0,0,1-.228.171c0-.114.4-.455.455-.512.171-.171.285-.342.455-.512l.968-1.2c.569-.74,1.139-1.48,1.765-2.22.114-.171.455-.74.626-.8.285-.057.285.228.228.455a8.73,8.73,0,0,1-.8,1.2c-.4.683-.911,1.309-1.366,1.993-.512.683-1.082,1.423-1.651,2.106a3.31,3.31,0,0,1-1.025.968c-.285.171-.74-.057-.968-.228a1.229,1.229,0,0,1-.512-.8c0-.114-.114-.626,0-.74v.228l.057-.342c-.057.057-.057-.171-.057-.171,0-.114.057-.285.057-.4.057-.285.114-.512.171-.8l.342-1.537a7.864,7.864,0,0,1,.455-1.537c.057-.057.342-1.082.455-1.082a1.291,1.291,0,0,0-.057.228c.057-.228.171-.512.228-.74-.057.057-.057.171-.057.114a3.952,3.952,0,0,1,.285-.74l.171-.569a12.251,12.251,0,0,1,.569-1.537c-.455.057-.911,0-1.309.057a6.2,6.2,0,0,1-2.049-.057c-.057,0-.455-.057-.4-.228.057-.057.4-.114.455-.171a2.663,2.663,0,0,1,.968-.114c.626-.057,1.252-.057,1.936-.114.171,0,.455.057.569-.057.171-.057.171-.171.228-.285a5.744,5.744,0,0,1,.4-.854c.171-.285.285-.626.455-.911.114-.171.285-.228.342-.455a4.552,4.552,0,0,1,.74-1.252,1.337,1.337,0,0,1,1.423-.4c.228.057.569.171.455.512-.057.114-.228.228-.285.285,0,0,.171-.171.171-.057a2.934,2.934,0,0,1-.683.911,3.381,3.381,0,0,0,.228-.455,29.277,29.277,0,0,0-1.651,2.9q.085,0,.171-.171a.441.441,0,0,0-.057.171c.626-.057,1.309-.057,1.936-.057,0,.114.228-.057.285.228Zm-5.921,10.077c0,.057.057.057,0,0Zm4.9-13.265a34.458,34.458,0,0,0-3.074,6.149,22.269,22.269,0,0,0-1.366,3.7,16.041,16.041,0,0,0-.4,1.765l.057-.285a15.206,15.206,0,0,1,.74-2.277,51.008,51.008,0,0,1,1.879-4.9A28.554,28.554,0,0,1,227.955,39.143Zm-2.733,5.978c-.171.342-.285.683-.4.968.114-.285.285-.569.4-.911Zm1.651-3.416-.171.342A.927.927,0,0,0,226.873,41.705Zm.455-.854-.4.74C227.1,41.25,227.215,40.851,227.329,40.851Z" transform="translate(-215.894 -38.011)" fill="#7f7f7f"/>
    <path id="Path_142" data-name="Path 142" d="M239.684,52.458a7.928,7.928,0,0,1-.854,1.082c-.455.512-1.2,1.366-1.936,1.423a.977.977,0,0,1-.911-.455,2.451,2.451,0,0,1,.228-1.993c-.455.512-.854,1.025-1.252,1.537-.114.171-1.366,1.423-1.537,1.2,0,0,.171-.057.114-.114a.918.918,0,0,1-.512.171h.057c.057.114-.455-.057-.512-.114a1.05,1.05,0,0,1-.285-.683,4.568,4.568,0,0,1,.114-1.537,8.121,8.121,0,0,1,.512-1.537,2.528,2.528,0,0,1,.455-.626,3.336,3.336,0,0,1,.8-1.252.938.938,0,0,1,1.139,0c.285.228.114.342,0,.569l.114-.114c.057,0-.342.8-.455.8a2.673,2.673,0,0,1,.114-.285,11.382,11.382,0,0,0-.569,1.2c.057-.057.057-.057.114-.057-.057,0-.626,1.537-.683,1.651-.057.228-.342.968.057.8.455-.114.911-.8,1.252-1.139a13.357,13.357,0,0,0,1.082-1.423c.342-.569.8-1.423,1.651-1.2.74.228.171,1.025-.057,1.48l.057-.057c.114.114-.228.74-.285.911a3,3,0,0,0-.228,1.025c0,.4.114.285.342.057a12.512,12.512,0,0,0,1.48-1.537c.057-.057.8-.911.854-.569A4.946,4.946,0,0,1,239.684,52.458Zm-5.636.114a3.95,3.95,0,0,0-.455,1.594A7.211,7.211,0,0,1,234.048,52.572Zm2.163-.171c-.057.057-.057.057-.057.171C236.154,52.515,236.211,52.458,236.211,52.4Zm1.708-1.366c-.171.4-.683.911-.512,1.366v.057l.057-.057c.057-.057.057-.228.114-.285A6.013,6.013,0,0,1,237.919,51.034Z" transform="translate(-220.792 -42.9)" fill="#7f7f7f"/>
    <path id="Path_143" data-name="Path 143" d="M252.551,48.759c-.342.342-.683.74-1.025,1.139-.683.8-1.2,1.765-1.879,2.619-.512.683-1.423,1.879-2.277.968-.683-.683-.512-1.993-.455-2.9a11.922,11.922,0,0,1-1.594,1.366,1.5,1.5,0,0,1-1.082.4c-1.309-.285-1.082-2.05-.74-2.9.228-.512.285-1.082.569-1.594a3.711,3.711,0,0,1,1.423-1.537c.8-.285,1.48.569,1.936,1.082a28.767,28.767,0,0,1,1.537-4.213c.057-.057.171-.512.285-.626a.849.849,0,0,0-.171.455,5.264,5.264,0,0,1,.285-.569h0a2.464,2.464,0,0,0,.285-.683c.171-.228.285-.455.455-.683a2.868,2.868,0,0,1,1.139-.854c.626-.228,1.537-.114,1.765.569.342.911-.285,1.993-.74,2.79-.285.455-.569.911-.911,1.366l-.455.569-.171.171c0-.057.057-.057,0-.057l-.114.171h0l-.057.057-.683.968c.057-.114.228-.285.228-.228,0,0-1.139,1.423-1.2,1.537a4.751,4.751,0,0,0-.569,1.993c-.057.342-.512,2.676.057,2.676.171,0,.342-.285.455-.4l.683-.854c.455-.569.854-1.2,1.309-1.765a19.1,19.1,0,0,1,1.366-1.651c.114-.057.854-.968.911-.455h0C253.292,48.133,252.779,48.474,252.551,48.759Zm-5.351,0a1.11,1.11,0,0,0,0-.854c-.171-.228-.285-.512-.512-.626-.057-.057-.171-.171-.285-.114h-.057l.057-.057c-.342.057-.626.569-.8.911a14.485,14.485,0,0,0-.911,2.163c-.057.285-.4,1.2,0,1.366.171.114.512-.171.74-.342a1.2,1.2,0,0,1-.626.285c-.569-.057-.171-1.082.114-1.765-.228.626-.569,1.708-.114,1.765.4.057.968-.626,1.2-.854.285-.228.512-.512.8-.74a1.589,1.589,0,0,0,.342-1.025v-.057l.057-.057Zm-1.594,2.391h0a3.921,3.921,0,0,0,.74-.626c.171-.171.683-.512.74-.74-.4.4-.8.8-1.2,1.139Zm.569-3.814.114-.114Zm.683-.057c-.057-.057-.057-.057-.114-.057Zm1.765-1.366c-.057.114-.171.285-.228.4-.057.171,0,.4-.114.569a.056.056,0,0,0,.057-.057,1.81,1.81,0,0,0,.171-.512A1.123,1.123,0,0,0,248.623,45.912Zm.455-1.822a2.105,2.105,0,0,1-.285.626,2.82,2.82,0,0,0-.228.74,1.7,1.7,0,0,0,.228-.569A3.294,3.294,0,0,1,249.079,44.091Zm.74.968-.057.057c0,.057-.057.114,0,.057-.228.683-.455,1.423-.683,2.106,0-.057.057-.057.057-.114-.057.114-.171.228-.171.285l.057-.057.114-.171.854-1.082-.342.4-.342.4a28.323,28.323,0,0,0,1.879-2.676c.512-.8,1.309-1.936,1.2-2.96a.647.647,0,0,0-.171-.455c-.4-.228-.8.569-.968.8a14.879,14.879,0,0,0-1.366,3.074h0l-.057.057h0c.057.171.057.228,0,.285Zm0,.114h0l.057-.114Zm.228,1.708Zm0-.057Z" transform="translate(-225.518 -38.916)" fill="#7f7f7f"/>
    <path id="Path_144" data-name="Path 144" d="M262.7,50.517l-.854,1.2c-.342.455-.74,1.139-1.309,1.309a2.272,2.272,0,0,1-.74-.228h.057c-.114-.057,0,.057-.171-.057a1.159,1.159,0,0,1-.342-.4,2.01,2.01,0,0,1-.455-.74c0-.057-.057-.683.057-.683.057,0,0,.057,0,.057l.057-.285c0,.057,0,.057-.057.057a6.848,6.848,0,0,1,.285-1.309c.114-.342.171-.74.512-.911a.905.905,0,0,1,.854,0c.114.057.512.228.512.4,0,.114-.057.114-.114.171h.057c.057.057-.171.4-.228.342-.057,0,0-.057.057-.114a14.753,14.753,0,0,0-.8,1.651,5.246,5.246,0,0,1,.569-1.139c.057,0-1.082,1.993-.512,2.277.285.114.683-.285.911-.455a6.928,6.928,0,0,0,.968-.854c-.057.057-.057.057-.114.057a4.358,4.358,0,0,1,.911-1.252c.114-.057.342-.171.4.057A2.629,2.629,0,0,1,262.7,50.517Zm-2.79.968-.057.114.057-.114Zm.228-4.1c0-.057-.057-.569.114-.455,0-.057.171-.285.114-.057a2.691,2.691,0,0,0,.4-.683l-.171.285a4.068,4.068,0,0,0,.4-1.025s-.057-.171,0-.171c-.342-.114-.114-.342.057-.455-.057,0-.057,0-.057-.057-.057-.057.114-.114.171-.114a.851.851,0,0,1,.74.057,1.044,1.044,0,0,1,.4.569.66.66,0,0,1-.228.569,1.245,1.245,0,0,1-.285.171c-.114.114-.057.285-.171.4-.057.057-.171.114-.171.171a.107.107,0,0,0,0,.171c-.057.057-.114.057-.171.114a2.484,2.484,0,0,1-.455.569,1.718,1.718,0,0,0,.455-.455.885.885,0,0,1,.455-.342c-.171.171-.171.4-.4.512-.171.114,0-.114-.228.057h.057c-.171.114-.285.342-.512.455-.114.057-.171.114-.285.057s-.057-.114-.114-.171Zm.114-.455Zm.285-.455a.176.176,0,0,0-.057.114Z" transform="translate(-232.255 -40.845)" fill="#7f7f7f"/>
    <path id="Path_145" data-name="Path 145" d="M270.2,51.383a1.291,1.291,0,0,0-.228.057c-.171.057-.114.057-.228.171a6.216,6.216,0,0,0-.342.626c-.057.057-.683.911-.8.911l.114-.171-.455.569.057-.057a2.5,2.5,0,0,1-.911.8,2.74,2.74,0,0,1-.911.455,2.071,2.071,0,0,1-2.049-2.96,11.4,11.4,0,0,1,.854-1.651,2.48,2.48,0,0,1,.8-.74,1.144,1.144,0,0,1,.455-.228c.114-.057.342-.057.455-.171.114-.057.171-.512.285-.626.057-.114.171-.285.228-.4a2.451,2.451,0,0,1,.854-.854,1.326,1.326,0,0,1,1.537.4s.285.171.285.285l-.057-.057.057.114h0c-.057-.114.171.114.171.114a3.923,3.923,0,0,1,.171.455,1.387,1.387,0,0,1,0,.683,6.581,6.581,0,0,1-.455,1.822,13.556,13.556,0,0,0,1.48-.285c.114-.057.228-.114.285,0h0C272.311,51.212,270.375,51.383,270.2,51.383Zm-1.594.057a1.979,1.979,0,0,1-1.822-1.252,4.569,4.569,0,0,0-.569,1.025l.114-.171c-.057.171-1.594,3.074-.228,2.847h0C267.244,53.717,268.155,52.407,268.61,51.44Zm.8-3.7c-.342-.512-.911.228-1.2.569h0v.057h0c0,.057-.057.057,0,.057-.057.114-.171.228-.285.4,0,0,.171-.285.228-.285.057.114-.285.626-.285.74a4.193,4.193,0,0,0-.228.8.817.817,0,0,0,.171.8.8.8,0,0,0,.512.171c.114,0,.285.057.4,0,.171-.057.114,0,.171-.171a6.391,6.391,0,0,0,.455-1.48C269.407,48.992,269.692,48.138,269.407,47.739Zm-1.2.569Z" transform="translate(-234.575 -41.882)" fill="#7f7f7f"/>
    <path id="Path_146" data-name="Path 146" d="M281.278,51.572c.057.512-.74.968-1.082,1.2a13.251,13.251,0,0,1-1.48.968,1.7,1.7,0,0,0-.455.228c-.171.171-.171.114-.114.4a4.6,4.6,0,0,1,.057.911,5.615,5.615,0,0,1-.171,1.366A2.325,2.325,0,0,1,275.7,58.29c-1.025,0-2.049-.569-1.879-1.651a2.465,2.465,0,0,1-.057.285c-.114-.057,0-.455.057-.512a3.378,3.378,0,0,1,1.2-1.48,8.143,8.143,0,0,1,.854-.626c.228-.114.683-.342.74-.569a2.993,2.993,0,0,0-.228-.968c-.057-.285-.171-.626-.228-.968a1.909,1.909,0,0,0,0-.569,3.987,3.987,0,0,1-.171-.8,3.5,3.5,0,0,1,.057-.8c.114-.4,1.025-1.309,1.423-.911,0-.057.228.228.228.342,0,.057-.057.683-.171.683a1.158,1.158,0,0,0,.057-.285,3.209,3.209,0,0,0-.228.683,1.4,1.4,0,0,0,.057.683c0-.057,0-.057.057-.057,0,0,.171.854.285,1.537-.114-.455-.285-.968-.342-1.309.114.74.285,1.423.455,2.163a.079.079,0,0,0,0-.114c0,.057.057.057.057.114a11.856,11.856,0,0,0,2.049-1.139c.285-.171.626-.512.911-.683.228-.057.342,0,.4.228Zm-5.921,5.636.455-.171-.114.114a3.68,3.68,0,0,0,.512-.455l-.057.057a4.226,4.226,0,0,0,.455-.854,4.264,4.264,0,0,0,.114-1.2c-.057.057-.057.057-.114.057l.114-.114-.171.114c.114-.057-.228.228-.285.228l-.512.342a3.069,3.069,0,0,0-.911.8c-.171.228-.569.911-.171,1.025C274.845,57.322,275.129,57.265,275.357,57.208Zm2.163-.342a2.813,2.813,0,0,1-2.106,1.139,3.616,3.616,0,0,0,1.309-.285A1.9,1.9,0,0,0,277.52,56.866Zm.285-4.327c.057.171.057.342.114.455C277.862,52.938,277.862,52.71,277.805,52.54Zm.285,2.106Z" transform="translate(-238.646 -42.583)" fill="#7f7f7f"/>
  </g>
</svg>
