<svg id="Group_66" data-name="Group 66" xmlns="http://www.w3.org/2000/svg" width="174.344" height="18" viewBox="0 0 174.344 18">
  <g id="fire_text" transform="translate(0 1.35)">
    <g id="Group_25" data-name="Group 25" transform="translate(0 0)">
      <path id="Path_151" data-name="Path 151" d="M29.984,20.751h4.163v3.719H29.984v4.618H25.5V15.5h9.224v3.841H30.051l-.067,1.41Z" transform="translate(-25.5 -15.045)" fill="#7f7f7f"/>
      <path id="Path_152" data-name="Path 152" d="M126,15.5h4.618V29.087H126Z" transform="translate(-114.844 -15.045)" fill="#7f7f7f"/>
      <path id="Path_153" data-name="Path 153" d="M190.511,15.5h5.828a10.946,10.946,0,0,1,1.987.189,5.952,5.952,0,0,1,1.8.7,3.628,3.628,0,0,1,1.277,1.343,4.264,4.264,0,0,1,.511,2.109,3.571,3.571,0,0,1-.644,2.176,3.732,3.732,0,0,1-1.8,1.476L202.932,29h-5.25l-2.631-4.873h-.133V29H190.5l.011-13.5Zm4.418,5.706h.9a1.5,1.5,0,0,0,.511-.067.743.743,0,0,0,.511-.189.922.922,0,0,0,.388-.322.772.772,0,0,0,.189-.577,1.263,1.263,0,0,0-.133-.577.751.751,0,0,0-.322-.322,1.191,1.191,0,0,0-.444-.133H195v2.176h-.067Z" transform="translate(-172.185 -15.045)" fill="#7f7f7f"/>
      <path id="Path_154" data-name="Path 154" d="M314.1,15.5h9.357v3.785H318.4V20.44h4.74v3.585H318.4V25.3h5.384v3.785H314.1Z" transform="translate(-282.065 -15.045)" fill="#7f7f7f"/>
      <path id="Path_155" data-name="Path 155" d="M415.425,29.087h-4.618L407.1,15.5h4.873l1.476,7.626h.067l1.6-7.626h4.806l1.732,7.626h.067l1.465-7.626h4.673l-3.785,13.587h-4.618l-1.92-7.693h-.067Z" transform="translate(-364.742 -15.045)" fill="#7f7f7f"/>
      <path id="Path_156" data-name="Path 156" d="M598.6,19.115a7.3,7.3,0,0,1,.577-2.953,6.373,6.373,0,0,1,1.6-2.242,6.784,6.784,0,0,1,2.375-1.41A8.948,8.948,0,0,1,606.159,12a9.2,9.2,0,0,1,3.008.511,8.259,8.259,0,0,1,2.431,1.41,6.238,6.238,0,0,1,1.6,2.242,7.265,7.265,0,0,1,.577,2.953,7.729,7.729,0,0,1-.577,3.008,6.787,6.787,0,0,1-4.029,3.785,9.116,9.116,0,0,1-6.016,0,6.463,6.463,0,0,1-2.375-1.476,7.282,7.282,0,0,1-1.6-2.309A7.767,7.767,0,0,1,598.6,19.115Zm4.862,0a3.96,3.96,0,0,0,.189,1.221,2.548,2.548,0,0,0,.577.966,4.377,4.377,0,0,0,.833.644,2.873,2.873,0,0,0,1.088.189,3.107,3.107,0,0,0,1.088-.189,2.1,2.1,0,0,0,.832-.644,2.466,2.466,0,0,0,.577-.966,3.611,3.611,0,0,0,.189-1.221,3.962,3.962,0,0,0-.189-1.221,2.208,2.208,0,0,0-.577-.9,2.5,2.5,0,0,0-.832-.577,2.873,2.873,0,0,0-1.088-.189,3.107,3.107,0,0,0-1.088.189,1.972,1.972,0,0,0-.833.577,2.767,2.767,0,0,0-.577.9A3.662,3.662,0,0,0,603.462,19.115Z" transform="translate(-534.985 -11.933)" fill="#7f7f7f"/>
      <path id="Path_157" data-name="Path 157" d="M751.1,15.5h5.894a10.946,10.946,0,0,1,1.987.189,5.952,5.952,0,0,1,1.8.7,3.626,3.626,0,0,1,1.276,1.343,4.263,4.263,0,0,1,.511,2.109,3.571,3.571,0,0,1-.644,2.176,3.732,3.732,0,0,1-1.8,1.476L763.588,29h-5.25l-2.631-4.873h-.133V29h-4.418V15.5Zm4.418,5.706h.9a1.5,1.5,0,0,0,.511-.067.743.743,0,0,0,.51-.189.923.923,0,0,0,.389-.322.772.772,0,0,0,.189-.577,1.264,1.264,0,0,0-.133-.577.752.752,0,0,0-.322-.322,1.191,1.191,0,0,0-.444-.133h-1.532v2.176h-.066Z" transform="translate(-670.557 -15.045)" fill="#7f7f7f"/>
      <path id="Path_158" data-name="Path 158" d="M879.084,24.237h0l-.067,5.45H874.6V16.1h4.418v5h.067l3.652-5h5.384l-5.128,6.216,5.384,7.371h-5.639Z" transform="translate(-780.348 -15.578)" fill="#7f7f7f"/>
      <path id="Path_159" data-name="Path 159" d="M1001.505,25.82a11.932,11.932,0,0,1-1.6-.133c-.511-.133-1.021-.255-1.543-.444a9.083,9.083,0,0,1-1.41-.644,5.4,5.4,0,0,1-1.154-.833l2.819-3.008a5,5,0,0,0,1.276.9,3.744,3.744,0,0,0,1.665.389,2.177,2.177,0,0,0,.7-.133.513.513,0,0,0,.322-.511.478.478,0,0,0-.133-.322.968.968,0,0,0-.389-.255c-.189-.067-.444-.189-.766-.322a11.589,11.589,0,0,0-1.154-.389,6.374,6.374,0,0,1-1.343-.577,4.544,4.544,0,0,1-1.154-.766,4.031,4.031,0,0,1-.766-1.088,3.733,3.733,0,0,1-.322-1.543,4.7,4.7,0,0,1,.511-2.176,3.751,3.751,0,0,1,1.343-1.476,5.346,5.346,0,0,1,1.854-.833,7.454,7.454,0,0,1,1.987-.255,8.579,8.579,0,0,1,2.753.511,6.69,6.69,0,0,1,2.431,1.476l-2.819,2.886a3.137,3.137,0,0,0-1.154-.9,3.177,3.177,0,0,0-1.221-.322,3.112,3.112,0,0,0-.832.133c-.189.133-.322.255-.322.444a.477.477,0,0,0,.322.444,4.286,4.286,0,0,0,1.021.389c.511.133,1.021.322,1.543.511a6.435,6.435,0,0,1,1.476.766,4.2,4.2,0,0,1,1.155,1.221,3.259,3.259,0,0,1,.444,1.8,4.233,4.233,0,0,1-.511,2.109,6.032,6.032,0,0,1-1.276,1.543,5.943,5.943,0,0,1-1.8.9A3.006,3.006,0,0,1,1001.505,25.82Z" transform="translate(-888.095 -11.4)" fill="#7f7f7f"/>
    </g>
  </g>
  <text id="_tech_" data-name="&lt;tech/&gt;" transform="translate(124.345 14)" fill="#7f7f7f" font-size="14" font-family="CircularStd-Bold, Circular Std" font-weight="700"><tspan x="0" y="0">&lt;tech/&gt;</tspan></text>
</svg>
