<svg xmlns="http://www.w3.org/2000/svg" width="202" height="91.064" viewBox="0 0 202 91.064">
  <g id="tori_b" transform="translate(-25.425 -24.901)">
    <g id="Group_17" data-name="Group 17" transform="translate(25.425 41.978)">
      <path id="Path_146" data-name="Path 146" d="M42.5,243.227c-1.87-11.221,2.1-47.1,2.1-47.1-3.857.351-17.766,3.857-17.766,3.857s-3.214-.994.058-2.513a95.816,95.816,0,0,1,18.117-3.974s2.338-16.714,5.961-15.779c0,0,2.1.351,1.052,6.078l-1.169,8.766s22.208-2.338,26.649,1.4c0,0,3.623,2.221,1.169,4.442a1.192,1.192,0,0,1-1.519-1.286s-.468-3.39-15.312-2.922l-11.455.935s-2.571,12.623-4.909,17.649c0,0-1.753,23.026-.468,30.39,0,0,.468,5.026,1.052,6.078s-1.519,2.688-2.571.7Z" transform="translate(-25.425 -176.896)"/>
      <path id="Path_147" data-name="Path 147" d="M215,239.89s1.286-7.481,1.87-8.883-.935,8.883-.935,8.883Z" transform="translate(-192.842 -223.877)" fill="#fff"/>
      <path id="Path_148" data-name="Path 148" d="M209.351,330.117l.7-.117L209,334.792Z" transform="translate(-187.543 -311.416)" fill="#fff"/>
      <path id="Path_149" data-name="Path 149" d="M228.512,405.575s2.805-5.494,7.013-.7a7.723,7.723,0,0,1,1.519,4.442s4.208-1.753,5.377-2.805c0,0-.468-4.675,1.87-3.857,0,0,1.286.468.7,1.286l.117,10.052s1.636-12.039,6.662-15.078c0,0,2.338-1.169,4.208,3.156s3.974,6.195,6.078,5.26v-1.87s1.169-2.455,2.571,0c0,0-.935,9.818-.818,14.494a20.562,20.562,0,0,0,.117,3.623s1.52,1.52-.234,2.221c0,0-1.636.7-2.1-1.87a67.74,67.74,0,0,1,.234-13.792s-2.571.468-3.974-1.052a24.19,24.19,0,0,1-3.623-4.909s-1.286-3.273-2.1-2.571a30.9,30.9,0,0,0-4.442,12.507s-.468,4.909-.468,7.6c0,0-.234,3.039-1.87,3.039s-2.338-3.623-2.338-3.623l-.468-11.805A25.625,25.625,0,0,1,237.044,412s-.117,7.831-5.494,9.935c0,0-3.974,1.4-5.377-4.208s.468-10.987,1.286-12.156A1.016,1.016,0,0,1,228.512,405.575Z" transform="translate(-202.263 -372.146)"/>
      <path id="Path_150" data-name="Path 150" d="M269.291,464.442s0-3.857-2.221-4.442a2.271,2.271,0,0,0-2.1,2.571C265.083,465.026,265.668,465.26,269.291,464.442Z" transform="translate(-236.964 -426.221)" fill="#fff"/>
      <path id="Path_151" data-name="Path 151" d="M253.41,508.52s-4.325,1.753-6.195-1.52a26.034,26.034,0,0,0,0,4.442c.234,1.636.7,4.558,3.156,3.507S253.41,508.52,253.41,508.52Z" transform="translate(-221.2 -467.727)" fill="#fff"/>
      <path id="Path_152" data-name="Path 152" d="M549,367.377s.584-1.519,1.753-1.052c0,0,1.519,1.169,0,2.221S549,367.377,549,367.377Z" transform="translate(-487.803 -343.416)"/>
      <path id="Path_153" data-name="Path 153" d="M704.588,204.312s2.571-4.558,6.312-1.4a8.336,8.336,0,0,1,2.221,5.494l5.26-2.805.234-5.26-4.792,1.519s-3.039.234-.935-2.455c0,0,1.753.117,5.727-1.753,0,0,3.857-25.247,12.974-26.649,0,0,3.623.351,1.286,7.6,0,0-4.208,13.558-5.961,16.948,0,0,10.052-1.753,11.455-.7,0,0,2.1,1.052.351,2.338a1.268,1.268,0,0,1-1.286-.117s-3.39-.584-11.805,1.286c0,0-2.571,7.13-5.026,9.234,0,0-.584,20.688.351,24.779,0,0,1.052.351.818,1.987,0,0,.234,2.571-1.052,2.805,0,0-1.87.935-2.338-3.974,0,0-.935-21.273-.467-24.779A19.116,19.116,0,0,1,713,210.974s.117,7.481-5.61,9.935-6.779-10.636-4.558-15.546C702.835,205.364,703.419,203.844,704.588,204.312Z" transform="translate(-622.702 -171)"/>
      <path id="Path_154" data-name="Path 154" d="M745.54,465.658s0-5.26-3.506-3.74C742.033,461.918,738.76,468.58,745.54,465.658Z" transform="translate(-657.576 -427.671)" fill="#fff"/>
      <path id="Path_155" data-name="Path 155" d="M722.73,507s1.987,2.922,6.312,1.4c0,0-1.052,6.779-3.974,6.779C725.068,515.182,721.8,515.766,722.73,507Z" transform="translate(-641.078 -467.727)" fill="#fff"/>
      <path id="Path_156" data-name="Path 156" d="M863.468,411.234l1.52-.234L863,415.091Z" transform="translate(-765.101 -382.948)" fill="#fff"/>
      <path id="Path_157" data-name="Path 157" d="M872,217.026s2.455-19.636,9.351-23.026c0,0,1.169,1.169-2.221,9.468,0,0-4.792,13.208-4.909,13.208S872,217.026,872,217.026Z" transform="translate(-773.049 -191.312)" fill="#fff"/>
      <path id="Path_158" data-name="Path 158" d="M1068.371,263.113s1.4-1.753,2.338,0c0,0-1.169,7.775-1.169,10.87,0,.468-2.688,19.753-1.753,24.429s0,6.429,2.455,8.649c0,0,1.169.351,3.974-4.675l8.182-14.143s.584-3.974,2.221-3.156c0,0,2.805-5.26,6.779-.7a6.544,6.544,0,0,1,1.753,4.325l5.026-2.455v-.7s-1.753-.818,0-2.571c0,0,2.1-1.52,2.571,3.74l.935,11.455s2.688-10.286,6.545-16.013c0,0,2.805-4.208,4.325-4.442,0,0,2.338.117,1.052,1.987a30.789,30.789,0,0,0-4.091,5.026s-3.623,6.662-4.675,12.156c0,0-1.286,6.195-3.039,5.61,0,0-1.753.584-2.455-3.507l-.818-9.935-5.377,2.455s-1.052,10.286-6.779,10.052c0,0-4.091.351-4.442-7.364,0,0-7.831,15.779-11.221,15.312,0,0-3.74,1.052-5.026-7.364,0,0-1.286-11.221,0-16.247Z" transform="translate(-943.589 -251.658)"/>
      <path id="Path_159" data-name="Path 159" d="M1250.776,464.557s-.234-6.662-3.974-3.39C1246.8,461.167,1244.464,466.894,1250.776,464.557Z" transform="translate(-1103.669 -426.453)" fill="#fff"/>
      <path id="Path_160" data-name="Path 160" d="M1234.778,508.4s-2.688,1.87-5.961-1.4c0,0-.818,6.545,1.286,7.831s3.156-1.052,3.156-1.052S1235.479,510.156,1234.778,508.4Z" transform="translate(-1088.022 -467.727)" fill="#fff"/>
      <path id="Path_161" data-name="Path 161" d="M1455.74,378.421s2.922-9.351,7.6-10.87a4.323,4.323,0,0,1,4.208.234s2.688,1.87,0,7.013-5.377,7.831-9.935,6.779c0,0-2.805,8.766,1.753,11.688,0,0,2.805,1.987,7.48-4.675,0,0,4.792-6.9,5.61-10.169,0,0,2.221-1.169,1.753,1.4,0,0-2.922,7.714-5.961,10.753,0,0-3.39,5.26-7.364,5.61,0,0-5.26.351-6.429-7.013,0,0-.818-6.779.818-9.117A.962.962,0,0,1,1455.74,378.421Z" transform="translate(-1287.244 -344.174)"/>
      <path id="Path_162" data-name="Path 162" d="M1487,398.14s3.974-10.52,7.6-9.584c0,0,2.455,2.805-3.506,8.766C1491.091,397.322,1490.039,398.374,1487,398.14Z" transform="translate(-1316.166 -363.075)" fill="#fff"/>
    </g>
    <path id="Path_163" data-name="Path 163" d="M1096.984,51.033a21.679,21.679,0,0,1,10.76-24.02c9.336-4.82,21.145-.976,27.059,7.344a.339.339,0,0,0,.552,0,21.933,21.933,0,0,1,25.839-7.9c9.956,3.46,13.615,12.723,11.4,22.584-2.365,10.509-5.455,18.6-13.432,25.386q-.393.333-.79.66a.34.34,0,0,1-.445-.514c7.569-6.911,12.688-16.018,11.76-27.178a19.819,19.819,0,0,0-2.622-8.827,20.762,20.762,0,0,0-14.762-9.061,18.98,18.98,0,0,0-8.863,1.465,25.944,25.944,0,0,0-9.652,7.461.34.34,0,0,1-.539-.019c-1.175-1.655-6.465-8.35-15.478-8.909a18.9,18.9,0,0,0-16.845,8.382,20.022,20.022,0,0,0-3.27,13.031A.339.339,0,0,1,1096.984,51.033Z" transform="translate(-945.791)" fill="#231f20"/>
  </g>
</svg>
