<svg xmlns="http://www.w3.org/2000/svg" width="40.328" height="26.596" viewBox="0 0 40.328 26.596">
  <g id="fu" transform="translate(0 -1.568)">
    <g id="_167744456944" transform="translate(0 0)">
      <path id="Path_164" data-name="Path 164" d="M179.9,48.1V42.7h.662v5.4Z" transform="translate(-149.715 -31.337)"/>
      <path id="Path_165" data-name="Path 165" d="M121.127,42.7v5.473H120.5V42.7Z" transform="translate(-111.019 -31.337)"/>
      <path id="Path_167" data-name="Path 167" d="M120.1,17.807V14.6h8.017v3.207h-1.708V34.678l1.743,1.708h5.542l1.743-1.743V17.807h-1.708V14.6h8.017v3.207h-1.673V35.933l-3.695,3.695H125.5l-3.764-3.73V17.807Z" transform="translate(-110.759 -13.031)" fill="#7f7f7f"/>
      <g id="Group_30" data-name="Group 30" transform="translate(2.998 12.723)">
        <path id="Path_168" data-name="Path 168" d="M103.225,48.434h1.22v1.081h-1.22v1.359H101.9V46.9h2.719v1.115h-1.394Z" transform="translate(-101.9 -46.795)" fill="#7f7f7f"/>
        <path id="Path_169" data-name="Path 169" d="M111.4,46.9h1.359v4.009H111.4Z" transform="translate(-108.089 -46.795)" fill="#7f7f7f"/>
        <path id="Path_170" data-name="Path 170" d="M117.4,46.9h1.743a3.069,3.069,0,0,1,.593.07,1.18,1.18,0,0,1,.523.209,1.486,1.486,0,0,1,.383.418,1.665,1.665,0,0,1,.139.627,1.2,1.2,0,0,1-.174.627,1.077,1.077,0,0,1-.523.418l1.011,1.6h-1.569l-.767-1.429h-.035v1.429h-1.29V46.9Zm1.29,1.708h.383a.181.181,0,0,0,.139-.07l.1-.1c.035-.07.07-.1.07-.174a.314.314,0,0,0-.035-.174c-.035-.035-.07-.07-.1-.07-.035-.035-.07-.035-.139-.035h-.418Z" transform="translate(-111.997 -46.795)" fill="#7f7f7f"/>
        <path id="Path_171" data-name="Path 171" d="M129,46.9h2.754v1.115h-1.5v.349h1.394V49.41h-1.394v.383h1.569v1.115H129Z" transform="translate(-119.554 -46.795)" fill="#7f7f7f"/>
        <path id="Path_172" data-name="Path 172" d="M140.14,50.909h-1.359L137.7,46.9h1.429l.418,2.231h.035l.453-2.231h1.429l.488,2.231h.035l.418-2.231H143.8l-1.115,4.009H141.29l-.593-2.266h-.035Z" transform="translate(-125.222 -46.795)" fill="#7f7f7f"/>
        <path id="Path_173" data-name="Path 173" d="M155.5,48.691a2.427,2.427,0,0,1,.174-.871,1.732,1.732,0,0,1,.453-.662,2.32,2.32,0,0,1,.7-.418,3.532,3.532,0,0,1,.906-.139,4.08,4.08,0,0,1,.906.139,2.211,2.211,0,0,1,.732.418,1.732,1.732,0,0,1,.453.662,2.284,2.284,0,0,1,.174.871,2.427,2.427,0,0,1-.174.871,1.731,1.731,0,0,1-.453.662,2.123,2.123,0,0,1-.732.418,2.6,2.6,0,0,1-.906.139,4.08,4.08,0,0,1-.906-.139,1.561,1.561,0,0,1-.7-.418,1.732,1.732,0,0,1-.453-.662A2.283,2.283,0,0,1,155.5,48.691Zm1.464,0a1.483,1.483,0,0,0,.07.383.479.479,0,0,0,.174.279.625.625,0,0,0,.244.174.469.469,0,0,0,.314.07.833.833,0,0,0,.314-.07,1.059,1.059,0,0,0,.244-.174,1.945,1.945,0,0,0,.174-.279,1.253,1.253,0,0,0,.07-.383,1.239,1.239,0,0,0-.07-.349c-.035-.1-.07-.209-.174-.244a.625.625,0,0,0-.244-.174.741.741,0,0,0-.627,0,.534.534,0,0,0-.244.174c-.07.07-.1.174-.174.244S156.964,48.587,156.964,48.691Z" transform="translate(-136.817 -46.6)" fill="#7f7f7f"/>
        <path id="Path_174" data-name="Path 174" d="M169.9,46.9h1.743a3.07,3.07,0,0,1,.593.07,1.18,1.18,0,0,1,.523.209,1.486,1.486,0,0,1,.383.418,1.665,1.665,0,0,1,.139.627,1.2,1.2,0,0,1-.174.627,1.077,1.077,0,0,1-.523.418l1.011,1.6h-1.569l-.767-1.429h-.035v1.429h-1.29L169.9,46.9Zm1.29,1.708h.383a.181.181,0,0,0,.139-.07l.1-.1c.035-.07.07-.1.07-.174a.314.314,0,0,0-.035-.174c-.035-.035-.07-.07-.1-.07-.035-.035-.07-.035-.139-.035h-.453l.035.627Z" transform="translate(-146.198 -46.795)" fill="#7f7f7f"/>
        <path id="Path_175" data-name="Path 175" d="M182.89,49.305h0v1.569H181.6V46.9h1.29v1.464h0L183.97,46.9h1.569l-1.5,1.847,1.569,2.161H183.97Z" transform="translate(-153.82 -46.795)" fill="#7f7f7f"/>
        <path id="Path_176" data-name="Path 176" d="M194.508,50.883a2.3,2.3,0,0,1-.488-.035c-.174-.035-.314-.07-.453-.1a2.342,2.342,0,0,1-.418-.209,3.016,3.016,0,0,1-.349-.244l.8-.906a.732.732,0,0,0,.383.244,1.113,1.113,0,0,0,.488.1.442.442,0,0,0,.209-.035c.07-.035.07-.07.07-.139,0-.035,0-.07-.035-.07-.035-.035-.07-.07-.1-.07a.406.406,0,0,0-.244-.07,2.164,2.164,0,0,0-.349-.1,3.63,3.63,0,0,1-.418-.174,1.085,1.085,0,0,1-.314-.244,2.455,2.455,0,0,1-.244-.314.889.889,0,0,1-.07-.453,1.665,1.665,0,0,1,.139-.627,1.2,1.2,0,0,1,.418-.418,1.6,1.6,0,0,1,.558-.244,1.828,1.828,0,0,1,.593-.07,3.525,3.525,0,0,1,.8.139,3.06,3.06,0,0,1,.732.418l-.837.871a.639.639,0,0,0-.349-.244.689.689,0,0,0-.349-.07.593.593,0,0,0-.244.035c-.07.035-.07.07-.07.139a.181.181,0,0,0,.07.139,2.4,2.4,0,0,0,.279.1c.139.07.279.07.453.139a1.649,1.649,0,0,1,.418.244.763.763,0,0,1,.314.349,1.155,1.155,0,0,1,.139.523,1.665,1.665,0,0,1-.139.627,1.564,1.564,0,0,1-.383.453,1.439,1.439,0,0,1-.523.244A1.616,1.616,0,0,1,194.508,50.883Z" transform="translate(-161.116 -46.665)" fill="#7f7f7f"/>
      </g>
      <path id="Path_177" data-name="Path 177" d="M93.962,34.062h9.167V33.4H93.3V46.82h9.481v2.126l4.5,4.5h12.374l4.5-4.5V46.82h9.481V33.4h-9.69v.662h9.028v12.1h-9.481v2.649l-3.939,3.974h-12.13l-4.008-3.974V46.158H93.962Z" transform="translate(-93.3 -25.278)" fill="#7f7f7f"/>
    </g>
  </g>
</svg>
