<svg xmlns="http://www.w3.org/2000/svg" width="150.428" height="34.853" viewBox="0 0 150.428 34.853">
  <g id="_1-02" data-name="1-02" transform="translate(-39.6 -105.1)">
    <path id="Path_137" data-name="Path 137" d="M48.579,116.8l5.7,21.329,7-21.329h6.829l7,21.329,5.7-21.329h8.979l-9.851,33.02H71.177l-6.48-19.14-6.48,19.14H49.451L39.6,116.8Z" transform="translate(0 -10.772)"/>
    <path id="Path_138" data-name="Path 138" d="M1648.115,114.483a10.883,10.883,0,0,0-2.8-1.689,7.452,7.452,0,0,0-2.713-.547,4.4,4.4,0,0,0-2.713.785,2.464,2.464,0,0,0-1.055,2.054,2.045,2.045,0,0,0,.523,1.444,4.524,4.524,0,0,0,1.38.984,12.08,12.08,0,0,0,1.927.722c.714.206,1.42.42,2.126.658a13.283,13.283,0,0,1,6.155,3.744,9.234,9.234,0,0,1,1.951,6.108,11.858,11.858,0,0,1-.857,4.6,9.592,9.592,0,0,1-2.5,3.522,11.514,11.514,0,0,1-4.029,2.276,16.819,16.819,0,0,1-5.409.809,19.884,19.884,0,0,1-11.6-3.72l3.68-6.917a14.864,14.864,0,0,0,3.807,2.538,9.15,9.15,0,0,0,3.72.833,4.449,4.449,0,0,0,3.133-.96,2.986,2.986,0,0,0,.769-3.482,2.846,2.846,0,0,0-.873-1.007,6.956,6.956,0,0,0-1.6-.857c-.658-.262-1.452-.555-2.388-.873-1.11-.349-2.2-.738-3.26-1.158a10.136,10.136,0,0,1-2.848-1.689,7.782,7.782,0,0,1-2.015-2.649,9.421,9.421,0,0,1-.77-4.053,11.687,11.687,0,0,1,.809-4.442,9.729,9.729,0,0,1,5.869-5.632,13.6,13.6,0,0,1,4.751-.785,20.856,20.856,0,0,1,5.124.682,22.8,22.8,0,0,1,5.124,1.991Z" transform="translate(-1462.871)"/>
    <path id="Path_139" data-name="Path 139" d="M921.136,116.8h-2.618L910.5,136.9l-7.972-20.1H893.2l13.881,33.02h6.837l3.062-7.273,2.364-5.6,3.07-7.273,2.364-5.6,3.07-7.273Z" transform="translate(-785.894 -10.772)"/>
    <g id="Group_15" data-name="Group 15" transform="translate(82.345 106.02)">
      <path id="Path_140" data-name="Path 140" d="M663.608,127.035a.606.606,0,0,1,1.19.032l1.364,8.273,1.816-12.017a.612.612,0,0,1,.595-.516h.008a.6.6,0,0,1,.595.524l2.054,15.047,2.11-17.5a.607.607,0,0,1,.595-.539h0a.614.614,0,0,1,.6.531l1.9,13.6,1.515-8.487a.606.606,0,0,1,1.19-.016l1.594,8.011.476-1.055a.613.613,0,0,1,.555-.357h.492L676.212,116.7h-9.367L660.8,132.572h1.586Z" transform="translate(-654.272 -116.7)"/>
      <path id="Path_141" data-name="Path 141" d="M606.944,225.861h-.563l-1.095,2.411a.6.6,0,0,1-1.142-.135l-1.333-6.71-1.658,9.241a.606.606,0,0,1-1.2-.032L598.2,216.7l-2.086,17.291a.6.6,0,0,1-.595.539h-.008a.6.6,0,0,1-.595-.523l-2.142-14.269-1.761,11.636a.606.606,0,0,1-1.2.008l-1.483-8.947-.65,2.951a.611.611,0,0,1-.595.476h-2.419c-.032,0-.071-.008-.1-.008L578.5,241.8h9.153l1.967-5.735h12.263l1.967,5.735H613Z" transform="translate(-578.5 -208.768)"/>
    </g>
    <g id="Group_16" data-name="Group 16" transform="translate(144.459 105.663)">
      <path id="Path_142" data-name="Path 142" d="M1380.6,119.553h-10.32v5.576h9.74v7.353h-9.74v5.759h10.32v7.353h-19V112.2h19Z" transform="translate(-1361.6 -112.2)"/>
    </g>
  </g>
</svg>
