<?xml version="1.0" encoding="utf-8"?>
<!-- Generator: Adobe Illustrator 22.0.1, SVG Export Plug-In . SVG Version: 6.00 Build 0)  -->
<svg version="1.1" id="Layer_1" xmlns="http://www.w3.org/2000/svg" xmlns:xlink="http://www.w3.org/1999/xlink" x="0px" y="0px"
	 viewBox="0 0 1133.9 425.2" style="enable-background:new 0 0 1133.9 425.2;" xml:space="preserve">
<g>
	<path d="M93.3,339.6V218L50.5,67.6h-16v-4h64v4h-16l40.8,144l43.2-144h-15.6v-4h39.2v4c-6.9,0-12.3,1.5-16.2,4.4
		c-3.9,2.9-6.5,6.4-7.8,10.4l-40.8,136v121.2h16v4h-64v-4H93.3z"/>
	<path d="M166.1,339.6c6.4,0,11.5-1.4,15.2-4.2c3.7-2.8,6.1-6.5,7.2-11l56-264.8h6.4l61.6,280h16v4h-64.8v-4h16l-16.8-78h-57.2
		l-16.4,78h15.2v4h-38.4V339.6z M206.5,257.6h55.6l-28.4-127.2L206.5,257.6z"/>
	<path d="M381.3,63.6l74.4,199.2V67.6h-16v-4h38v4c-6.4,0-11,1.1-13.8,3.4c-2.8,2.3-4.2,5.1-4.2,8.6v264h-6.4L360.5,94.4v245.2h16v4
		h-38v-4c6.4,0,11-1.1,13.8-3.4c2.8-2.3,4.2-5.1,4.2-8.6v-248c0-3.5-1.4-6.3-4.2-8.6c-2.8-2.3-7.4-3.4-13.8-3.4v-4H381.3z"/>
	<path d="M625.7,322.8c-7.2,0-13.3,1.3-18.2,3.8c-4.9,2.5-9.5,5.4-13.8,8.6c-4.3,3.2-8.5,6.1-12.8,8.6c-4.3,2.5-9.3,3.8-15.2,3.8
		c-8.3,0-16.1-1.7-23.4-5c-7.3-3.3-13.7-7.9-19-13.8c-5.3-5.9-9.6-12.7-12.8-20.4c-3.2-7.7-4.8-16-4.8-24.8v-160
		c0-8.8,1.6-17.1,4.8-24.8c3.2-7.7,7.5-14.5,12.8-20.4c5.3-5.9,11.7-10.5,19-13.8c7.3-3.3,15.1-5,23.4-5c8.5,0,15.8,1.6,21.8,4.8
		c6,3.2,11.3,7.7,15.8,13.6c2.9,0,5.4-1.2,7.4-3.6c2-2.4,3-6,3-10.8h4v60h-4c0-8.5-1.2-16.5-3.6-23.8c-2.4-7.3-5.6-13.7-9.6-19
		c-4-5.3-8.7-9.5-14-12.6c-5.3-3.1-10.9-4.6-16.8-4.6c-5.1,0-9.5,1.6-13.4,4.8c-3.9,3.2-7.2,7.5-10,12.8c-2.8,5.3-4.9,11.7-6.4,19
		c-1.5,7.3-2.2,15.1-2.2,23.4v160c0,8.3,0.7,16.1,2.2,23.4c1.5,7.3,3.5,13.7,6,19c2.5,5.3,5.5,9.6,8.8,12.8c3.3,3.2,7,4.8,11,4.8
		s7.7-1.6,11-4.8c3.3-3.2,6.3-7.5,8.8-12.8c2.5-5.3,4.5-11.7,6-19c1.5-7.3,2.2-15.1,2.2-23.4V208h-16v-4h64v4h-16V322.8z"/>
	<path d="M640.1,339.6c6.4,0,11.5-1.4,15.2-4.2c3.7-2.8,6.1-6.5,7.2-11l56-264.8h6.4l61.6,280h16v4h-64.8v-4h16l-16.8-78h-57.2
		l-16.4,78h15.2v4h-38.4V339.6z M680.5,257.6h55.6l-28.4-127.2L680.5,257.6z"/>
</g>
</svg>
