<svg id="young" xmlns="http://www.w3.org/2000/svg" width="76.381" height="29.305" viewBox="0 0 76.381 29.305">
  <path id="Path_182" data-name="Path 182" d="M29.034,19.621l-2.705,2.144c-.957.792-1.914,1.584-2.87,2.441a10.668,10.668,0,0,0-1.32,1.155,10.014,10.014,0,0,0-.627,1.914c-1.155,3.629-2.243,7.456-4.223,10.755-.627.99-1.122,2.045-2.408,2.375a3.724,3.724,0,0,1-3.794-1.485c-1.254-1.617.132-3.53,1.122-4.85a41.194,41.194,0,0,1,3-3.728c.792-.825,1.617-1.584,2.441-2.375a11.616,11.616,0,0,0,2.013-2.012,20.517,20.517,0,0,0,1.023-3.233c.264-.858.528-1.749.825-2.606a15.706,15.706,0,0,0-1.353,1.551l-2.013,2.012A7.362,7.362,0,0,1,15.8,25.46c-.2.066-1.32.561-1.353.528l.066-.066-.165.033c.231,0-.363.264-.495.264a1.451,1.451,0,0,1-.99-.165,2.29,2.29,0,0,1-1.056-1.716c-.033-.231.1-2.21.4-2.177.066,0-.033.2.033.231a5.122,5.122,0,0,1,.132-.693l-.066.066a23.987,23.987,0,0,1,1.023-3.431,13.756,13.756,0,0,1,.792-1.914c.132-.2.264-.264.363-.429.066-.066.165-.264.264-.4a1.533,1.533,0,0,1,1.947-.825c.33.132.825.561.726.957-.066.2-.231.264-.3.363.033,0,.066-.033.1-.033.1.033-.363,1.056-.462,1.023-.066,0,.033-.264.066-.363a35.146,35.146,0,0,0-1.848,4.454A28.654,28.654,0,0,1,16.3,18.2c.1.033-2.969,6-1.485,6.466.528.2,1.518-.825,1.881-1.089a23.75,23.75,0,0,0,2.573-2.111.493.493,0,0,1-.231.1c.033,0,1.485-1.782,1.716-2.012a7.634,7.634,0,0,0,1.683-2.045c.132-.429.2-.759.825-.858.759-.132,1.881.231,2.013,1.056a1.412,1.412,0,0,1-.264.957A26.856,26.856,0,0,0,22.6,23.547c1.419-1.221,2.87-2.441,4.388-3.563.528-.429,1.089-.825,1.617-1.254.3-.264,1.287-1.254,1.353-.264C29.991,19.027,29.43,19.324,29.034,19.621ZM18.972,28.132a30.334,30.334,0,0,0-3.53,3.893,13.788,13.788,0,0,0-2.771,4.487c-.2.693-.1,2.738,1.155,2.309.66-.231,1.122-1.122,1.452-1.683a18.268,18.268,0,0,0,1.089-2.111.332.332,0,0,0,.033-.1.032.032,0,0,1,.033-.033v-.033l.132-.264v-.033C17.487,32.454,18.246,30.277,18.972,28.132ZM17.949,35.16l.264-.495a9.064,9.064,0,0,0,.693-1.683,6.183,6.183,0,0,0-.561,1.155C18.213,34.467,18.081,34.83,17.949,35.16Zm.594-1.947-.132.2A.69.69,0,0,0,18.543,33.213Zm.858-2.969a2.7,2.7,0,0,1-.3,1.122,2.48,2.48,0,0,0-.264.792L19.4,30.8A1.07,1.07,0,0,0,19.4,30.244Z" transform="translate(-10.587 -11.197)" fill="#7f7f7f"/>
  <path id="Path_183" data-name="Path 183" d="M73.488,12.559c-.066,0-.462.132-.429.1a.728.728,0,0,0-.462.363c-.264.363-.462.792-.693,1.155-.132.132-1.254,1.782-1.452,1.683,0,0,.264-.3.231-.33l-.957,1.056c.1-.1.165-.132.165-.1-.165.528-1.221,1.155-1.683,1.485a4.217,4.217,0,0,1-1.782.825,3.862,3.862,0,0,1-1.914-.33A4.031,4.031,0,0,1,62.6,13.186a20.2,20.2,0,0,1,1.65-3.1,6.07,6.07,0,0,1,1.485-1.419A4.056,4.056,0,0,1,66.56,8.2c.231-.132.693-.165.825-.264.2-.132.363-.924.495-1.188a5.251,5.251,0,0,1,.429-.726A5.044,5.044,0,0,1,69.925,4.41c1.056-.594,2.111,0,2.9.792,0,0,.528.33.495.528L73.191,5.6l.132.264.033.033c-.033-.33.33.132.33.132a1.918,1.918,0,0,1,.3.825,3.727,3.727,0,0,1,0,1.353,18.238,18.238,0,0,1-.825,3.464c.924-.165,1.881-.363,2.771-.561.231-.066.429-.231.594,0,.033.066,0,.033,0,.033C77.447,12.262,73.818,12.493,73.488,12.559Zm-2.936.1c-1.353-.2-3.035-.792-3.4-2.342a11.569,11.569,0,0,0-1.122,1.914l.2-.264c-.066.3-3.035,5.774-.462,5.411H65.8C67.979,16.98,69.661,14.472,70.552,12.658Zm1.485-6.994c-.627-.957-1.782.429-2.243,1.056a.032.032,0,0,0-.033.033l-.033.066V6.785c-.033.066-.066.1-.033.1a5.845,5.845,0,0,0-.528.759c.033-.033.363-.594.4-.495.1.2-.495,1.188-.594,1.353a6.053,6.053,0,0,0-.4,1.518,1.572,1.572,0,0,0,.3,1.485,1.746,1.746,0,0,0,.99.3,2.136,2.136,0,0,0,.792.033c.3-.066.231.033.363-.264a10.241,10.241,0,0,0,.858-2.8C72.07,8.006,72.5,6.455,72.037,5.664ZM69.793,6.719h0C69.76,6.752,69.793,6.752,69.793,6.719Z" transform="translate(-45.177 -4.169)" fill="#7f7f7f"/>
  <path id="Path_184" data-name="Path 184" d="M113.254,18.07a12.138,12.138,0,0,1-1.617,2.078c-.891.957-2.21,2.54-3.662,2.639a1.9,1.9,0,0,1-1.782-.891c-.66-1.188.033-2.672.429-3.761-.825.957-1.584,1.914-2.375,2.936-.231.264-2.573,2.672-2.9,2.276,0-.033.264-.165.264-.2a1.867,1.867,0,0,1-.99.33.247.247,0,0,0,.165.033c.066.231-.825-.132-.924-.2a2.468,2.468,0,0,1-.594-1.254,7.013,7.013,0,0,1,.264-2.969,20.1,20.1,0,0,1,.924-2.936c.231-.495.594-.759.825-1.188a6.371,6.371,0,0,1,1.452-2.342,1.783,1.783,0,0,1,2.111.033c.561.429.264.66,0,1.089a.56.56,0,0,1,.2-.2,5.116,5.116,0,0,1-.825,1.485,4.66,4.66,0,0,1,.2-.495c-.4.726-.792,1.452-1.122,2.21a.239.239,0,0,1,.2-.132c-.066-.033-1.188,2.87-1.287,3.1-.132.462-.693,1.848.165,1.551.891-.264,1.782-1.485,2.342-2.144a26.939,26.939,0,0,0,2.013-2.672c.693-1.023,1.485-2.738,3.068-2.309,1.386.4.33,1.914-.1,2.771.066-.066.132-.165.165-.132.2.231-.429,1.386-.528,1.716a7.715,7.715,0,0,0-.462,1.914c-.033.759.2.528.693.165a29.129,29.129,0,0,0,2.837-2.87c.066-.066,1.485-1.716,1.584-1.122A3.907,3.907,0,0,1,113.254,18.07Zm-10.656.3c-.33.825-.99,2.078-.825,2.969A11.4,11.4,0,0,1,102.6,18.367ZM106.755,18a.3.3,0,0,0-.132.264A1.946,1.946,0,0,1,106.755,18Zm3.2-2.639c-.3.792-1.254,1.782-.99,2.54a.121.121,0,0,1-.033.1c.033-.033.066-.066.066-.1a3.136,3.136,0,0,0,.2-.594C109.394,16.684,109.691,16.057,109.955,15.365Z" transform="translate(-69.965 -9.614)" fill="#7f7f7f"/>
  <path id="Path_185" data-name="Path 185" d="M148.161,16.684c-.693.858-1.32,1.815-2.046,2.606-.561.594-1.485,1.584-2.375,1.32-.2-.066-1.353-.693-1.32-.825l.1.066-.2-.2c.165.264-.2-.066-.231-.066a2.21,2.21,0,0,1-.363-.594,2.263,2.263,0,0,1-.2-1.023c0-.33.066-.693.1-1.023a9.865,9.865,0,0,1,.3-2.012c.066-.165.726-1.914.924-1.848.066,0-.1.231-.066.264l.429-.858c-.066.066-.1.132-.165.165a4.642,4.642,0,0,1,.462-.891c-.627.726-1.122,1.452-1.683,2.21-.4.528-.891.858-1.188,1.353a37.938,37.938,0,0,0-1.98,3.3l-.132-.264c-.561.693-1.386-.132-1.716-.66a2.084,2.084,0,0,1-.132-1.419,8.334,8.334,0,0,1,.2-1.518,18.855,18.855,0,0,1,.693-1.914c.231-.66.429-1.32.693-1.947a8.3,8.3,0,0,0,.561-1.353c.1-.33,0-.561.4-.825a1.649,1.649,0,0,1,1.188-.132c.495.1,1.386.627.858,1.386-.231.264-.594.594-.825.891a1.769,1.769,0,0,0-.363.891c-.066.264-.3.462-.429.726a6.3,6.3,0,0,0-.429,1.188,4.92,4.92,0,0,0-.066.693c-.066.66-.264,1.32-.33,1.947.033-.132.264-.33.264-.3.033.033-.3.561-.264.561l1.848-2.672c-.4.528-.726.891-.726.891A60.385,60.385,0,0,1,144,9.624c.891-.825,2.046-.825,2.474.66.495,1.551-1.122,2.573-1.881,3.7a16.738,16.738,0,0,0-1.056,2.012,6.049,6.049,0,0,0-.759,1.979,6.425,6.425,0,0,1,.528-1.353,4.37,4.37,0,0,1,1.089-1.65c-.231.4-.462.792-.66,1.155l.165-.2a5.691,5.691,0,0,1-.3,1.122,3.654,3.654,0,0,0-.264,1.188,2.815,2.815,0,0,0,0,.528l.033.033c0-.033.231-.066.264-.1a5.8,5.8,0,0,0,1.32-.891c.759-.594,1.452-1.254,2.177-1.881a18.356,18.356,0,0,0,1.65-1.518c.2-.264.627-.792.792-.033C149.712,15.134,148.524,16.189,148.161,16.684Z" transform="translate(-95.04 -7.106)" fill="#7f7f7f"/>
  <path id="Path_186" data-name="Path 186" d="M180.011,15.9,177.5,17.814c-.924.759-1.848,1.452-2.705,2.243-.429.33-.891.693-1.287,1.056a3.6,3.6,0,0,0-.627,1.452c-1.056,3.563-1.98,7.324-3.86,10.557-.594,1.056-1.089,2.177-2.441,2.507-1.551.363-2.837-.858-3.4-2.21-.627-1.518,0-2.936.891-4.223a40.744,40.744,0,0,1,2.507-3.266,21.93,21.93,0,0,1,1.979-1.947c.66-.627,1.518-1.254,2.111-1.947a9.544,9.544,0,0,0,.99-2.969l.693-2.441a29.874,29.874,0,0,1-2.309,3.332,10.054,10.054,0,0,1-2.441,2.8,1.447,1.447,0,0,1-1.353.2c-.231-.1-1.386-1.155-1.287-1.353.033.033.066.066.1.066l-.1-.231c.066.3-.3-.4-.33-.462a4.05,4.05,0,0,1-.165-1.287,10.359,10.359,0,0,1,.165-2.012,4.237,4.237,0,0,1,.66-1.65c.033-.1.66-1.122.792-1.056.033,0-.132.231-.1.264l.528-.792a.281.281,0,0,1-.165.1c-.231-.132,2.771-3.332,3.068-3.6A6.815,6.815,0,0,1,171.07,9.7a2.13,2.13,0,0,1,.825-.2c.264-.033.33-.165.561-.231a2.436,2.436,0,0,1,2.342.693c.33.363.528,1.617-.264,1.65-.2,0-.264-.132-.429-.231l.1.1a8.47,8.47,0,0,0-1.221.033l.4-.165c-1.881.3-3.464,2.573-4.454,4.025a35.334,35.334,0,0,1,2.507-2.9c-.561.528-2.276,2.705-2.408,2.9a16.2,16.2,0,0,0-2.078,3.959c-.165.429-.825,3.035.3,2.177a12.849,12.849,0,0,0,2.342-2.474c-.033.033-.066.066-.1.066-.1,0,.495-.858.594-.99l.825-1.287c.594-.825,1.155-1.749,1.749-2.573.264-.33.66-1.023,1.023-1.188,1.287-.561,2.87.561,2.078,1.881a24.437,24.437,0,0,0-2.21,4.586c.165.1,1.881-1.485,2.144-1.716.693-.561,1.353-1.122,2.079-1.617.528-.4,1.089-.759,1.617-1.155.264-.264,1.188-1.155,1.32-.264C180.935,15.339,180.407,15.6,180.011,15.9Zm-9.766,8.05a38.144,38.144,0,0,0-3.794,4.19c-.957,1.287-2.639,3.266-2.144,5.015.759,2.738,2.8-.99,3.233-1.914a54.612,54.612,0,0,0,2.144-5.609,2.275,2.275,0,0,1,.132-.33C169.949,24.907,170.114,24.445,170.246,23.95Zm-1.551-8.908c-.1.165-.264.3-.33.4a4.827,4.827,0,0,0-.957,1.551,9.438,9.438,0,0,0,.726-.99Zm-.231,1.155a8.913,8.913,0,0,0-.66,1.023l.264-.4Zm1.221,11.217c-.462,1.254-1.056,2.408-1.617,3.6.264-.495.66-.957.924-1.485.264-.66.495-1.353.693-2.012Z" transform="translate(-112.671 -7.543)" fill="#7f7f7f"/>
  <path id="Path_187" data-name="Path 187" d="M216.845,35.562a3.211,3.211,0,0,1-.957,1.056c-.363.33-.693.759-1.287.429a2.67,2.67,0,0,1-.891-.825c-.429-.924.726-2.21,1.419-2.573a2.239,2.239,0,0,1,1.782-.2c.165.033.165-.1.3.1.2.264,0,.528,0,.759C217.67,34.276,216.911,35.43,216.845,35.562Zm6-21.148c-.264.825-.627,1.617-.924,2.441-.594,1.551-1.089,3.134-1.617,4.718-.858,2.573-1.485,5.246-2.441,7.852-.2.462-.891,3.035-1.683,2.243-.495-.495.066-2.078.2-2.672.2-.792.462-1.518.66-2.309.825-3.332,1.518-6.73,2.144-10.1a24.408,24.408,0,0,0,.429-2.639,1.456,1.456,0,0,1,.4-1.32c.891-.792,2.87-.462,3,.825v.033A2.862,2.862,0,0,1,222.85,14.415Zm-4.586,10.722a.249.249,0,0,0-.033.132A.249.249,0,0,1,218.264,25.137Zm.792-3.332a8.084,8.084,0,0,0-.462,1.914,12.939,12.939,0,0,1-.33,1.419,18.9,18.9,0,0,0,.858-2.408,19.558,19.558,0,0,0,.4-2.738v-.033A10.81,10.81,0,0,1,219.056,21.8Z" transform="translate(-146.634 -9.555)" fill="#7f7f7f"/>
</svg>
